<svg xmlns="http://www.w3.org/2000/svg" xmlns="http://www.w3.org/2000/svg" viewBox="0 0 64 64"><g class="gotchi-wearable wearable-head"><svg x="18" y="2"><path d="M0 18v-6h2V8h2V6h2V4h2V2h2V0h8v2h2v2h2v2h2v2h2v4h2v6z" /><path d="M8 5V4H6v2H4v2H2v2h1v1h4v-1h1V9h1V5z" fill="#ff6e00" /><g fill="#fff"><path d="M4 8H3v1h2V7H4z" /><path d="M6 5v1H5v1h2V5z" /></g></svg></g><g class="gotchi-wearable gotchi-secondary"><path d="M33 40v1h-1v-1h1z" /><path d="M29,42v1h2v-1h1v-1h-1v1H29z" /><path d="M29 43v1h-4v-1h4z" /></g></svg>