<svg xmlns="http://www.w3.org/2000/svg" xmlns="http://www.w3.org/2000/svg" viewBox="0 0 64 64"><g class="gotchi-wearable wearable-eyes"><svg x="19" y="22"><path d="M7 0v1h1v1h17v3H8v3H7v1H0V0h7z" fill="#0448b9" /><g fill="#0060ff"><path d="M7 1v1h1v1H7v1h1v1H7v1h1v1H7v1H0V1h7z" /><path d="M8 3h1v1H8zm3 0h14v1H11v1h-1V2h1v1z" /></g><path d="M6 1v1h2v1H7v1h1v1H7v1h1v1H6v1H0V1h6zm5 2h14v1H11v1h-1V2h1v1z" fill="#abfbff" /><path d="M3 1H2v2H1v2H0v3h1V7h1V5h1V3h1V1H3z" fill="#d7ffff" /><path d="M11 2v1h14v1H11v1h-1V2h1z" fill="#fdfdff" /><path d="M13 3h1v1h-1zm2 0h1v1h-1zm2 0h1v1h-1zm2 0h1v1h-1zm2 0h1v1h-1zm2 0h1v1h-1z" fill="#fff" /><path d="M7 2h1v1H7zm0 2h1v1H7zm0 2h1v1H7zm3-3h1v1h-1zm2 0h1v1h-1zm2 0h1v1h-1zm2 0h1v1h-1zm2 0h1v1h-1zm2 0h1v1h-1zm2 0h1v1h-1zm2 0h1v1h-1z" fill="#ffd200" /></svg></g><g class="gotchi-wearable gotchi-secondary"><path d="M33 40v1h-1v-1h1z" /><path d="M29,42v1h2v-1h1v-1h-1v1H29z" /><path d="M29 43v1h-4v-1h4z" /></g></svg>