<svg xmlns="http://www.w3.org/2000/svg" xmlns="http://www.w3.org/2000/svg" viewBox="0 0 64 64"><g class="gotchi-wearable wearable-body"><svg x="12" y="32"><g><path d="M3,1v20h34V1H3z" fill="#a00" /><path d="M12,1v20h16V1H12z" fill="#d4aa00" /><path d="M28,2v18h8V9h1V2H28z" fill="red" /><path d="M3,1v20h9V1H3z" fill="#2d5016" /><path d="M3,2v7h1v11h8V2H3z" fill="green" /><path d="M12,2v18h16V2H12z" fill="#ff0" /><g class="gotchi-sleeves gotchi-sleeves-left gotchi-sleeves-up"><path d="M0 0v7h1v1h1v1h1 .2V2h.3V1H2V0H0z" fill="#2d5016" /><path d="M3 9h.5V2H2V1H1v6h1v1h1v1z" fill="green" /></g><path d="M2 10V9h1V2h.5V1H2v1H1v1H0v7h2z" fill="#2d5016" /><path d="M2 2v1H1v6h1V8h1v1h.5V2H2z" fill="green" /><g class="gotchi-sleeves gotchi-sleeves-right gotchi-sleeves-up"><path d="M38 0v1h-1.5v1h.2v7h.3 1V8h1V7h1V0h-2z" fill="#a00" /><path d="M37,8h1V7h1V1h-1v1h-1.5v7H37V8z" fill="red" /></g><path d="M40 10V3h-1V2h-1V1h-1.5v1h.5v7h1v1h2z" fill="#a00" /><path d="M36.5,2v7H37V8h1v1h1V3h-1V2H36.5z" fill="red" /></g></svg></g></svg>