<svg xmlns="http://www.w3.org/2000/svg" xmlns="http://www.w3.org/2000/svg" viewBox="0 0 64 64"><g class="gotchi-wearable wearable-eyes"><svg x="38" y="20"><path d="M4 0v1H3v1H2v1H1v1H0v4h1v1h1v1h1v1h1v1h2V0H4z" fill="#326400" /><path d="M4 1v1H3v1H2v1H1v4h1v1h1v1h1v1h2V1H4z" fill="#8bc53f" /><path d="M4 2v1H3v1H2v4h1v1h1v1h2V2H4z" fill="#f9e988" /><path d="M5 3H4v1H3v4h1v1h2V3H5z" fill="#fff" /><path d="M5 3v6h1V3H5z" fill="#58595b" /></svg></g><g class="gotchi-wearable gotchi-secondary"><path d="M32 40v1h-1v-1h1z" /><path d="M33 42v-1h-1v1h1v1h2v-1h-2z" /><path d="M39 43v1h-4v-1h4z" /></g></svg>