<svg xmlns="http://www.w3.org/2000/svg" xmlns="http://www.w3.org/2000/svg" viewBox="0 0 64 64"><g class="gotchi-wearable wearable-head"><svg x="14" y="8"><path d="M1 23v-2h1v-2h1v-2h1V4h1V2h2V0h8v2h2v2h2v9h11v2H19v10h-2v2h-2v2h-2v2h-2v2H9v2H3v-6h1v-4H1v-1H0v-1h1z" /><path d="M2 23v-2h1v-2h1v-2h7v-2h2v-2h-2v2H9v-2H4v-2h2V9h4v2h2V9h-2V7H4V6h1V4h2V2h8v2h2v21h-2v2h-2v2h-2v2H9v2H4v-4h3v-2h2v-2h2v-4H9v2H7v2H4v-1H1v-1h1z" fill="#fff" /></svg></g><g class="gotchi-wearable gotchi-secondary"><path d="M33 40v1h-1v-1h1z" /><path d="M29,42v1h2v-1h1v-1h-1v1H29z" /><path d="M29 43v1h-4v-1h4z" /></g></svg>