<svg xmlns="http://www.w3.org/2000/svg" xmlns="http://www.w3.org/2000/svg" viewBox="0 0 64 64"><g class="gotchi-wearable wearable-head"><svg x="12" y="4"><path d="M8 16V5h1V4h1V3h1V2h1V1h7V0h2v1h7v1h1v1h1v1h1v1h1v13H0v-2h8z" fill="#960000" /><g fill="red"><path d="M9 6V5h1V4h1V3h1V2h6v1h-1v1h-1v1h-1v1h-1v1h-1v1h-1v8H8V6h1zm17 1V6h-1V5h-1V4h-1V3h-1V2h6v1h1v1h1v1h1v1h1v10h-4V8h-1V7h-1z" /><path d="M14 7h1V6h1V5h1V4h1V3h1V2h2v1h1v1h1v1h1v1h1v1h1v1h1v8H13V8h1V7z" /></g><path d="M10 9v6H8V9h2z" fill="#ffc900" /></svg></g><g class="gotchi-wearable gotchi-secondary"><path d="M33 40v1h-1v-1h1z" /><path d="M29,42v1h2v-1h1v-1h-1v1H29z" /><path d="M29 43v1h-4v-1h4z" /></g></svg>