<svg xmlns="http://www.w3.org/2000/svg" xmlns="http://www.w3.org/2000/svg" viewBox="0 0 64 64"><g class="gotchi-wearable wearable-head"><svg x="19" y="1"><path d="M0 18h1v1h5v3h1v2h1v1h1v1h8v-1h1v-1h1v-2h1v-3h5v-1h1V4h-1V3h-1V2h-1V1h-2V0H5v1H3v1H2v1H1v1H0z" fill="#092c1b" /><g fill="#283d2e"><path d="M4 8H3V4H1v14h4v-5H4zm21 10h-4v-5h1V8h1V4h2z" /><path d="M5 1v1H3v2h1v4h1v5h1v6h1v3h1v2h1v1h8v-1h1v-2h1v-3h1v-6h1V8h1V4h1V2h-2V1z" /></g></svg></g><g class="gotchi-wearable gotchi-secondary"><path d="M32 40v1h-1v-1h1z" /><path d="M33 42v-1h-1v1h1v1h2v-1h-2z" /><path d="M39 43v1h-4v-1h4z" /></g></svg>