<svg xmlns="http://www.w3.org/2000/svg" xmlns="http://www.w3.org/2000/svg" viewBox="0 0 64 64"><g class="gotchi-wearable wearable-hand wearable-hand-left"><svg x="36" y="31"><g fill="#bebebc"><path d="M4 3V1H3v2H0v1h1v8h1v1h3v-1h1V4h1V3z" /><path d="M4 0h1v1H4z" /></g><path d="M2 4h3v8H2z" fill="#0f0" /><g fill="#0af"><path d="M2 6h1v2H2zm0 5h1v1H2z" /><path d="M3 5h1v1H3zm0 5h1v1H3z" /></g><g fill="#fff"><path d="M3 6h1v2H3zm0 5h1v1H3z" /><path d="M4 4h1v1H4zm0 4h1v2H4z" /></g></svg></g><g class="gotchi-wearable gotchi-secondary"><path d="M32 40v1h-1v-1h1z" /><path d="M33 42v-1h-1v1h1v1h2v-1h-2z" /><path d="M39 43v1h-4v-1h4z" /></g></svg>