<svg xmlns="http://www.w3.org/2000/svg" xmlns="http://www.w3.org/2000/svg" viewBox="0 0 64 64"><g class="gotchi-wearable wearable-body"><svg x="20" y="33"><g><path d="M23 6h-1V5h-1V4h-1V3h-1V2h-1V1h-1V0H0v20h24V6h-1z" fill="#58595b" /><path d="M23 7h-1V6h-1V5h-1V4h-1V3h-1V2h-1V1h-7v18h14V7h-1zM7 1H0v18h9V1H7z" /><path d="M23 10v1h-1v4h1v1h1v-6h-1zM3.8 6.9H1.3v6.2h3.8V6.9H3.8zm0 2.5v2.5H2.6V8.1h1.2v1.3z" fill="#8bc53f" /><path d="M23 11v3h1v-3h-1z" fill="#f9e988" /></g></svg></g><g class="gotchi-wearable gotchi-secondary"><path d="M32 40v1h-1v-1h1z" /><path d="M33 42v-1h-1v1h1v1h2v-1h-2z" /><path d="M39 43v1h-4v-1h4z" /></g></svg>