<svg xmlns="http://www.w3.org/2000/svg" xmlns="http://www.w3.org/2000/svg" viewBox="0 0 64 64"><g class="gotchi-wearable wearable-head"><svg x="17" y="6"><path d="M1 25v-1h1v-8H1v-3h1v-3h1V8h1V6h2V4h2V2h4V0h14v4h-2v2h2v2h1v10H12v4h-2v2H7v1H4v1H0v-1h1z" /><path d="M1 25v-1h3v-1h2v-1h1v-2h1v-4H1v-3h1v-1h2v-1h6v2h2v9h-2v2H7v1H4v1H0v-1h1z" fill="#ffb300" /><g fill="#fff"><path d="M4 18v-1h2v1H4z" /><path d="M3 21h1v-1h1v-1h1v-1h1v2H6v2H4v1H2v-2h1zM22 2v2h-6v2h6v2h-6v2h6v2h-6v2h4v2h-6V2h8z" /></g></svg></g><g class="gotchi-wearable gotchi-secondary"><path d="M33 40v1h-1v-1h1z" /><path d="M29,42v1h2v-1h1v-1h-1v1H29z" /><path d="M29 43v1h-4v-1h4z" /></g></svg>