<svg xmlns="http://www.w3.org/2000/svg" xmlns="http://www.w3.org/2000/svg" viewBox="0 0 64 64"><g class="gotchi-wearable wearable-face"><svg x="16" y="19"><g fill="#7d0064"><path d="M2 8H0V6h2v2z" /><path d="M2 0v2h2v2h18V3h2V2h2V1h3v12h-3v-1h-2v-1h-2v-1H4V6H2V4H0V0h2z" /></g><path d="M22 5V4h2V3h2V2h3v4h-2v2h2v4h-3v-1h-2v-1h-2V9H4V5h18z" fill="#a73796" /><path d="M26 6V5h1V4h2v2h-2v2h2v2h-2V9h-1V8h-1V6h1z" fill="#fff" /></svg></g><g class="gotchi-wearable gotchi-secondary"><path d="M32 40v1h-1v-1h1z" /><path d="M33 42v-1h-1v1h1v1h2v-1h-2z" /><path d="M39 43v1h-4v-1h4z" /></g></svg>