<svg xmlns="http://www.w3.org/2000/svg" xmlns="http://www.w3.org/2000/svg" viewBox="0 0 64 64"><g class="gotchi-wearable wearable-eyes"><svg x="19" y="20"><svg width="25" height="11"><path d="M7 5V4H6V2H5V1H3V0H0v11h3v-1h2V9h1V7h1V6h2V5H7z" /><path d="M9 4v1h16V4H9z" /><path d="M5 4V2H3V1H0v9h3V9h2V7h1V4H5z" fill="#0122cd" /><path d="M0 5v1h2V5H0z" fill="#fff" /><path d="M5 2H3V1H0v4h6V4H5V2z" fill="#05f" /></svg></svg></g><g class="gotchi-wearable gotchi-secondary"><path d="M33 40v1h-1v-1h1z" /><path d="M29,42v1h2v-1h1v-1h-1v1H29z" /><path d="M29 43v1h-4v-1h4z" /></g></svg>