<svg xmlns="http://www.w3.org/2000/svg" xmlns="http://www.w3.org/2000/svg" viewBox="0 0 64 64"><g class="gotchi-wearable wearable-face"><svg x="22" y="31"><path d="M7 1V0H4v1H3v1H2v1H1v1H0v1h1v1h3V5h1V4h1V3h1V2h1V1H7z" fill="#e69c69" /><path d="M5 3V2H4V1H3v1H2v1h1v1h1v1h1V4h1V3z" fill="#bf6f4a" /><g fill="#f6ca9f"><path d="M3 2h1v1H3z" /><path d="M4 3h1v1H4z" /></g></svg></g><g class="gotchi-wearable gotchi-secondary"><path d="M33 40v1h-1v-1h1z" /><path d="M29,42v1h2v-1h1v-1h-1v1H29z" /><path d="M29 43v1h-4v-1h4z" /></g></svg>