<svg xmlns="http://www.w3.org/2000/svg" xmlns="http://www.w3.org/2000/svg" viewBox="0 0 64 64"><g class="gotchi-wearable wearable-face"><svg x="25" y="2"><path d="M12 17v-2H9V0H5v15H2v2H0v10h2v2h10v-2h2V17h-2z" /><path d="M12 19v-2h-2v-2H8V0H6v15H4v2H2v2H0v6h2v2h2v2h6v-2h2v-2h2v-6h-2z" fill="#323232" /><path d="M2 17v10h10V17H2z" fill="#828282" /><path d="M4 19v6h6v-6H4z" fill="#afafaf" /></svg></g><g class="gotchi-wearable gotchi-secondary"><path d="M32 40v1h-1v-1h1z" /><path d="M33 42v-1h-1v1h1v1h2v-1h-2z" /><path d="M39 43v1h-4v-1h4z" /></g></svg>