<?xml version="1.0" encoding="UTF-8"?>
<svg width="64" height="64" viewBox="0 0 64 64" xmlns="http://www.w3.org/2000/svg">
  <defs>
    <style>
      .gotchi-primary { fill: #FF6B9D; }
      .gotchi-secondary { fill: #F4AFDD; }
      .gotchi-eyeColor { fill: #36818E; }
      .gotchi-cheek { fill: #F696C6; }
      .gotchi-shadow { fill: #000000; }
    </style>
  </defs>
  <g class="gotchi-eyeColor"><g><path d="M25 24h-1v1h1v-1z" /><path d="M25 25h-1v1h1v-1z" /></g><g class="gotchi-primary"><path d="M28 27h-1v1h1v-1z" /><path d="M27 27h-1v1h1v-1zm1-5h-1v1h1v-1z" /><path d="M27 22h-1v1h1v-1zm-4 0h-1v1h1v-1z" /><path d="M24 22h-1v1h1v-1z" /></g><g><path d="M26 24h-1v1h1v-1z" /><path d="M26 25h-1v1h1v-1z" /></g><g class="gotchi-primary"><path d="M23 27h-1v1h1v-1z" /><path d="M24 27h-1v1h1v-1z" /></g><path d="M39 25h-1v1h1v-1z" /><g class="gotchi-primary"><path d="M38 27h-1v1h1v-1z" /><path d="M37 27h-1v1h1v-1zm4 0h-1v1h1v-1z" /><path d="M42 27h-1v1h1v-1z" /></g><path d="M38 24h1v1h-1" /><g class="gotchi-primary"><path d="M38 22h-1v1h1v-1z" /><path d="M37 22h-1v1h1v-1zm4 0h-1v1h1v-1z" /><path d="M42 22h-1v1h1v-1z" /></g><g><path d="M40 25h-1v1h1v-1z" /><path d="M40 24h-1v1h1v-1z" /></g></g>
</svg>