<svg xmlns="http://www.w3.org/2000/svg" xmlns="http://www.w3.org/2000/svg" viewBox="0 0 64 64"><g class="gotchi-wearable wearable-body"><svg x="12" y="32"><g><path d="M2.5 1v8H3v14h4v-2h5v2h5v-2h6v2h5v-2h5v2h4V9h.5V1h-35z" fill="#15488c" /><g fill="#4a71a6"><path d="M12 16v1h-1v1H8v-1H7v-1H4v5h3v-2h5v2h5v-1h1v-4h-6zm21 0v1h-1v1h-3v-1h-1v-1h-6v4h1v1h5v-2h5v2h3v-5h-3z" /><path d="M19 16v4h2v-4h-2zm-9 1h1v-1H8v1h2zm21 0h1v-1h-3v1h2z" /></g><path d="M3,2v7h1v6h32V9h1V2H3z" fill="#b8c7dc" /><g class="gotchi-sleeves gotchi-sleeves-left gotchi-sleeves-up"><path d="M2 0v1h1.5v1H3v7H2V8H1V7H0V0h2z" fill="#15488c" /><path d="M3.5,2H2V1H1v6h1v1h1.5V2z" fill="#b8c7dc" /></g><path d="M0 10V3h1V2h1V1h1.5v1H3v6 1H2v1H0z" fill="#15488c" /><path d="M3.5 2H2v1H1v6h1V8h1v1h.5V2z" fill="#b8c7dc" /><g class="gotchi-sleeves gotchi-sleeves-right gotchi-sleeves-up"><path d="M40 0v7h-1v1h-1v1h-1V2h-.5V1H38V0h2z" fill="#15488c" /><path d="M36.5,8H38V7h1V1h-1v1h-1.5V8z" fill="#b8c7dc" /></g><path d="M38 10V9h-1V8 2h-.5V1H38v1h1v1h1v7h-2z" fill="#15488c" /><path d="M36.5,9H37V8h1v1h1V3h-1V2h-1.5V9z" fill="#b8c7dc" /></g></svg></g></svg>