<svg xmlns="http://www.w3.org/2000/svg" xmlns="http://www.w3.org/2000/svg" viewBox="0 0 64 64"><g class="gotchi-wearable wearable-eyes"><svg x="19" y="6"><path d="M0 8v17h7v-2h2v-2h2v-2h1v-1h14V8h-2V6h-2V4h-2V2h-2V1h-2V0h-6v1H8v1H6v2H4v2H2v2H0zm24 5H12v-1h-1v-2H9V8H6V6h2V4h2V3h2V2h2v1h2v1h2v2h2v2h2v2h2v2 1z" /><path d="M9 10v11H7v2H0V10h9z" fill="#ff0097" /><path d="M7 12v9H0v-9h7z" fill="#ff14ff" /><path d="M3 10v13H1V10h2z" opacity=".85" fill="#fff" enable-background="new" /></svg></g><g class="gotchi-wearable gotchi-secondary"><path d="M33 40v1h-1v-1h1z" /><path d="M29,42v1h2v-1h1v-1h-1v1H29z" /><path d="M29 43v1h-4v-1h4z" /></g></svg>