<svg xmlns="http://www.w3.org/2000/svg" xmlns="http://www.w3.org/2000/svg" viewBox="0 0 64 64"><g class="gotchi-wearable wearable-body"><svg x="12" y="32"><g><svg width="40" height="21"><path d="M3,1v20h34V1H3Z" fill="#000064" /><path d="M4,2v18h32V2H4Z" fill="#00f" /><path d="M25 9h3v3h-3zm-8 0h3v3h-3zm-3 0V8h-1v4h3V9h-2zm7 0h3v3h-3z" fill="#fff" /></svg><g class="gotchi-sleeves gotchi-sleeves-left gotchi-sleeves-up"><svg width="40" height="21"><path d="M1 7v1h1v1h1.5V1H2V0H0v7h1z" fill="#000064" /><path d="M2 7v1h1V2H2V1H1v6h1z" fill="#00f" /></svg></g><svg width="40" height="21"><path d="M2 1v1H1v1H0v7h2V9h1.5V1H2z" fill="#000064" /><path d="M2 2v1H1v6h1V8h1V2H2z" fill="#00f" /></svg><g class="gotchi-sleeves gotchi-sleeves-right gotchi-sleeves-up"><svg width="40" height="21"><path d="M38 9V8h1V7h1V0h-2v1h-1.5v8H38z" fill="#000064" /><path d="M38 8V7h1V1h-1v1h-1v6h1z" fill="#00f" /></svg></g><svg width="40" height="21"><path d="M39 3V2h-1V1h-1.5v8H38v1h2V3h-1z" fill="#000064" /><path d="M38 3V2h-1v6h1v1h1V3h-1z" fill="#00f" /></svg></g></svg></g></svg>