<svg xmlns="http://www.w3.org/2000/svg" xmlns="http://www.w3.org/2000/svg" viewBox="0 0 64 64"><g class="gotchi-wearable wearable-face"><svg x="21" y="32"><svg width="5" height="3"><path d="M1 2v1h4V2H4V1H3V0H0v2h1z" fill="#fff" /><g fill="#ff5fc8"><path d="M0 1h1v1H0z" /><path d="M1 2h1v1H1zm1-2h1v1H2z" /><path d="M3 1h1v1H3z" /><path d="M4 2h1v1H4z" /></g></svg></svg></g><g class="gotchi-wearable gotchi-secondary"><path d="M33 40v1h-1v-1h1z" /><path d="M29,42v1h2v-1h1v-1h-1v1H29z" /><path d="M29 43v1h-4v-1h4z" /></g></svg>