<svg xmlns="http://www.w3.org/2000/svg" xmlns="http://www.w3.org/2000/svg" viewBox="0 0 64 64"><g class="gotchi-wearable wearable-body"><svg x="12" y="32"><g><path d="M2.5 1v8H3v11h34V9h.5V1h-35z" fill="#7d0064" /><path d="M4,2v17h32V2H4z" fill="#a73796" /><g class="gotchi-sleeves gotchi-sleeves-left gotchi-sleeves-up"><path d="M1,7v1h1v1h1.5V1H2V0H0v7H1z" fill="#7d0064" /><path d="M2,7v1h1V2H2V1H1v6H2z" fill="#a73796" /></g><path d="M1,3V2h1V1h1.5v8H2v1H0V3H1z" fill="#7d0064" /><path d="M2,3V2h1v6H2v1H1V3H2z" fill="#a73796" /><g class="gotchi-sleeves gotchi-sleeves-right gotchi-sleeves-up"><path d="M39,7v1h-1v1h-1.5V1H38V0h2v7H39z" fill="#7d0064" /><path d="M38,7v1h-1V2h1V1h1v6H38z" fill="#a73796" /></g><path d="M39,3V2h-1V1h-1.5v8H38v1h2V3H39z" fill="#7d0064" /><path d="M38,3V2h-1v6h1v1h1V3H38z" fill="#a73796" /></g></svg></g></svg>