<svg xmlns="http://www.w3.org/2000/svg" xmlns="http://www.w3.org/2000/svg" viewBox="0 0 64 64"><g class="gotchi-wearable wearable-hand wearable-hand-left"><svg x="0" y="24"><g transform="scale(-1, 1) translate(-64, 0)"><path d="M12 0v25h-1V0h1z" fill="#8e7064" /><path d="M11 24h1v1h-1v-1zm0-24h1v1h-1V0z" fill="#7a5749" /><path d="M11,1v9H0V1H11z" fill="#7d0064" /><path d="M8 3V2H3v1H2v6h1V8h1v1h1V8h1v1h1V8h1v1h1V3H8zM7 3v1H6V3h1zM5 3v1H4V3h1zm3 3H7v1H4V6H3V5h1v1h3V5h1v1z" fill="#fff" /></g></svg></g></svg>