<svg xmlns="http://www.w3.org/2000/svg" xmlns="http://www.w3.org/2000/svg" viewBox="0 0 64 64"><g class="gotchi-wearable wearable-hand wearable-hand-left"><svg x="34" y="38"><path d="M0 16h1v1H0zm10 0h1v1h-1z" /><path d="M10 5H9V3H8V2H7V1H3V0H2v7H1v9h1v1h1v-1h1v1h1v-1h1v1h1v-1h1v1h1v-1h1V5z" /><path d="M8 5V3H7V2H3v5H2v9h1v-1h1v1h1v-1h1v1h1v-1h1v1h1V5H8z" fill="#fff" /></svg></g><g class="gotchi-wearable gotchi-secondary"><path d="M32 40v1h-1v-1h1z" /><path d="M33 42v-1h-1v1h1v1h2v-1h-2z" /><path d="M39 43v1h-4v-1h4z" /></g></svg>