<svg xmlns="http://www.w3.org/2000/svg" xmlns="http://www.w3.org/2000/svg" viewBox="0 0 64 64"><g class="gotchi-wearable wearable-face"><svg x="19" y="32"><svg width="6" height="7"><path d="M6 0v3H5v2H4v1H3v1H1V6h.1V1H1V0h5z" fill="#e60000" /><path d="M5 1v1H4v3H3v1H1V1h4z" fill="#fff" /><path d="M3 5H2V2h1v3zM0 2h1v1H0zm0 2h1v1H0z" fill="#737373" /><path d="M4 3v1H1V3h3z" fill="#d2d2d2" /></svg></svg></g><g class="gotchi-wearable gotchi-secondary"><path d="M33 40v1h-1v-1h1z" /><path d="M29,42v1h2v-1h1v-1h-1v1H29z" /><path d="M29 43v1h-4v-1h4z" /></g></svg>