<svg xmlns="http://www.w3.org/2000/svg" xmlns="http://www.w3.org/2000/svg" viewBox="0 0 64 64"><g class="gotchi-wearable wearable-body"><svg x="20" y="33"><g><path d="M23,8V7h-2V6h-2V5h-1V4h-1V3h-1V2h-1V1h-1V0H0v20h24V8H23z" fill="#fe73a9" /><path d="M23 9V8h-2V7h-2V6h-1V5h-1V4h-1V3h-1V2h-1V1h-3v18h13V9h-1zM0 1v18h10V1H0z" fill="#fe98c0" /><g fill="#fff"><path d="M21 17h1v-5h-1v5z" /><path d="M19 11v6h1v-5h1v-1h-2zm3 0v1h1v5h1v-6h-2z" /></g></g></svg></g><g class="gotchi-wearable gotchi-secondary"><path d="M32 40v1h-1v-1h1z" /><path d="M33 42v-1h-1v1h1v1h2v-1h-2z" /><path d="M39 43v1h-4v-1h4z" /></g></svg>