<svg xmlns="http://www.w3.org/2000/svg" xmlns="http://www.w3.org/2000/svg" viewBox="0 0 64 64"><g class="gotchi-wearable wearable-eyes"><svg x="20" y="20"><path d="M5 4V2H4V1H2V0H0v12h2v-1h2v-1h1V8h1V4H5z" fill="#fff" /><g fill="#4309d7"><path d="M1 2H0v1h2V2H1zm0-2H0v1h2V0H1z" /><path d="M4 2V1H2v1h2z" /><path d="M4 4h1V2H4v2zm-2 6v1h2v-1H2z" /><path d="M4 9v1h1V8H4v1z" /><path d="M5 4v4h1V4H5zm-5 7v1h2v-1H0zm2-8h1v1H2zM1 7h1V5H1V4H0v4h1V7zm0 2H0v1h2V9H1z" /><path d="M2 8h1v1H2z" /><path d="M4 7V4H3v4h1V7z" /></g></svg></g><g class="gotchi-wearable gotchi-secondary"><path d="M33 40v1h-1v-1h1z" /><path d="M29,42v1h2v-1h1v-1h-1v1H29z" /><path d="M29 43v1h-4v-1h4z" /></g></svg>