<?xml version="1.0" encoding="UTF-8"?>
<svg width="64" height="64" viewBox="0 0 64 64" xmlns="http://www.w3.org/2000/svg">
  <defs>
    <style>
      .gotchi-primary { fill: 0x2664ba; }
      .gotchi-secondary { fill: 0xd4e0f1; }
      .gotchi-cheek { fill: 0xf696c6; }
      .gotchi-collateral { fill: 0x2664ba; }
      .gotchi-eyeColor { fill: 0x2664ba; }
      .gotchi-shadow { fill: #000000; }
    </style>
  </defs>
  <g class="gotchi-eyeColor"><path d="M41 25h-3v-1h3v-1h-1.5v-1h-1v1H37v3h3v1h-3v1h1.5v1h1v-1H41zm0 4h1v1h-1z"/><path d="M42 28h1v1h-1z"/><path d="M43 23h1v5h-1zm-2-2h1v1h-1z"/><path d="M42 22h1v1h-1zm-6 7h1v1h-1zm-2-6h1v5h-1z"/><path d="M35 28h1v1h-1zm1-7h1v1h-1z"/><path d="M35 22h1v1h-1zm-8 3h-3v-1h3v-1h-1.5v-1h-1v1H23v3h3v1h-3v1h1.5v1h1v-1H27zm0 4h1v1h-1z"/><path d="M28 28h1v1h-1z"/><path d="M29 23h1v5h-1zm-2-2h1v1h-1z"/><path d="M28 22h1v1h-1zm-6 7h1v1h-1zm-2-6h1v5h-1z"/><path d="M21 28h1v1h-1zm1-7h1v1h-1z"/><path d="M21 22h1v1h-1z"/></g>
</svg>