<svg xmlns="http://www.w3.org/2000/svg" xmlns="http://www.w3.org/2000/svg" viewBox="0 0 64 64"><g class="gotchi-wearable wearable-body"><svg x="20" y="33"><g><path d="M22 7V6h-2V5h-1V4h-1V3h-1V2h-1V1h-1V0H0v20h24V7h-2z" /><path d="M22 8V7h-2V6h-1V5h-1V4h-1V3h-1V2h-1V1H1v18h23V8h-2z" fill="#870aff" /><path d="M1 9v8h23V9H1zm19-2V6h-1V5h-1V4h-1V3h-1V2h-1V1H1v6h19z" fill="#f0f" /><path d="M1 9v6h23V9H1zm17-4V4h-1V3h-1V2h-1V1H1v4h17z" fill="#ff0" /><path d="M1 9v2h23V9H1z" fill="#0ff" /><path d="M1 11v2h23v-2H1zm15-8V2h-1V1H1v2h15z" fill="#0f0" /><path d="M24 12v-1h-2v5h1v-2h1v-1h-1v-1h1z" /></g></svg></g><g class="gotchi-wearable gotchi-secondary"><path d="M32 40v1h-1v-1h1z" /><path d="M33 42v-1h-1v1h1v1h2v-1h-2z" /><path d="M39 43v1h-4v-1h4z" /></g></svg>