<svg xmlns="http://www.w3.org/2000/svg" xmlns="http://www.w3.org/2000/svg" viewBox="0 0 64 64"><g class="gotchi-wearable wearable-body"><svg x="19" y="33"><g fill="#ffc03c"><path d="M3 7h1v3H3V7z" /><path d="M4 5h1v2H4V5z" /><path d="M5 4h1v1H5z" /><path d="M6 3h1v1H6z" /><path d="M8 2h1v1H7V2h1z" /><path d="M11 1v1H9V1h2z" /><path d="M25 0v1H11V0h14zM1 8v1h1v1h1v1H2v1H1v1H0V8h1z" /></g><path d="M1 9v1h1v1H1v1H0V9h1z" fill="#ffeabe" /><path d="M0 10h1v1H0z" fill="#64438e" /></svg></g><g class="gotchi-wearable gotchi-secondary"><path d="M33 40v1h-1v-1h1z" /><path d="M29,42v1h2v-1h1v-1h-1v1H29z" /><path d="M29 43v1h-4v-1h4z" /></g></svg>