<svg xmlns="http://www.w3.org/2000/svg" xmlns="http://www.w3.org/2000/svg" viewBox="0 0 64 64"><g class="gotchi-wearable wearable-hand wearable-hand-left"><svg x="34" y="23"><path d="M0,7v14h1v1h5v-1h1V7H6V6H5V0H2v6H1v1H0z" /><path d="M6 18H4v-7h2v7z" fill="#decd87" /><path d="M4,5H3V3h1V5z" fill="#782121" /><path d="M4 2H3V1h1v1zM1 7v14h5v-2H3v-9h3V7H5V6H2v1H1z" fill="green" /><path d="M6 10H5V7h1v3zm0 11H5v-2h1v2z" fill="#0a0" /></svg></g><g class="gotchi-wearable gotchi-secondary"><path d="M32 40v1h-1v-1h1z" /><path d="M33 42v-1h-1v1h1v1h2v-1h-2z" /><path d="M39 43v1h-4v-1h4z" /></g></svg>