<svg xmlns="http://www.w3.org/2000/svg" xmlns="http://www.w3.org/2000/svg" viewBox="0 0 64 64"><g class="gotchi-wearable wearable-eyes"><svg x="20" y="22"><svg width="24" height="8"><path d="M0 0v8h24V0H0z" fill="#4d4d4d" /><path d="M17 1v6h6V1h-6z" fill="#fff" /><path d="M0 1v6h16V1H0z" fill="#c5c5c5" /><path d="M14 2v4h1V2h-1zm-2 4h1V2h-1v4zm-2 0h1V2h-1v4zM7 2v4h2V2H7zM4 2v4h2V2H4zM0 2v4h3V2H0z" fill="#e3e3e3" /><path d="M18 2v4h4V2h-4z" fill="#faf" /><path d="M19 3v2h2V3h-2z" /></svg></svg></g><g class="gotchi-wearable gotchi-secondary"><path d="M32 40v1h-1v-1h1z" /><path d="M33 42v-1h-1v1h1v1h2v-1h-2z" /><path d="M39 43v1h-4v-1h4z" /></g></svg>