<svg xmlns="http://www.w3.org/2000/svg" xmlns="http://www.w3.org/2000/svg" viewBox="0 0 64 64"><g class="gotchi-wearable wearable-body"><svg x="7" y="31"><g><g class="gotchi-sleeves gotchi-sleeves-left gotchi-sleeves-up"><path d="M7,10V9H6V8H5V7H3V6H1V5H0V1h1V0h4v1h2v1h1v8H7z" fill="#333" /><path d="M7,9V3h1v6H7z" fill="gray" /><path d="M3,6V5H1V1h3v5H3z" fill="#e6e6e6" /><path d="M5,7V2h1v5H5z" fill="#bfbfbf" /></g><path d="M7,2v1H6v1H5v1H3v1H1v1H0v4h1v1h4v-1h2v-1h1V2H7z" fill="#333" /><path d="M7,3v6h1V3H7z" fill="gray" /><path d="M3,6v1H1v4h3V6H3z" fill="#e6e6e6" /><path d="M5,5v5h1V5H5z" fill="#bfbfbf" /><g class="gotchi-sleeves gotchi-sleeves-right gotchi-sleeves-up"><path d="M43 10V9h1V8h1V7h2V6h2V5h1V1h-1V0h-4v1h-2v1h-1v8h1z" fill="#333" /><path d="M43 9V3h-1v6h1z" fill="gray" /><path d="M47 6V5h2V1h-3v5h1z" fill="#e6e6e6" /><path d="M45 7V2h-1v5h1z" fill="#bfbfbf" /></g><path d="M43 2v1h1v1h1v1h2v1h2v1h1v4h-1v1h-4v-1h-2v-1h-1V2h1z" fill="#333" /><path d="M43 3v6h-1V3h1z" fill="gray" /><path d="M47 6v1h2v4h-3V6h1z" fill="#e6e6e6" /><path d="M45 5v5h-1V5h1z" fill="#bfbfbf" /><path d="M46 19v-5h-1V9h-1V4h-1V2H7v2H6v5H5v5H4v5H2v5h46v-5h-2z" fill="#9600bd" /><g fill="#f0f"><path d="M39 15h-1v-5h-1V5h-1V3h-6v2h1v5h1v5h1v5h1v3h6v-3h-1v-5z" /><path d="M45 20v-5h-1v-5h-1V4h-1V3h-5v2h1v5h1v5h1v5h1v3h6v-3h-2zm-35-5h1v-5h1V5h1V3H8v1H7v6H6v5H5v5H3v3h6v-3h1v-5z" /><path d="M17 15h1v-5h1V5h1V3h-6v2h-1v5h-1v5h-1v5h-1v3h6v-3h1v-5z" /><path d="M32 15h-1v-5h-1V5h-1V3h-8v2h-1v5h-1v5h-1v5h-1v3h16v-3h-1v-5zm-10-5V9h1V8h4v1h1v1h1v8h-1v-1h-1v1h-1v-1h-2v1h-1v-1h-1v1h-1v-8h1z" /></g></g></svg></g></svg>