<svg xmlns="http://www.w3.org/2000/svg" xmlns="http://www.w3.org/2000/svg" viewBox="0 0 64 64"><g class="gotchi-wearable wearable-body"><svg x="12" y="32"><g><path d="M3 1v20h34V1H3z" /><path d="M4 2v18h32V2H4z" fill="#870aff" /><path d="M4 10v8h32v-8H4zm0-8v6h32V2H4z" fill="#f0f" /><path d="M4 10v6h32v-6H4zm0-8v4h32V2H4z" fill="#ff0" /><path d="M4 12v2h32v-2H4zM4 2v2h32V2H4z" fill="#0f0" /><path d="M4 10v2h32v-2H4z" fill="#0ff" /><path d="M20.5 7v1h3v2h-3v1h3v2h-3v1h4V7h-4zm-5 0v4h3v2h-3v1h4v-4h-3V8h3V7h-4zm14 1V7h-4v4h3v2h-3v1h4v-4h-3V8h3zm-19-1v1h3v2h-3v4h4v-1h-3v-2h3V7h-4z" /><g class="gotchi-sleeves gotchi-sleeves-left gotchi-sleeves-up"><path d="M2 9V8H1V7H0V0h2v1h1.5v8H2z" /><path d="M2 8V7H1V1h1v1h1v6H2z" fill="#7d00ff" /><path d="M2 8V7H1V3h2v5H2z" fill="#f0f" /><path d="M2 8V7H1V5h2v3H2z" fill="#ff0" /><path d="M2 7h1v1H2z" fill="#0f0" /></g><path d="M2 1v1H1v1H0v7h2V9h1.5V1H2z" /><path d="M2 2v1H1v6h1V8h1V2H2z" fill="#7d00ff" /><path d="M2 2v1H1v4h2V2H2z" fill="#f0f" /><path d="M2 2v1H1v2h2V2H2z" fill="#ff0" /><path d="M2 2h1v1H2z" fill="#0f0" /><g class="gotchi-sleeves gotchi-sleeves-right gotchi-sleeves-up"><path d="M38 9V8h1V7h1V0h-2v1h-1.5v8H38z" /><path d="M38 8V7h1V1h-1v1h-1v6h1z" fill="#7d00ff" /><path d="M38 8V7h1V3h-2v5h1z" fill="#f0f" /><path d="M38 8V7h1V5h-2v3h1z" fill="#ff0" /><path d="M37 7h1v1h-1z" fill="#0f0" /></g><path d="M38 1v1h1v1h1v7h-2V9h-1.5V1H38z" /><path d="M38 2v1h1v6h-1V8h-1V2h1z" fill="#7d00ff" /><path d="M38 2v1h1v4h-2V2h1z" fill="#f0f" /><path d="M38 2v1h1v2h-2V2h1z" fill="#ff0" /><path d="M37 2h1v1h-1z" fill="#0f0" /></g></svg></g></svg>