<svg xmlns="http://www.w3.org/2000/svg" xmlns="http://www.w3.org/2000/svg" viewBox="0 0 64 64"><g class="gotchi-wearable wearable-body"><svg x="7" y="29"><g><path d="M12 4V3h-1V2h-1V1H9V0H7.5v12H8v14h4v-1h5v1h5v-1h6v1h5v-1h5v1h4V12h.5V0H41v1h-1v1h-1v1h-1v1H12z" fill="#2a2a2a" /><g fill="#303030"><path d="M29 24h1v1h-1v-1zm-9 0h1v1h-1v-1zm19-1h1v1h-1v-1zm-4 0h1v1h-1v-1zm-4 0h1v1h-1v-1zm-4 0h1v1h-1v-1zm-5 0h1v1h-1v-1zm-4 0h1v1h-1v-1zm-4 0h1v1h-1v-1zm-4 0h1v1h-1v-1zm27-1h1v1h-1v-1zm-4 0h1v1h-1v-1zm-4 0h1v1h-1v-1zm-9 0h1v1h-1v-1zm-4 0h1v1h-1v-1zm-4 0h1v1h-1v-1zm27-1h1v1h-1v-1zm-4 0h1v1h-1v-1zm-4 0h1v1h-1v-1zm-4 0h1v1h-1v-1zm-5 0h1v1h-1v-1zm-4 0h1v1h-1v-1zm-4 0h1v1h-1v-1zm-4 0h1v1h-1v-1zm27-1h1v1h-1v-1zm-4 0h1v1h-1v-1zm-4 0h1v1h-1v-1zm-9 0h1v1h-1v-1zm-4 0h1v1h-1v-1zm-4 0h1v1h-1v-1zm27-1h1v1h-1v-1zm-4 0h1v1h-1v-1zm-4 0h1v1h-1v-1zm-4 0h1v1h-1v-1zm-5 0h1v1h-1v-1zm-4 0h1v1h-1v-1zm-4 0h1v1h-1v-1zm-4 0h1v1h-1v-1zm27-1h1v1h-1v-1zm-8 0h1v1h-1v-1zm-9 0h1v1h-1v-1zm-4 0h1v1h-1v-1zm-4 0h1v1h-1v-1zm27-1h1v1h-1v-1zm-4 0h1v1h-1v-1zm-2 1v1h1v-1-1h-1v1zm-2-1h1v1h-1v-1zm-4 0h1v1h-1v-1zm-5 0h1v1h-1v-1zm-4 0h1v1h-1v-1zm-4 0h1v1h-1v-1zm-4 0h1v1h-1v-1zm27-1h1v1h-1v-1zm-8 0h1v1h-1v-1zm-9 0h1v1h-1v-1zm-4 0h1v1h-1v-1zm-4 0h1v1h-1v-1zm27-1h1v1h-1v-1zm-4 0h1v1h-1v-1zm-4 0h1v1h-1v-1zm-4 0h1v1h-1v-1zm-5 0h1v1h-1v-1zm-4 0h1v1h-1v-1zm-4 0h1v1h-1v-1zm-4 0h1v1h-1v-1zm27-1h1v1h-1v-1zm-4 1v1h1v-1-1h-1v1zm-4-1h1v1h-1v-1zm-9 0h1v1h-1v-1zm-4 0h1v1h-1v-1zm-4 0h1v1h-1v-1zm27-1h1v1h-1v-1zm-4 0h1v1h-1v-1zm-4 0h1v1h-1v-1zm-4 0h1v1h-1v-1zm-5 0h1v1h-1v-1zm-4 0h1v1h-1v-1zm-4 0h1v1h-1v-1zm-4 0h1v1h-1v-1zm27-1h1v1h-1v-1zm-4 0h1v1h-1v-1zm-4 0h1v1h-1v-1zm-9 0h1v1h-1v-1zm-4 0h1v1h-1v-1zm-4 0h1v1h-1v-1zm27-1h1v1h-1v-1zm-4 0h1v1h-1v-1zm-4 0h1v1h-1v-1zm-13 0h1v1h-1v-1zm-4 0h1v1h-1v-1zm-4 0h1v1h-1v-1zm2-1h1v1h-1v-1zm27-1h1v1h-1V9zM10 9h1v1h-1V9zm2-1h1v1h-1V8zm27-1h1v1h-1V7zM10 7h1v1h-1V7zm30-4h1v1h-1V3z" /><path d="M9 3h1v1H9V3zm32-1h1v1h-1V2z" /><path d="M8 2h1v1H8V2zm8 8h1v1h-1v-1zm-2-1h1v1h-1V9zm2-1h1v1h-1V8zm-2-1h1v1h-1V7zm6 3h1v1h-1v-1zm2-1h1v1h-1V9zm-4 0h1v1h-1V9zm2-1h1v1h-1V8zm2-1h1v1h-1V7zm-4 0h1v1h-1V7zm9 2h1v1h-1V9zm0-2h1v1h-1V7zm2 3h1v1h-1v-1zm2-1h1v1h-1V9zm-2-1h1v1h-1V8zm2-1h1v1h-1V7zm6 3h1v1h-1v-1zm-4 0h1v1h-1v-1zm2-1h1v1h-1V9zm2-1h1v1h-1V8zm-4 0h1v1h-1V8zm2-1h1v1h-1V7zm-13 4h1v1h-1v-1zm5 0h1v1h-1v-1z" /></g><g fill="#414040"><path d="M38 3h1v1h-1V3zM11 3h1v1h-1V3z" /><path d="M39 2h1v1h-1V2zM10 2h1v1h-1V2z" /><path d="M40 1h1v1h-1V1zM9 1h1v1H9V1z" /><path d="M41 0h1v1h-1V0zM8 0h1v1H8V0zm4 4h26v1H12V4z" /></g><g class="gotchi-sleeves gotchi-sleeves-left gotchi-sleeves-up"><path d="M1,3V2h4V1h1V0h2v12H7v-1H6v-1H5V9H3V8H1V7H0V3H1z" fill="#2a2a2a" /><path d="M2 6H1V5h1v1zm6-3H7V2h1v1z" fill="#de37e4" /><g fill="#414040"><path d="M4,3v1h4v1H2V4h1V3H4z" /><path d="M5,3H4V2h1V3z" /><path d="M6,2H5V1h1V2z" /><path d="M8,1H6V0h2V1z" /></g><g fill="#303030"><path d="M4,6H3V5h1V6z" /><path d="M5 7H4V6h1v1zm3-3H7V3h1v1z" /><path d="M7,3H6V2h1V3z" /><path d="M8 2H7V1h1v1zM6 4H5V3h1v1z" /></g></g><path d="M6,0v1H5v1H4v1H3v1H2v1h4v1H5v1H3v1H1v1H0v4h1v1h4v-1h2v-1h1V0H6z" fill="#2a2a2a" /><g fill="#de37e4"><path d="M3,12h1v1H3V12z" /><path d="M2,11h1v1H2V11z" /><path d="M1 10h1v1H1v-1zm6-8h1v1H7V2z" /></g><g fill="#303030"><path d="M4,11h1v1H4V11z" /><path d="M3,10h1v1H3V10z" /><path d="M4 9h1v1H4V9zm3-6h1v1H7V3zM5 3h1v1H5V3z" /><path d="M6,2h1v1H6V2z" /><path d="M7,1h1v1H7V1z" /></g><g fill="#414040"><path d="M3,3v1H2v1h6V4H4V3H3z" /><path d="M4,2h1v1H4V2z" /><path d="M5,1h1v1H5V1z" /><path d="M6,0h2v1H6V0z" /></g><g class="gotchi-sleeves gotchi-sleeves-right gotchi-sleeves-up"><path d="M49,3V2h-4V1h-1V0h-2v12h1v-1h1v-1h1V9h2V8h2V7h1V3H49z" fill="#2a2a2a" /><path d="M48 5h1v1h-1V5zm-6-3h1v1h-1V2z" fill="#de37e4" /><g fill="#414040"><path d="M47 3v1h1v1h-6V4h4V3h1z" /><path d="M45,2h1v1h-1V2z" /><path d="M44,1h1v1h-1V1z" /><path d="M42,0h2v1h-2V0z" /></g><g fill="#303030"><path d="M46,5h1v1h-1V5z" /><path d="M45 6h1v1h-1V6zm-3-3h1v1h-1V3z" /><path d="M43,2h1v1h-1V2z" /><path d="M42 1h1v1h-1V1zm2 2h1v1h-1V3z" /></g></g><path d="M44 0v1h1v1h1v1h1v1h1v1h-4v1h1v1h2v1h2v1h1v4h-1v1h-4v-1h-2v-1h-1V0h2z" fill="#2a2a2a" /><g fill="#de37e4"><path d="M47 13h-1v-1h1v1z" /><path d="M48 12h-1v-1h1v1z" /><path d="M49 11h-1v-1h1v1zm-6-8h-1V2h1v1z" /></g><g fill="#303030"><path d="M46 12h-1v-1h1v1z" /><path d="M47 11h-1v-1h1v1z" /><path d="M46 10h-1V9h1v1zm-3-6h-1V3h1v1zm2 0h-1V3h1v1z" /><path d="M44,3h-1V2h1V3z" /><path d="M43,2h-1V1h1V2z" /></g><g fill="#414040"><path d="M46,3v1h-4v1h6V4h-1V3H46z" /><path d="M46,3h-1V2h1V3z" /><path d="M45,2h-1V1h1V2z" /><path d="M44,1h-2V0h2V1z" /></g></g></svg></g></svg>