<svg xmlns="http://www.w3.org/2000/svg" xmlns="http://www.w3.org/2000/svg" viewBox="0 0 64 64"><g class="gotchi-wearable wearable-body"><svg x="20" y="31"><g><path d="M1 8h1V6h2V4h2V2h18v22H1v1H0V8h1z" fill="#762b26" /><path d="M1 18h13v1H0v-1h1zm16 0h7v1h-9v-1h2z" fill="#eeecdf" /><path d="M1 10h1V8h2V6h2V4h8v13H0v-7h1zm1 10h12v2H0v-2h2zM17 4h7v13h-9V4h2zm0 16h7v2h-9v-2h2z" fill="#eb564b" /></g></svg></g><g class="gotchi-wearable gotchi-secondary"><path d="M33 40v1h-1v-1h1z" /><path d="M29,42v1h2v-1h1v-1h-1v1H29z" /><path d="M29 43v1h-4v-1h4z" /></g></svg>