<svg xmlns="http://www.w3.org/2000/svg" xmlns="http://www.w3.org/2000/svg" viewBox="0 0 64 64"><g class="gotchi-wearable wearable-eyes"><svg x="20" y="20"><path d="M16 0v1h-1v1h-1v2H0v4h14v2h1v1h1v1h9V0h-9z" fill="#4c0067" /><g fill="#fff"><path d="M19 4h1v1h-1zm3 0h1v1h-1z" /><path d="M21 5h1v1h-1z" /><path d="M20 6h1v1h-1z" /><path d="M19 7h1v1h-1zm3 0h1v1h-1z" /></g><path d="M16 7V3h1V2h8V1h-9v1h-1v2h-1v1H0v2h14v1h1v2h1v1h9v-1h-8V9h-1V7z" fill="#bc20d2" /></svg></g><g class="gotchi-wearable gotchi-secondary"><path d="M32 40v1h-1v-1h1z" /><path d="M33 42v-1h-1v1h1v1h2v-1h-2z" /><path d="M39 43v1h-4v-1h4z" /></g></svg>