<svg xmlns="http://www.w3.org/2000/svg" xmlns="http://www.w3.org/2000/svg" viewBox="0 0 64 64"><g class="gotchi-wearable wearable-face"><svg x="19" y="26"><svg width="25" height="13"><g fill="#a0ebff"><path d="M9 4v1H7V4h2z" /><path d="M11 3v1H9V3h2z" /><path d="M13 2v1h-2V2h2zm-2 7v1H9V9h2z" /><path d="M13 8v1h-2V8h2zm-4 2v1H7v-1h2zm4-9h1v1h-1z" /><path d="M25 0v1H14V0h11zM13 7h1v1h-1z" /><path d="M25 6v1H14V6h11zM4 4v1h3v1H5v5h2v1H4v1H0V4h4z" /></g><path d="M4 5v1H0V5h4zm0 2v1H0V7h4zm0 2v1H0V9h4zm0 2v1H0v-1h4z" fill="#cff" /></svg></svg></g><g class="gotchi-wearable gotchi-secondary"><path d="M33 40v1h-1v-1h1z" /><path d="M29,42v1h2v-1h1v-1h-1v1H29z" /><path d="M29 43v1h-4v-1h4z" /></g></svg>