<svg xmlns="http://www.w3.org/2000/svg" xmlns="http://www.w3.org/2000/svg" viewBox="0 0 64 64"><g class="gotchi-wearable wearable-head"><svg x="27" y="4"><path d="M9 4V2h1V1H9V0H7v1H6V0H4v1H3V0H1v1H0v1h1v2h1v2h6V4h1z" /><path d="M7 1v1H6V1H4v1H3V1H1v1h1v2h1v2h4V4h1V2h1V1H7z" fill="#ff9600" /><path d="M1 1v1h2V1H1zm3 0v1h2V1H4zm3 0v1h2V1H7z" fill="#ffe600" /><path d="M2 2v2h6V2H2z" fill="#ffc03c" /></svg></g><g class="gotchi-wearable gotchi-secondary"><path d="M33 40v1h-1v-1h1z" /><path d="M29,42v1h2v-1h1v-1h-1v1H29z" /><path d="M29 43v1h-4v-1h4z" /></g></svg>