<svg xmlns="http://www.w3.org/2000/svg" xmlns="http://www.w3.org/2000/svg" viewBox="0 0 64 64"><g class="gotchi-wearable wearable-head"><svg x="20" y="4"><path d="M24 16V5h-1V4h-1V3h-1V2h-1V1h-7V0h-2v1H4v1H3v1H2v1H1v1H0v13h32v-2h-8z" fill="#960000" /><g fill="red"><path d="M23 6V5h-1V4h-1V3h-1V2h-6v1h1v1h1v1h1v1h1v1h1v1h1v8h4V6h-1zM6 7V6h1V5h1V4h1V3h1V2H4v1H3v1H2v1H1v1H0v10h4V8h1V7h1z" /><path d="M18 7h-1V6h-1V5h-1V4h-1V3h-1V2h-2v1h-1v1H9v1H8v1H7v1H6v1H5v8h14V8h-1V7z" /></g><path d="M22 9v6h2V9h-2z" fill="#ffc900" /></svg></g><g class="gotchi-wearable gotchi-secondary"><path d="M32 40v1h-1v-1h1z" /><path d="M33 42v-1h-1v1h1v1h2v-1h-2z" /><path d="M39 43v1h-4v-1h4z" /></g></svg>