<?xml version="1.0" encoding="UTF-8"?>
<svg width="64" height="64" viewBox="0 0 64 64" xmlns="http://www.w3.org/2000/svg">
  <defs>
    <style>
      .gotchi-primary { fill: #FF6B9D; }
      .gotchi-secondary { fill: #F4AFDD; }
      .gotchi-cheek { fill: #F696C6; }
      .gotchi-primary-mouth { fill: #FF6B9D; }
      .gotchi-shadow { fill: #000000; }
      .gotchi-handsDownClosed { display: block; }
      .gotchi-handsDownOpen { display: none; }
      .gotchi-handsUp { display: none; }
      .gotchi-body { display: block; }
    </style>
  </defs>
  <path class="gotchi-primary" d="M39 45h-4v-1h-2v-1h-1v-1h-1v-1h.2v-5H31v-1h2v1h1v1h1v1h2v1h2v1h1v4h-1v1z"/><path d="M39 44h-4v-1h-2v-1h-1v-1h-1v-5h2v1h1v1h1v1h2v1h2v4z" fill="#fff"/><g class="gotchi-secondary"><path d="M32 40v1h-1v-1h1z"/><path d="M33 42v-1h-1v1h1v1h2v-1h-2z"/><path d="M39 43v1h-4v-1h4z"/></g>
</svg>