<svg xmlns="http://www.w3.org/2000/svg" xmlns="http://www.w3.org/2000/svg" viewBox="0 0 64 64"><g class="gotchi-wearable wearable-head"><svg x="15" y="14"><g fill="#0e0c15"><path d="M4 0v4H2V2H0v4h2v2h2V6h26V0H4z" /><path d="M0 8v2h2V8H0z" /></g><g fill="#f27322"><path d="M10 4v2h2V4h-2zm12 0v2h2V4h-2z" /><path d="M24 2v2h2V2h-2zM12 2v2h2V2h-2z" /><path d="M26 0v2h2V0h-2zM14 0v2h2V0h-2z" /></g></svg></g><g class="gotchi-wearable gotchi-secondary"><path d="M32 40v1h-1v-1h1z" /><path d="M33 42v-1h-1v1h1v1h2v-1h-2z" /><path d="M39 43v1h-4v-1h4z" /></g></svg>