<svg xmlns="http://www.w3.org/2000/svg" xmlns="http://www.w3.org/2000/svg" viewBox="0 0 64 64"><g class="gotchi-wearable gotchi-secondary"><path d="M32 40v1h-1v-1h1z" /><path d="M33 42v-1h-1v1h1v1h2v-1h-2z" /><path d="M39 43v1h-4v-1h4z" /></g><g class="gotchi-wearable wearable-hand wearable-hand-left"><svg x="37" y="31"><path d="M4 5V4H3V2H2V0H0v20h2v-2h1v-2h1v-1h1V5H4z" fill="#0f5a87" /><path d="M4 5V4H3V2H2v16h1v-2h1v-1h1V5H4z" fill="#0fa9c9" /><path d="M4 5V4H3v12h1v-1h1V5H4z" fill="#e6cce1" /><path d="M4 5v10h1V5H4z" fill="#fff" /></svg></g></svg>