<svg xmlns="http://www.w3.org/2000/svg" xmlns="http://www.w3.org/2000/svg" viewBox="0 0 64 64"><g class="gotchi-wearable wearable-hand wearable-hand-left"><svg x="32" y="29"><path d="M10 4V2H8V0H6v2H4v2H2v2h1v2H2v1H1v1H0v2h2v-1h1v-1h1V9h2v1h2V8h2V6h2V4h-2z" /><path d="M8 4V2H6v2H4v1h3v3h1V6h2V4H8z" fill="#8e9397" /><path d="M4 6v2h2V6H4z" fill="#c0642e" /></svg></g><g class="gotchi-wearable gotchi-secondary"><path d="M32 40v1h-1v-1h1z" /><path d="M33 42v-1h-1v1h1v1h2v-1h-2z" /><path d="M39 43v1h-4v-1h4z" /></g></svg>