<svg xmlns="http://www.w3.org/2000/svg" xmlns="http://www.w3.org/2000/svg" viewBox="0 0 64 64"><g class="gotchi-wearable wearable-face"><svg x="20" y="26"><svg width="25" height="13"><g fill="#a0ebff"><path d="M16 4v1h2V4h-2z" /><path d="M14 3v1h2V3h-2z" /><path d="M12 2v1h2V2h-2zm2 7v1h2V9h-2z" /><path d="M12 8v1h2V8h-2zm4 2v1h2v-1h-2zm-5-9h1v1h-1z" /><path d="M0 0v1h11V0H0zm11 7h1v1h-1z" /><path d="M0 6v1h11V6H0zm21-2v1h-3v1h2v5h-2v1h3v1h4V4h-4z" /></g><path d="M21 5v1h4V5h-4zm0 2v1h4V7h-4zm0 2v1h4V9h-4zm0 2v1h4v-1h-4z" fill="#cff" /></svg></svg></g><g class="gotchi-wearable gotchi-secondary"><path d="M32 40v1h-1v-1h1z" /><path d="M33 42v-1h-1v1h1v1h2v-1h-2z" /><path d="M39 43v1h-4v-1h4z" /></g></svg>