<svg xmlns="http://www.w3.org/2000/svg" xmlns="http://www.w3.org/2000/svg" viewBox="0 0 64 64"><g class="gotchi-wearable wearable-body"><svg x="20" y="33"><g><path d="M22,7V6h-2V5h-1V4h-1V3h-1V2h-1V1h-1V0H0v19h24V7H22z" fill="#550aaa" /><path d="M22,8V7h-2V6h-1V5h-1V4h-1V3h-1V2h-1V1H1v17h23V8H22z" fill="#870aff" /><path d="M23 13h1v1h-1v-1zm0 2h1v1h-1v-1zm0-4h1v1h-1v-1z" fill="#fff" /></g></svg></g><g class="gotchi-wearable gotchi-secondary"><path d="M32 40v1h-1v-1h1z" /><path d="M33 42v-1h-1v1h1v1h2v-1h-2z" /><path d="M39 43v1h-4v-1h4z" /></g></svg>