<svg xmlns="http://www.w3.org/2000/svg" xmlns="http://www.w3.org/2000/svg" viewBox="0 0 64 64"><g class="gotchi-wearable wearable-body"><svg x="9" y="32"><g><path d="M37 1v1h-2v1h-2v1h-2v1h-2v1h-2v1h-8V6h-2V5h-2V4h-2V3h-2V2H9V1H6v2h1v1h1v1h1v6H8v1H7v1H6v8h34v-8h-1v-1h-1v-1h-1V5h1V4h1V3h1V1h-3z" /><g class="gotchi-sleeves gotchi-sleeves-left gotchi-sleeves-up"><path d="M41 4h1v1h1v1h2V5h1V3h-1V2h-1V1h-1V0h-2v1h-1v2h1z" /><g fill="#fa34f3"><path d="M44 4h1v1h-1z" /><path d="M43 3h1v1h-1z" /></g><path d="M42 2h1v1h-1z" fill="#ac15f9" /><path d="M41 1h1v1h-1z" fill="#7e18f8" /></g><path d="M45 5V4h-2v1h-1v1h-1v1h-1v2h1v1h2V9h1V8h1V7h1V5z" /><g fill="#fa34f3"><path d="M44 5h1v1h-1z" /><path d="M43 6h1v1h-1z" /></g><path d="M42 7h1v1h-1z" fill="#ac15f9" /><path d="M41 8h1v1h-1z" fill="#7e18f8" /><g class="gotchi-sleeves gotchi-sleeves-right gotchi-sleeves-up"><path d="M1 5v1h2V5h1V4h1V3h1V1H5V0H3v1H2v1H1v1H0v2z" /><g fill="#fa34f3"><path d="M1 4h1v1H1z" /><path d="M2 3h1v1H2z" /></g><path d="M3 2h1v1H3z" fill="#ac15f9" /><path d="M4 1h1v1H4z" fill="#7e18f8" /></g><path d="M5 6H4V5H3V4H1v1H0v2h1v1h1v1h1v1h2V9h1V7H5z" /><g fill="#fa34f3"><path d="M1 5h1v1H1z" /><path d="M2 6h1v1H2z" /></g><path d="M3 7h1v1H3z" fill="#ac15f9" /><path d="M4 8h1v1H4z" fill="#7e18f8" /></g></svg></g></svg>