<svg xmlns="http://www.w3.org/2000/svg" xmlns="http://www.w3.org/2000/svg" viewBox="0 0 64 64"><g class="gotchi-wearable wearable-head"><svg x="19" y="1"><path d="M1 19v-1H0V4h1V3h1V2h1V1h2V0h16v1h2v1h1v1h1v1h1v14h-1v1z" fill="#092c1b" /><path d="M1 18V4h1V3h1V2h2V1h16v1h2v2h2v14z" fill="#283d2e" /><path d="M2 9V8H1v6h1v-1h1V9z" fill="#f8af4e" /></svg></g><g class="gotchi-wearable gotchi-secondary"><path d="M33 40v1h-1v-1h1z" /><path d="M29,42v1h2v-1h1v-1h-1v1H29z" /><path d="M29 43v1h-4v-1h4z" /></g></svg>