<svg xmlns="http://www.w3.org/2000/svg" xmlns="http://www.w3.org/2000/svg" viewBox="0 0 64 64"><g class="gotchi-wearable wearable-body"><svg x="20" y="31"><g><path d="M1 8V7h2V6h1V5h1V4h1V3h1V2h17v22H0V8h1z" /><path d="M24 15v3H0v-3h24z" fill="#fff" /><path d="M1 9V8h2V7h1V6h1V5h1V4h1V3h17v11H0V9h1zm23 10v3H0v-3h24z" fill="red" /><path d="M22 7.5v-2h2v6h-2v-2h-2v-2h2z" /><path d="M24 7.5v2h-2v-2h2z" fill="#ff0" /></g></svg></g><g class="gotchi-wearable gotchi-secondary"><path d="M33 40v1h-1v-1h1z" /><path d="M29,42v1h2v-1h1v-1h-1v1H29z" /><path d="M29 43v1h-4v-1h4z" /></g></svg>