<svg xmlns="http://www.w3.org/2000/svg" xmlns="http://www.w3.org/2000/svg" viewBox="0 0 64 64"><g class="gotchi-wearable wearable-eyes"><svg x="19" y="22"><svg width="26" height="9"><path d="M21 0v1h-1v2H0v4h2V5h18v4h2V8h2v1h2V0h-5z" /><path d="M22 1v1h-1v6h1V7h2v1h2V1h-4z" fill="#ff0" /><path d="M22 5v1h-1v2h1V7h2v1h2V5h-4z" fill="red" /><path d="M22 1v1h-1v2h1V3h4V1h-4z" fill="#007d00" /></svg></svg></g><g class="gotchi-wearable gotchi-secondary"><path d="M32 40v1h-1v-1h1z" /><path d="M33 42v-1h-1v1h1v1h2v-1h-2z" /><path d="M39 43v1h-4v-1h4z" /></g></svg>