<svg xmlns="http://www.w3.org/2000/svg" xmlns="http://www.w3.org/2000/svg" viewBox="0 0 64 64"><g class="gotchi-wearable wearable-body"><svg x="10" y="33"><g><svg width="44" height="23"><path d="M42 16v1h-1v-2h-1v-2h-1V6H5v7H4v2H3v1H2v-1H1v3h1v1h3v-1h4v-1h5v1h5v2h5v1h1v1h2v1h10v-1h2v-1h2v-1h1v-1h1v-3h-1z" fill="#ffe00c" /><g fill="#eea509"><path d="M23 11v-1h-2v1h2zm0-3V7h-2v1h2zm-3 3V7H6v4h14zm-1-3v2h-1V8h1zm-4 2V8h1v2h-1zm23 1V7H24v4h14zm-9-3v2h-1V8h1zm-4 0h1v2h-1V8zm-2 5h-2v4h1v2h2v-2h-1v-4z" /><path d="M20 13h-2v4h1v1h2v-1h-1v-4zm-5 0v4h2v-4h-2zm-3 0v3h2v-3h-2zm-3 0v3h2v-3H9zm-3 0v4h2v-4H6zm20 0h-2v4h1v4h2v-4h-1v-4z" /><path d="M29 13h-2v4h1v5h2v-5h-1v-4z" /><path d="M32 13h-2v4h1v5h2v-5h-1v-4z" /><path d="M35 13h-2v4h1v5h2v-5h-1v-4z" /><path d="M38 13h-2v4h1v4h2v-4h-1v-4zm2 4v3h1v-3h-1z" /><path d="M40 15h-1v2h1v-2zM4 18h1v-3H4v3zm-2-1h1v1H2z" /></g></svg><g class="gotchi-sleeves gotchi-sleeves-left gotchi-sleeves-up"><svg width="44" height="23"><path d="M3 0v1H2v1H1v1H0v2h2V4h1V3h1V2h1V0H3z" fill="#eea509" /><g fill="#ffe00c"><path d="M1 3h1v1H1z" /><path d="M2 2h1v1H2z" /><path d="M3 1h1v1H3z" /></g></svg></g><svg width="44" height="23"><path d="M4 5H3V4H2V3H0v2h1v1h1v1h1v1h2V6H4V5z" fill="#eea509" /><g fill="#ffe00c"><path d="M1 4h1v1H1z" /><path d="M2 5h1v1H2z" /><path d="M3 6h1v1H3z" /></g></svg><g class="gotchi-sleeves gotchi-sleeves-right gotchi-sleeves-up"><svg width="44" height="23"><path d="M43 3V2h-1V1h-1V0h-2v2h1v1h1v1h1v1h2V3h-1z" fill="#eea509" /><g fill="#ffe00c"><path d="M42 3h1v1h-1z" /><path d="M41 2h1v1h-1z" /><path d="M40 1h1v1h-1z" /></g></svg></g><svg width="44" height="23"><path d="M42 3v1h-1v1h-1v1h-1v2h2V7h1V6h1V5h1V3h-2z" fill="#eea509" /><g fill="#ffe00c"><path d="M42 4h1v1h-1z" /><path d="M41 5h1v1h-1z" /><path d="M40 6h1v1h-1z" /></g></svg></g></svg></g></svg>