<svg xmlns="http://www.w3.org/2000/svg" xmlns="http://www.w3.org/2000/svg" viewBox="0 0 64 64"><g class="gotchi-wearable wearable-eyes"><svg x="19" y="21"><g fill="#646464"><path d="M7 4H6V2H5V1H4V0H0v10h4V9h1V8h1V6h1V4z" /><path d="M7 6v7h1V6H7z" /><path d="M6 14v1h1v-2H6v1z" /><path d="M5 15h1v1H5z" /><path d="M4 16h1v1H4z" /><path d="M3 17h1v1H3z" /><path d="M2 19v1h1v-2H2v1z" /><path d="M1 20h1v1H1z" /></g><path d="M4 2V1H0v8h4V8h1V2H4z" fill="#fff" /><path d="M0 3h3v4H0z" fill="#b2b2b2" /></svg></g><g class="gotchi-wearable gotchi-secondary"><path d="M33 40v1h-1v-1h1z" /><path d="M29,42v1h2v-1h1v-1h-1v1H29z" /><path d="M29 43v1h-4v-1h4z" /></g></svg>