<svg xmlns="http://www.w3.org/2000/svg" xmlns="http://www.w3.org/2000/svg" viewBox="0 0 64 64"><g class="gotchi-wearable wearable-body"><svg x="12" y="32"><svg width="40" height="21"><path d="M34 1v1h-1v1h-1v1h-1v1h-1v1h-1v1h-2v1h-2v1h-3v1h-4V9h-3V8h-2V7h-2V6h-1V5H9V4H8V3H7V2H6V1H3v20h34V1h-3z" fill="#000064" /><path d="M34 2v1h-1v1h-1v1h-1v1h-1v1h-1v1h-2v1h-2v1h-3v1h-4v-1h-3V9h-2V8h-2V7h-1V6H9V5H8V4H7V3H6V2H4v18h32V2h-2z" fill="#00f" /><path d="M29 11h3v3h-3z" fill="#fff" /></svg></svg></g></svg>