<svg xmlns="http://www.w3.org/2000/svg" xmlns="http://www.w3.org/2000/svg" viewBox="0 0 64 64"><g class="gotchi-wearable wearable-body"><svg x="20" y="33"><g><svg width="24" height="20"><path d="M22 7V6h-2V5h-1V4h-1V3h-1V2h-1V1h-1V0H0v20h24V7h-2z" fill="#000064" /><path d="M22 8V7h-2V6h-1V5h-1V4h-1V3h-1V2h-1V1H0v18h24V8h-2z" fill="#00f" /><path d="M4 8h3v3H4zM0 8h3v3H0z" fill="#fff" /></svg></g></svg></g><g class="gotchi-wearable gotchi-secondary"><path d="M32 40v1h-1v-1h1z" /><path d="M33 42v-1h-1v1h1v1h2v-1h-2z" /><path d="M39 43v1h-4v-1h4z" /></g></svg>