<svg xmlns="http://www.w3.org/2000/svg" xmlns="http://www.w3.org/2000/svg" viewBox="0 0 64 64"><g class="gotchi-wearable wearable-body"><svg x="10" y="32"><g><path d="M39.5 1h-35v18H5v4h34v-4h.5V1z" /><g fill="#ff0"><path d="M16.5 8h1v5h-1V8zm9 5h1v1h-1v-1z" /><path d="M24.5 14h1v1h-1v-1zm-7-1h1v1h-1v-1zm2-8h5v1h-5V5z" /><path d="M18.5 6h1v1h-1V6zm6 0h1v1h-1V6z" /><path d="M17.5 7h1v1h-1V7zm8 0h1v1h-1V7z" /><path d="M26.5 8h1v5h-1V8zm-7 7h5v1h-5v-1z" /><path d="M18.5,14h1v1h-1V14z" /></g><g fill="#f0f"><path d="M5 22h34v1H5v-1zM20.5 9h1v1h-1V9zm4 4h1v1h-1v-1z" /><path d="M25.5,14h1v1h-1V14z" /><path d="M26.5,15h2v1h-2V15z" /><path d="M28.5,16h2v1h-2V16z" /><path d="M30.5,17h2v1h-2V17z" /><path d="M32.5,18h2v1h-2V18z" /><path d="M34.5,19h2v1h-2V19z" /><path d="M36.5 20H39v1h-2.5v-1zM4.5 1h5v1h-5V1z" /><path d="M9.5,2h2v1h-2V2z" /><path d="M11.5,3h2v1h-2V3z" /><path d="M13.5,4h2v1h-2V4z" /><path d="M15.5,5h2v1h-2V5z" /><path d="M17.5,6h1v1h-1V6z" /><path d="M18.5 7h1v1h-1V7zm4 4h1v1h-1v-1z" /><path d="M19.5 8h1v1h-1V8zm4 4h1v1h-1v-1z" /></g><g fill="#0f0"><path d="M22.5,9h1v1h-1V9z" /><path d="M21.5 10h1v1h-1v-1zm-3 3h1v1h-1v-1z" /><path d="M17.5,14h1v1h-1V14z" /><path d="M15.5,15h2v1h-2V15z" /><path d="M13.5,16h2v1h-2V16z" /><path d="M11.5,17h2v1h-2V17z" /><path d="M9.5,18h2v1h-2V18z" /><path d="M7.5,19h2v1h-2V19z" /><path d="M5 20h2.5v1H5v-1zM34.5 1h5v1h-5V1z" /><path d="M32.5,2h2v1h-2V2z" /><path d="M30.5,3h2v1h-2V3z" /><path d="M28.5,4h2v1h-2V4z" /><path d="M26.5,5h2v1h-2V5z" /><path d="M25.5,6h1v1h-1V6z" /><path d="M24.5 7h1v1h-1V7zm-4 4h1v1h-1v-1z" /><path d="M23.5 8h1v1h-1V8zm-4 4h1v1h-1v-1z" /></g><g class="gotchi-sleeves gotchi-sleeves-left gotchi-sleeves-up"><path d="M2,1V0H0v7h2v1h1v6h1v5h1.5V1H2z" /><path d="M2,7H1V0h1V7z" fill="#f0f" /><path d="M1,7H0V0h1V7z" fill="#0ff" /><path d="M4,1h2v1H4V1z" fill="#f0f" /></g><path d="M4,1v1H3v1H2v1H0v7h2v-1h1v5h1v4h1.5V1H4z" /><path d="M1,4h1v7H1V4z" fill="#f0f" /><path d="M0,4h1v7H0V4z" fill="#0ff" /><path d="M4,1h2v1H4V1z" fill="#f0f" /><g class="gotchi-sleeves gotchi-sleeves-right gotchi-sleeves-up"><path d="M38.5 1v18H40v-5h1V8h1V7h2V0h-2v1h-3.5z" /><path d="M42 0h1v7h-1V0z" fill="#f0f" /><path d="M43 0h1v7h-1V0z" fill="#0ff" /><path d="M40,2h-2V1h2V2z" fill="#0f0" /></g><path d="M38.5,1v18H40v-4h1v-5h1v1h2V4h-2V3h-1V2h-1V1H38.5z" /><path d="M43 11h-1V4h1v7z" fill="#f0f" /><path d="M44 11h-1V4h1v7z" fill="#0ff" /><path d="M40,2h-2V1h2V2z" fill="#0f0" /></g></svg></g></svg>