<svg xmlns="http://www.w3.org/2000/svg" xmlns="http://www.w3.org/2000/svg" viewBox="0 0 64 64"><g class="gotchi-wearable wearable-head"><svg x="12" y="2"><path d="M32 17h6v-2h2v3h-1v1H1v-1H0v-3h2v2h6V3h2V2h2V1h3V0h10v1h3v1h2v1h2v14z" fill="#e4c599" /><path d="M9 14h23v3H8v-3h1z" fill="#a97955" /><path d="M9 14h1v3H8v-3h1zm21 0v3h-2v-3h2zm-4 0v3h-2v-3h2zm-12 0v3h-2v-3h2zm4 0v3h-2v-3h2zm4 0v3h-2v-3h2z" fill="#4b2d00" /></svg></g><g class="gotchi-wearable gotchi-secondary"><path d="M33 40v1h-1v-1h1z" /><path d="M29,42v1h2v-1h1v-1h-1v1H29z" /><path d="M29 43v1h-4v-1h4z" /></g></svg>