<svg xmlns="http://www.w3.org/2000/svg" xmlns="http://www.w3.org/2000/svg" viewBox="0 0 64 64"><g class="gotchi-wearable wearable-hand wearable-hand-left"><svg x="36" y="25"><path d="M0 5v8h1v1h1v4H1v1h3v-1H3v-4h1v-1h1V5z" fill="#0000b9" /><path d="M1,6v7h3V6H1z" fill="#fff" /><path d="M1 8v5h3V8H1zm1-5h1v1H2V3zm1-2h1v1H3V1zM1 0h1v1H1V0z" fill="#ffffbe" /></svg></g><g class="gotchi-wearable gotchi-secondary"><path d="M32 40v1h-1v-1h1z" /><path d="M33 42v-1h-1v1h1v1h2v-1h-2z" /><path d="M39 43v1h-4v-1h4z" /></g></svg>