<svg xmlns="http://www.w3.org/2000/svg" xmlns="http://www.w3.org/2000/svg" viewBox="0 0 64 64"><g class="gotchi-wearable wearable-head"><svg x="15" y="0"><path d="M0 22v-2h2v-2h2v-4h2v-2h2v-2H4v2H2V8h2V6h2V4h2V2h2V0h8v2h2v2h2v2h2v2h2v2h2v4h2v4h2v2h2v2z" fill="#191919" /><path d="M4 18h26v2H4zm2-2v-2h4V8H6V6h2V4h2V2h8v2h2v2h1v5h1v1h1v1h3v1h2v2z" /><path d="M22 8h2v3h-2z" fill="#ffc88a" /><path d="M23 10h3v2h-3z" fill="#ffaa4a" /></svg></g><g class="gotchi-wearable gotchi-secondary"><path d="M32 40v1h-1v-1h1z" /><path d="M33 42v-1h-1v1h1v1h2v-1h-2z" /><path d="M39 43v1h-4v-1h4z" /></g></svg>