<svg xmlns="http://www.w3.org/2000/svg" xmlns="http://www.w3.org/2000/svg" viewBox="0 0 64 64"><g class="gotchi-wearable wearable-body"><svg x="7" y="31"><g><path d="M7.5 2v8H8v14h4v-2h5v2h5v-2h6v2h5v-2h5v2h4V10h.5V2h-35z" fill="#0f5a87" /><path d="M7.5,3v4H10v15h2v-2h5v2h5v-2h6v2h5v-2h5v2h2V7h2.5V3H7.5z" fill="#0fa9c9" /><path d="M28 18v4h5v-4h-5zm-11 0v4h5v-4h-5zm-7-4v2h30v-2H10z" fill="#a73796" /><path d="M38 14v2h2v-2h-2zm-28 2h2v-2h-2v2zm16 0h2v-2h-2v2zm-4 0h2v-2h-2v2zm12 0h2v-2h-2v2zm-4 0h2v-2h-2v2zm-12 0h2v-2h-2v2zm-4 0h2v-2h-2v2z" fill="#fff" /><g class="gotchi-sleeves gotchi-sleeves-left gotchi-sleeves-up"><path d="M7 2V1H5V0H1v1H0v4h1v1h2v1h2v1h1v1h1v1h1.5V9h-1V3h1V2H7z" fill="#0f5a87" /><path d="M7 3V2H5v4 1h1v1h1v1h1V3z" fill="#0fa9c9" /><path d="M5 2V1H1v4h2v1h2z" fill="#a73796" /></g><path d="M8,3V2H7v1H6v1H5v1H3v1H1v1H0v4h1v1h4v-1h2v-1h2V7H8V3z" fill="#0f5a87" /><path d="M7,3v1H6v1H5v1v4h2V9h1V7h1V3H7z" fill="#0fa9c9" /><path d="M5,6H3v1H1v4h4V6z" fill="#a73796" /><g class="gotchi-sleeves gotchi-sleeves-right gotchi-sleeves-up"><path d="M43 2V1h2V0h4v1h1v4h-1v1h-2v1h-2v1h-1v1h-1v1h-1.5V9h1V3h-1V2H43z" fill="#0f5a87" /><path d="M43 3V2h2v4 1h-1v1h-1v1h-1V3z" fill="#0fa9c9" /><path d="M45 2V1h4v4h-2v1h-2z" fill="#a73796" /></g><path d="M42,7h-1v3h2v1h2v1h4v-1h1V7h-1V6h-2V5h-2V4h-1V3h-1V2h-1v1V7z" fill="#0f5a87" /><path d="M41,3v4h1v2h1v1h2V6V5h-1V4h-1V3H41z" fill="#0fa9c9" /><path d="M45 11h4V7h-2V6h-2v5z" fill="#a73796" /></g></svg></g></svg>