<svg xmlns="http://www.w3.org/2000/svg" xmlns="http://www.w3.org/2000/svg" viewBox="0 0 64 64"><g class="gotchi-wearable wearable-hand wearable-hand-left"><svg x="32" y="27"><svg width="8" height="28"><path d="M8 22V0H0v4h2v18h2v1h2v-1h2zm-1 2h1v1H7z" /><path d="M6 25h1v1H6z" /><path d="M7 26h1v1H7zm-1-3h1v1H6zm-4 1h1v1H2z" /><path d="M3 25h1v1H3zm3 2h1v1H6zm-3 0h1v1H3z" /><path d="M2 26h1v1H2zm1-3h1v1H3z" /><path d="M2 2v2h2v18h2V2H2z" fill="#d2ffff" /><path d="M4 10h2v2H4zm0-4h2v2H4zm0 8h2v2H4zm0 4h2v2H4z" fill="#00afaf" /></svg></svg></g><g class="gotchi-wearable gotchi-secondary"><path d="M32 40v1h-1v-1h1z" /><path d="M33 42v-1h-1v1h1v1h2v-1h-2z" /><path d="M39 43v1h-4v-1h4z" /></g></svg>