<svg xmlns="http://www.w3.org/2000/svg" xmlns="http://www.w3.org/2000/svg" viewBox="0 0 64 64"><g class="gotchi-wearable gotchi-secondary"><path d="M32 40v1h-1v-1h1z" /><path d="M33 42v-1h-1v1h1v1h2v-1h-2z" /><path d="M39 43v1h-4v-1h4z" /></g><g class="gotchi-wearable wearable-hand wearable-hand-left"><svg x="37" y="37"><path d="M0,0v9h1V8h1V7h1V6h1V4h1V3h2v1h1v1H7v1H6v1h2V6h1V3H8V2H7V1H5v1H4v1H3V2H2V1H1V0H0z" fill="#abadb0" /><path d="M2,2v5h1V2H2z" fill="#85888c" /><path d="M0,0v9h1V0H0z" fill="#353941" /><path d="M1,1v7h1V1H1z" fill="#606469" /></svg></g></svg>