<svg xmlns="http://www.w3.org/2000/svg" xmlns="http://www.w3.org/2000/svg" viewBox="0 0 64 64"><g class="gotchi-wearable wearable-body"><svg x="20" y="31"><g><path d="M1 6V5h2V4h2V3h2V2h17v22h-3v-2h-3v2h-4v-2h-4v2H6v-2H3v2H0V6h1z" fill="#321227" /><path d="M24 15v9h-3v-2h-3v2h-4v-2h-4v2H6v-2H3v2H0v-9h24z" fill="#376560" /><path d="M24 3v11H13V3h11zM1 7V6h2V5h2V4h2V3h5v11H0V7h1z" fill="#482b3e" /><path d="M12 16v4h-2v2H6v-2H3v2H0v-6h12zm1 0v4h1v2h4v-2h3v2h3v-3h-3v-1h3v-2H13zm4 1v1h-2v-1h2zm-2 3v-1h2v1h-2z" fill="#6ca958" /></g></svg></g><g class="gotchi-wearable gotchi-secondary"><path d="M33 40v1h-1v-1h1z" /><path d="M29,42v1h2v-1h1v-1h-1v1H29z" /><path d="M29 43v1h-4v-1h4z" /></g></svg>