<?xml version="1.0" encoding="UTF-8"?>
<svg width="64" height="64" viewBox="0 0 64 64" xmlns="http://www.w3.org/2000/svg">
  <defs>
    <style>
      .gotchi-primary { fill: 0xff7d00; }
      .gotchi-secondary { fill: 0xf9d792; }
      .gotchi-cheek { fill: 0xf4af24; }
      .gotchi-collateral { fill: 0xff7d00; }
      .gotchi-eyeColor { fill: 0xff7d00; }
      .gotchi-shadow { fill: #000000; }
    </style>
  </defs>
  <g class="gotchi-eyeColor"><path d="M29 22H28V23H27H26H25H24H23V22H24H25H26H27H28V21H27H26H25H24H23H22V22V23H21V24H22V25H21V26H22V27V28H23H24H25H26H27H28V27H27H26H25H24H23V26H24H25H26H27H28V27H29V26H30V25H29V24H30V23H29V22ZM28 25H27H26H25H24H23V24H24H25H26H27H28V25Z" /><path d="M43 24V23H42V22H41V23H40H39H38H37H36V22H37H38H39H40H41V21H40H39H38H37H36H35V22V23H34V24H35V25H34V26H35V27V28H36H37H38H39H40H41V27H40H39H38H37H36V26H37H38H39H40H41V27H42V26H43V25H42V24H43ZM41 25H40H39H38H37H36V24H37H38H39H40H41V25Z" /></g>
</svg>