<svg xmlns="http://www.w3.org/2000/svg" xmlns="http://www.w3.org/2000/svg" viewBox="0 0 64 64"><g class="gotchi-wearable wearable-hand wearable-hand-left"><svg x="35" y="30"><path d="M1 12V0H0v13h1v1h13v-2H1z" /><path d="M1 12v1h13v-1H1z" fill="#646464" /><path d="M1 12h1v1H1zm2 0h1v1H3zm2 0h1v1H5zm2 0h1v1H7zm2 0h1v1H9z" fill="#969696" /></svg></g><g class="gotchi-wearable gotchi-secondary"><path d="M32 40v1h-1v-1h1z" /><path d="M33 42v-1h-1v1h1v1h2v-1h-2z" /><path d="M39 43v1h-4v-1h4z" /></g></svg>