<svg xmlns="http://www.w3.org/2000/svg" xmlns="http://www.w3.org/2000/svg" viewBox="0 0 64 64"><g class="gotchi-wearable wearable-head"><svg x="15" y="0"><path d="M36 13v-1h-2v-2h-2V8h-2V6h-2V4h-2V2h-2V0h-8v2h-2v2h-2v2h-2v2H8v2H6v4H4v4H2v2H0v2h34v-2h-2v-2h-2v-4h-2v-2h-2v-2h4v2h3v1h-1v3h1v1h3v-1h1v-3h-1z" /><path d="M33 13v3h3v-3h-3zM4 18h26v2H4z" fill="#fff" /><path d="M6 16v-2h2v-1h3v-1h1v-1h1V6h1V4h2V2h8v2h2v2h2v2h-4v6h4v2z" fill="red" /><path d="M10 8h2v3h-2z" fill="#fff066" /><path d="M8 10h3v2H8z" fill="#ffe600" /></svg></g><g class="gotchi-wearable gotchi-secondary"><path d="M33 40v1h-1v-1h1z" /><path d="M29,42v1h2v-1h1v-1h-1v1H29z" /><path d="M29 43v1h-4v-1h4z" /></g></svg>