<svg xmlns="http://www.w3.org/2000/svg" xmlns="http://www.w3.org/2000/svg" viewBox="0 0 64 64"><g class="gotchi-wearable wearable-head"><svg x="20" y="1"><path d="M23 13v-2h-2V9h-2V7h-2V6h-1V5h1V3h-1V1h-2V0h-4v1H8v2H7v2h1v1H6v1H5v2H3v2H1v2H0v19h17V22h7v-9h-1z" /><g fill="red"><path d="M8 5v1h8V5H8zM6 6h1v1H6z" /><path d="M5 5h1v1H5z" /><path d="M4 4h1v1H4z" /><path d="M3 3h1v1H3z" /><path d="M2 2h1v1H2z" /></g></svg></g><g class="gotchi-wearable gotchi-secondary"><path d="M32 40v1h-1v-1h1z" /><path d="M33 42v-1h-1v1h1v1h2v-1h-2z" /><path d="M39 43v1h-4v-1h4z" /></g></svg>