<?xml version="1.0" encoding="UTF-8"?>
<svg width="64" height="64" viewBox="0 0 64 64" xmlns="http://www.w3.org/2000/svg">
  <defs>
    <style>
      .gotchi-primary { fill: 0xff5e00; }
      .gotchi-secondary { fill: 0xffcaa2; }
      .gotchi-cheek { fill: 0xf696c6; }
      .gotchi-collateral { fill: 0xff5e00; }
      .gotchi-eyeColor { fill: 0xff5e00; }
      .gotchi-shadow { fill: #000000; }
    </style>
  </defs>
  <g class="gotchi-collateral"><path d="M30 11v1h4v-1h-4z"/><path d="M29 12h1v1h-1zm7.5 2.5v4h1v-4h-1zm-10 4h1v-4h-1v4z"/><path d="M27.5 13.5h1v1h-1zm8 5h1v1h-1zm0-5h1v1h-1zM34 12h1v1h-1zm-5 8h1v1h-1zm-1.5-1.5h1v1h-1zM34 20h1v1h-1z"/><path d="M30 21v1h4v-1h-4z"/><g fill="#ff5e00"><path d="M32.5 16h-1v-1h2v-1h-1v-1h-1v1h-2v1h1v3h-1v1h2v1h1v-1h1v-1h-2v-1h2v-1h-1z"/><path d="M33.5 17h1v1h-1zm0-2h1v1h-1z"/></g></g>
</svg>