<svg xmlns="http://www.w3.org/2000/svg" xmlns="http://www.w3.org/2000/svg" viewBox="0 0 64 64"><g class="gotchi-wearable wearable-eyes"><svg x="20" y="21"><path d="M17 1v7h8V1h-8z" fill="#0ff" /><path d="M17 1v2h8V1h-8z" fill="#00b9ff" /><path d="M22 2v5h1V2h-1z" opacity=".4" fill="#fff" enable-background="new" /><path d="M0 0v5h16v3h1v1h8V7h-7V2h7V0H0z" fill="#c8c8c8" /><path d="M0 2v1h16V2H0z" fill="#aaa" /></svg></g><g class="gotchi-wearable gotchi-secondary"><path d="M32 40v1h-1v-1h1z" /><path d="M33 42v-1h-1v1h1v1h2v-1h-2z" /><path d="M39 43v1h-4v-1h4z" /></g></svg>