<svg xmlns="http://www.w3.org/2000/svg" xmlns="http://www.w3.org/2000/svg" viewBox="0 0 64 64"><g class="gotchi-wearable wearable-body"><svg x="20" y="33"><g><path d="M7,0v1H6v1H5v1H4v1H3v1H2v1H0v14h24V0H7z" fill="#7d7d7d" /><path d="M7,1v1H6v1H5v1H4v1H3v1H2v1H0v12h23V1H7z" /><path d="M4 8v2H3V8H2v5h1v-2h1v2h1V8H4zm-4 3v2h1v-3H0v1zm0 4v4h1v-5H0v1zm0-7h1v1H0V8zm2 6v1h1v4h1v-4h1v-1H2z" fill="#7d7d7d" /></g></svg></g><g class="gotchi-wearable gotchi-secondary"><path d="M33 40v1h-1v-1h1z" /><path d="M29,42v1h2v-1h1v-1h-1v1H29z" /><path d="M29 43v1h-4v-1h4z" /></g></svg>