<svg xmlns="http://www.w3.org/2000/svg" xmlns="http://www.w3.org/2000/svg" viewBox="0 0 64 64"><g class="gotchi-wearable wearable-body"><svg x="20" y="33"><g><path d="M9,0v1H8v1H7v1H6v1H5v1H4v1H2v1H0v12h24V0H9z" fill="#550aaa" /><path d="M9,1v1H8v1H7v1H6v1H5v1H4v1H2v1H0v10h23V1H9z" fill="#870aff" /><path d="M0,11v5h1v-5H0z" fill="#fff" /></g></svg></g><g class="gotchi-wearable gotchi-secondary"><path d="M33 40v1h-1v-1h1z" /><path d="M29,42v1h2v-1h1v-1h-1v1H29z" /><path d="M29 43v1h-4v-1h4z" /></g></svg>