<svg xmlns="http://www.w3.org/2000/svg" xmlns="http://www.w3.org/2000/svg" viewBox="0 0 64 64"><g class="gotchi-wearable gotchi-secondary"><path d="M32 40v1h-1v-1h1z" /><path d="M33 42v-1h-1v1h1v1h2v-1h-2z" /><path d="M39 43v1h-4v-1h4z" /></g><g class="gotchi-wearable wearable-pet"><svg x="5" y="46"><svg width="57" height="15"><g fill="#00a0f5"><path d="M2 13v1h3v-1H4 2zm-1 1H0v-1h1v1z" /><path d="M5 14v1h41v-1H7 5z" /><path d="M46 13v1h3v-1h-2-1zm5 1h-1v-1h1v1z" /></g><path d="M1 2v8h1v1h1v1h1v1h1v1h41v-1h1v-1h1v-1h1v-1h1V9h1V8h1V7h1V6h1V5h1V4h1V3h1V1h-3V0H39v3H15V0H3v1H2v1H1z" fill="#e1dad7" /><g fill="#fff"><path d="M54 2V1H39v2h12V2h1 2z" /><path d="M2 4v6h1v1h1v1h1v1h41v-1h1v-1h1v-1h1V9h1V8h1V7h1V6h1V5h1V4h1V3h1V2h-2v1h-3v1H4 2zm0-2v1h13V1H3v1H2z" /></g><g fill="#e1dad7"><path d="M43 8h-7v1h8V8h-1zM10 9h9V8h-9v1zm22-3v5h3v-1h-2V9h2V8h-2V7h2V6h-3zm-2 4h1V6h-1v4zm-1-4h-1v4h1V6zm-7 2h-1V7h-1v4h1V9h1v2h1V7h-1v1z" /><path d="M26 8h-1V7h-1v4h1V9h1v2h1V7h-1v1zm-5-2h1v1h-1V6z" /><path d="M25 6h1v1h-1V6zm4 4h1v1h-1v-1z" /></g></svg></svg></g></svg>