<svg xmlns="http://www.w3.org/2000/svg" xmlns="http://www.w3.org/2000/svg" viewBox="0 0 64 64"><g class="gotchi-wearable wearable-body"><svg x="20" y="41"><path d="M0 0v14h3v-2h3v2h4v-2h4v2h4v-2h3v2h3V0H0z" fill="#006400" /><g fill="#fff"><path d="M22 2h1v1h-1z" /><path d="M21 3h1v1h-1zm2-2h1v1h-1z" /></g><path d="M22 3v1h-1V3H1v9h2v-2h3v2h4v-2h4v2h4v-2h3v2h2V3h-1zm-7-2h1v1h-1zm6 0h1v1h-1zm-2 0h1v1h-1zm-2 0h1v1h-1zm-6 0h1v1h-1zM9 1h1v1H9zm4 0h1v1h-1zM7 1h1v1H7zM5 1h1v1H5zM3 1h1v1H3zM1 1h1v1H1z" fill="#00af00" /></svg></g><g class="gotchi-wearable gotchi-secondary"><path d="M32 40v1h-1v-1h1z" /><path d="M33 42v-1h-1v1h1v1h2v-1h-2z" /><path d="M39 43v1h-4v-1h4z" /></g></svg>