<svg xmlns="http://www.w3.org/2000/svg" xmlns="http://www.w3.org/2000/svg" viewBox="0 0 64 64"><g class="gotchi-wearable wearable-body"><svg x="16" y="31"><g><svg width="32" height="25"><path d="M31 18v1h-1v-2h-1v-2h-1V6h-7v1h-2v1H4v7H3v2H2v2H1v-1H0v3h1v1h1v1h2v1h2v1h20v-1h2v-1h2v-1h1v-1h1v-3h-1z" fill="#ffe00c" /><g fill="#eea509"><path d="M25 15h-2v4h-1v5h2v-5h1v-4z" /><path d="M22 15h-2v4h-1v5h2v-5h1v-4zm6 0h-2v4h-1v4h2v-4h1v-4z" /><path d="M19 15h-2v4h-1v5h2v-5h1v-4z" /><path d="M16 15h-2v4h-1v5h2v-5h1v-4z" /><path d="M13 15h-2v4h-1v5h2v-5h1v-4zm15-2V7h-7v1h-2v1H5v4h23zM6 10h1v2H6v-2z" /><path d="M10 15H8v4H7v5h2v-5h1v-4z" /><path d="M7 15H5v4H4v4h2v-4h1v-4zm-5 7h1v-3H2v3z" /><path d="M4 17H3v2h1v-2zm24 2v3h2v-3h-2z" /></g></svg></g></svg></g><g class="gotchi-wearable gotchi-secondary"><path d="M32 40v1h-1v-1h1z" /><path d="M33 42v-1h-1v1h1v1h2v-1h-2z" /><path d="M39 43v1h-4v-1h4z" /></g></svg>