<svg xmlns="http://www.w3.org/2000/svg" xmlns="http://www.w3.org/2000/svg" viewBox="0 0 64 64"><g class="gotchi-wearable wearable-head"><svg x="19" y="14"><g fill="#0e0c15"><path d="M26 0v4h2V2h2v4h-2v2h-2V6H0V0h26z" /><path d="M30 8v2h-2V8h2z" /></g><g fill="#f27322"><path d="M20 4v2h-2V4h2zM8 4v2H6V4h2z" /><path d="M6 2v2H4V2h2zm12 0v2h-2V2h2z" /><path d="M4 0v2H2V0h2zm12 0v2h-2V0h2z" /></g></svg></g><g class="gotchi-wearable gotchi-secondary"><path d="M33 40v1h-1v-1h1z" /><path d="M29,42v1h2v-1h1v-1h-1v1H29z" /><path d="M29 43v1h-4v-1h4z" /></g></svg>