<svg xmlns="http://www.w3.org/2000/svg" xmlns="http://www.w3.org/2000/svg" viewBox="0 0 64 64"><g class="gotchi-wearable wearable-body"><svg x="20" y="32"><g><path d="M0 5v18h3v-2h3v2h4v-2h4v2h4v-2h3v2h3V1H10v1H8v1H6v1H4v1H0z" fill="#00002d" /><path d="M0 5v1h2V5H0z" fill="#205fec" /><g fill="#000046"><path d="M0 7v10h23V2H10v1H8v1H6v1H4v1H2v1H0zm8 7H4v-1h4v1zm-5 5v-1H1v1h2zm10-1v2h1v1h4v-1h3v1h2v-1h-1v-1h-1v-1h-8z" /><path d="M23 19h-1v-1h1v1zM3 19v1h3v1h4v-1h2v-2H4v1H3z" /><path d="M1 19H0v2h3v-1H1v-1z" /></g></g></svg></g><g class="gotchi-wearable gotchi-secondary"><path d="M33 40v1h-1v-1h1z" /><path d="M29,42v1h2v-1h1v-1h-1v1H29z" /><path d="M29 43v1h-4v-1h4z" /></g></svg>