<svg xmlns="http://www.w3.org/2000/svg" xmlns="http://www.w3.org/2000/svg" viewBox="0 0 64 64"><g class="gotchi-wearable wearable-hand wearable-hand-left"><svg x="34" y="31"><path d="M4 5V3H3V0H2v3H1v2H0v3h1v2h1v1h1v-1h1V8h1V5z" fill="#33691e" /><path d="M2 0h1v2H2z" /><path d="M3 5V3H2v2H1v3h1v2h1V8h1V5z" fill="#689f38" /><path d="M1 5h3v1H1zm0 2h3v1H1z" fill="#558b2f" /></svg></g><g class="gotchi-wearable gotchi-secondary"><path d="M32 40v1h-1v-1h1z" /><path d="M33 42v-1h-1v1h1v1h2v-1h-2z" /><path d="M39 43v1h-4v-1h4z" /></g></svg>