<svg xmlns="http://www.w3.org/2000/svg" xmlns="http://www.w3.org/2000/svg" viewBox="0 0 64 64"><g class="gotchi-wearable wearable-hand wearable-hand-left"><svg x="34" y="31"><path d="M5,3V2H4V0H2v2H1v1H0v9h1v1h4v-1h1V3H5z" fill="#00f" /><path d="M2,0v1h2V0H2z" fill="#0000cb" /><g fill="#fff"><path d="M4,3V2H2v1H1v9h4V3H4z" /><path d="M4,3V2H2v1H1v9h4V3H4z" opacity=".5" /></g><path d="M1,5v7h4V5H1z" opacity=".5" fill="#c3ffff" /></svg></g><g class="gotchi-wearable gotchi-secondary"><path d="M32 40v1h-1v-1h1z" /><path d="M33 42v-1h-1v1h1v1h2v-1h-2z" /><path d="M39 43v1h-4v-1h4z" /></g></svg>