<svg xmlns="http://www.w3.org/2000/svg" xmlns="http://www.w3.org/2000/svg" viewBox="0 0 64 64"><g class="gotchi-wearable wearable-head"><svg x="23" y="2"><path d="M2 8V6h4V4h6V2h6v2h-2v2h4v4h2v4h2v2h-1v4h3v2h-3v4h3v2h-5v4H6v-1H4v-3H3V11H2v-1H0V8h2z" /><path d="M24 12h2v2h-2v-2zm2 6h2v2h-2v-2zm0 6h2v2h-2v-2zM22 8h2v2h-2V8zm-2-4h2v2h-2V4zm-2-4h2v2h-2V0z" /></svg></g><g class="gotchi-wearable gotchi-secondary"><path d="M33 40v1h-1v-1h1z" /><path d="M29,42v1h2v-1h1v-1h-1v1H29z" /><path d="M29 43v1h-4v-1h4z" /></g></svg>