<svg xmlns="http://www.w3.org/2000/svg" xmlns="http://www.w3.org/2000/svg" viewBox="0 0 64 64"><g class="gotchi-wearable wearable-eyes"><svg x="20" y="22"><svg width="24" height="8"><path d="M24 0v8H0V0h24z" fill="#4d4d4d" /><path d="M7 1v6H1V1h6z" fill="#fff" /><path d="M24 1v6H8V1h16z" fill="#c5c5c5" /><path d="M10 2v4H9V2h1zm2 4h-1V2h1v4zm2 0h-1V2h1v4zm3-4v4h-2V2h2zm3 0v4h-2V2h2zm4 0v4h-3V2h3z" fill="#e3e3e3" /><path d="M6 2v4H2V2h4z" fill="#faf" /><path d="M5 3v2H3V3h2z" /></svg></svg></g><g class="gotchi-wearable gotchi-secondary"><path d="M33 40v1h-1v-1h1z" /><path d="M29,42v1h2v-1h1v-1h-1v1H29z" /><path d="M29 43v1h-4v-1h4z" /></g></svg>