<svg xmlns="http://www.w3.org/2000/svg" xmlns="http://www.w3.org/2000/svg" viewBox="0 0 64 64"><g class="gotchi-wearable wearable-body"><svg x="12" y="32"><g><path d="M3 1v20h34V1H3z" fill="#58595b" /><path d="M4 2v18h32V2H4z" /><g fill="#8bc53f"><path d="M28.1 7.9v6.2h3.8V7.9h-3.8zm2.5 5h-1.2V9.1h1.2v3.8zm-5-2.5h1.2V7.9h-1.2v2.5zM8.2 7.9v6.2H12v-3.8h-1.2v2.5H9.6V9h2.5V7.9H8.2zm11.1 0v1.2h2.5V7.9h-2.5z" /><path d="M24.4 7.9h-1.2v6.2h1.2v-2.5h1.2v-1.2h-1.2V7.9zm-6.3 5h1.2V9.1h-1.2v3.8z" /><path d="M25.6 14.1h1.2v-2.5h-1.2v2.5zm-3.8 0v-1.2h-2.5v1.2h2.5zM17 7.9h-3.8v6.2H17v-1.2h-2.5v-1.2H17v-1.2h-2.5V9.3H17V7.9z" /></g><g class="gotchi-sleeves gotchi-sleeves-left gotchi-sleeves-up"><path d="M3.5,1H2V0H0v7h1v1h1v1h1.5V1z" fill="#58595b" /><path d="M2,7v1h1V2H2V1H1v6H2z" /></g><path d="M3.5,1H2v1H1v1H0v7h2V9h1.5V1z" fill="#58595b" /><path d="M1,3v6h1V8h1V2H2v1H1z" /><g class="gotchi-sleeves gotchi-sleeves-right gotchi-sleeves-up"><path d="M36.5,9H38V8h1V7h1V0h-2v1h-1.5V9z" fill="#58595b" /><path d="M39 7V1h-1v1h-1v6h1V7h1z" /></g><path d="M36.5,9H38v1h2V3h-1V2h-1V1h-1.5V9z" fill="#58595b" /><path d="M38,3V2h-1v6h1v1h1V3H38z" /></g></svg></g></svg>