<svg xmlns="http://www.w3.org/2000/svg" xmlns="http://www.w3.org/2000/svg" viewBox="0 0 64 64"><g class="gotchi-wearable wearable-face"><svg x="19" y="19"><g fill="#7d0064"><path d="M27 8h2V6h-2v2z" /><path d="M27 0v2h-2v2H7V3H5V2H3V1H0v12h3v-1h2v-1h2v-1h18V6h2V4h2V0h-2z" /></g><path d="M7 5V4H5V3H3V2H0v4h2v2H0v4h3v-1h2v-1h2V9h18V5H7z" fill="#a73796" /><path d="M3 6V5H2V4H0v2h2v2H0v2h2V9h1V8h1V6H3z" fill="#fff" /></svg></g><g class="gotchi-wearable gotchi-secondary"><path d="M33 40v1h-1v-1h1z" /><path d="M29,42v1h2v-1h1v-1h-1v1H29z" /><path d="M29 43v1h-4v-1h4z" /></g></svg>