<svg xmlns="http://www.w3.org/2000/svg" xmlns="http://www.w3.org/2000/svg" viewBox="0 0 64 64"><g class="gotchi-wearable wearable-body"><svg x="20" y="33"><g><path d="M1 6h1V5h1V4h1V3h1V2h1V1h1V0h17v20H0V6h1z" /><linearGradient id="A" gradientUnits="userSpaceOnUse" x1="20.759" y1="21.474" x2="5.818" y2="1.902"><stop offset="0" stop-color="#ff0" /><stop offset="1" stop-color="#f0f" /></linearGradient><path d="M0 7h2V6h1V5h1V4h1V3h1V2h1V1h17v18H0V7z" fill="url(#A)" /></g></svg></g><g class="gotchi-wearable gotchi-secondary"><path d="M33 40v1h-1v-1h1z" /><path d="M29,42v1h2v-1h1v-1h-1v1H29z" /><path d="M29 43v1h-4v-1h4z" /></g></svg>