<svg xmlns="http://www.w3.org/2000/svg" xmlns="http://www.w3.org/2000/svg" viewBox="0 0 64 64"><g class="gotchi-wearable wearable-body"><svg x="20" y="33"><g><path d="M8,0v1H7v1H6v1H5v1H4v1H3v1H1v1H0v12h24V0H8z" fill="#1e1e1e" /><path d="M8 1v1H7v1H6v1H5v1H4v1H3v1H1v1H0v10h13V1H8zm6 0v17h9V1h-9z" /><g fill="#fff"><path d="M5 11v1h1v4h1v-4h1v-1H5zm-2 1h1v1H3v-1zm0 4h1v-2H3v2z" /><path d="M2,12v-1H1v5h1v-2h1v-1H2V12z" /></g></g></svg></g><g class="gotchi-wearable gotchi-secondary"><path d="M33 40v1h-1v-1h1z" /><path d="M29,42v1h2v-1h1v-1h-1v1H29z" /><path d="M29 43v1h-4v-1h4z" /></g></svg>