<svg xmlns="http://www.w3.org/2000/svg" xmlns="http://www.w3.org/2000/svg" viewBox="0 0 64 64"><g class="gotchi-wearable wearable-head"><svg x="19" y="8"><path d="M1 0v2h2v2h2v2h2v2h2V6h2v2h2V6h2v2h2V6h2v2h2V6h2v2h2V6h1v4H0V0h1z" fill="#ffc03c" /><path d="M1 3v1h1v1h1v2H2v1H1v1H0V3h1z" fill="#ffd781" /><path d="M1 4v1h1v2H1v1H0V4h1z" fill="#ffeabe" /><path d="M1 5v2H0V5h1z" fill="#64438e" /><path d="M0 5h1v1H0z" fill="#715398" /></svg></g><g class="gotchi-wearable gotchi-secondary"><path d="M33 40v1h-1v-1h1z" /><path d="M29,42v1h2v-1h1v-1h-1v1H29z" /><path d="M29 43v1h-4v-1h4z" /></g></svg>