<svg xmlns="http://www.w3.org/2000/svg" xmlns="http://www.w3.org/2000/svg" viewBox="0 0 64 64"><g class="gotchi-wearable wearable-face"><svg x="39" y="32"><svg width="6" height="7"><path d="M0 0v3h1v2h1v1h1v1h2V6h-.1V1H5V0H0z" fill="#e60000" /><path d="M1,1v1h1v3h1v1h2V1H1Z" fill="#fff" /><path d="M3 5h1V2H3v3zm2-3h1v1H5zm0 2h1v1H5z" fill="#737373" /><path d="M2 3v1h3V3H2z" fill="#d2d2d2" /></svg></svg></g><g class="gotchi-wearable gotchi-secondary"><path d="M32 40v1h-1v-1h1z" /><path d="M33 42v-1h-1v1h1v1h2v-1h-2z" /><path d="M39 43v1h-4v-1h4z" /></g></svg>