<svg xmlns="http://www.w3.org/2000/svg" xmlns="http://www.w3.org/2000/svg" viewBox="0 0 64 64"><g class="gotchi-wearable wearable-eyes"><svg x="44" y="15"><path d="M0 0v15h1V0H0z" fill="#0a040b" /><path d="M0 1v4h1V1H0z" fill="#323232" /><path d="M0 5v2h1V5H0z" fill="#0affff" /><path d="M0 9v4h1V9H0z" fill="#af00ff" /><path d="M0 2v2h1V2H0z" fill="#c5c8cf" /><path d="M0 1h1v1H0z" fill="#646464" /><path d="M0 10v2h1v-2H0z" fill="#f0f" /></svg></g><g class="gotchi-wearable gotchi-secondary"><path d="M32 40v1h-1v-1h1z" /><path d="M33 42v-1h-1v1h1v1h2v-1h-2z" /><path d="M39 43v1h-4v-1h4z" /></g></svg>