<svg xmlns="http://www.w3.org/2000/svg" xmlns="http://www.w3.org/2000/svg" viewBox="0 0 64 64"><g class="gotchi-wearable wearable-head"><svg x="12" y="0"><path d="M34 14v-2h-2V6h-2V4h-2V2h-2V0H14v2h-2v2h-2v2H8v6H6v2H0v4h2v2h36v-2h2v-4h-6z" /><g fill="#fcb040"><path d="M30 14v2h10v-2H30zM28 4h-2v2h2V4z" /><path d="M26 2H14v2h12V2zm4 4h-2v8h2V6zM0 14v2h10v-2H0z" /><path d="M10 6v8h2V6h-2z" /><path d="M12 4v2h2V4h-2z" /></g></svg></g><g class="gotchi-wearable gotchi-secondary"><path d="M33 40v1h-1v-1h1z" /><path d="M29,42v1h2v-1h1v-1h-1v1H29z" /><path d="M29 43v1h-4v-1h4z" /></g></svg>