<svg xmlns="http://www.w3.org/2000/svg" xmlns="http://www.w3.org/2000/svg" viewBox="0 0 64 64"><g class="gotchi-wearable wearable-body"><svg x="10" y="31"><g><path d="M5 2v20h34V2H5z" /><path d="M28 22h1v-2h-1v2zm-2 0h1v-2h-1v2zm-9 0h1v-2h-1v2zm-2 0h1v-2h-1v2zm23-2v2h1v-2h-1zm-2 2h1v-2h-1v2zM9 20v2h5v-2H9zm21 0v2h5v-2h-5zm-9 0v2h2v-2h-2zm-2 2h1v-2h-1v2zm5 0h1v-2h-1v2zM7 22h1v-2H7v2zm-2 0h1v-2H5v2zm7-15.5v10h2v-10h-2zm4 0v2h2v2h-2v2h2v2h-2v2h4v-10h-4zm6 0v2h2v2h-2v2h2v2h-2v2h4v-10h-4zm8 10h2v-10h-4v2h2v8z" fill="#0f0" /><g class="gotchi-sleeves gotchi-sleeves-left gotchi-sleeves-up"><path d="M40 10V9h1V8h1V7h2V0h-2v1h-2v1h-1.5v8H40z" /><g fill="#0f0"><path d="M42 5h1v1h-1zm0-2h1v1h-1z" /><path d="M43 4h1v1h-1zm0-2h1v1h-1zm0-2h1v1h-1z" /><path d="M42 1h1v1h-1zm1 5h1v1h-1z" /></g></g><path d="M40 2v1h1v1h1v1h2v7h-2v-1h-2v-1h-1.5V2H40z" /><g fill="#0f0"><path d="M42 6h1v1h-1zm0 2h1v1h-1z" /><path d="M43 7h1v1h-1zm0 2h1v1h-1zm0 2h1v1h-1z" /><path d="M42 10h1v1h-1zm1-5h1v1h-1z" /></g><g class="gotchi-sleeves gotchi-sleeves-right gotchi-sleeves-up"><path d="M4 10V9H3V8H2V7H0V0h2v1h2v1h1.5v8H4z" /><g fill="#0f0"><path d="M1 5h1v1H1zm0-2h1v1H1z" /><path d="M0 4h1v1H0zm0-2h1v1H0zm0-2h1v1H0z" /><path d="M1 1h1v1H1zM0 6h1v1H0z" /></g></g><path d="M4 2v1H3v1H2v1H0v7h2v-1h2v-1h1.5V2H4z" /><g fill="#0f0"><path d="M1 6h1v1H1zm0 2h1v1H1z" /><path d="M0 7h1v1H0zm0 2h1v1H0zm0 2h1v1H0z" /><path d="M1 10h1v1H1zM0 5h1v1H0z" /></g></g></svg></g></svg>