<svg xmlns="http://www.w3.org/2000/svg" xmlns="http://www.w3.org/2000/svg" viewBox="0 0 64 64"><g class="gotchi-wearable wearable-body"><svg x="10" y="31"><g><path d="M40 1V0H4v1h1v1h-.5v8H5v14h4v-2h5v2h5v-2h6v2h5v-2h5v2h4V10h.5V2H39V1h1z" fill="#3c0000" /><path d="M6 4v18h3v-2h5v2h5v-2h6v2h5v-2h5v2h3V4H6z" fill="#500" /><path d="M5 2v2h34V2H5z" fill="#fcb040" /><g class="gotchi-sleeves gotchi-sleeves-left gotchi-sleeves-up"><path d="M5.5 10V2H4V1H2V0H0v7h2v1h1v1h1v1h1.5z" fill="#3c0000" /><path d="M2 7V0H1v7h1z" fill="#fcb040" /><path d="M5 9V3H4v6h1zM2 7h1V2H2v4 1z" fill="#500" /><path d="M5,2v2h1V2H5z" fill="#fcb040" /></g><path d="M5.5 2v8H4v1H2v1H0V5h2V4h1V3h1V2h1.5z" fill="#3c0000" /><path d="M2,5v7H1V5H2z" fill="#fcb040" /><path d="M5 3v6H4V3h1zM2 5h1v5H2V6 5z" fill="#500" /><path d="M5,2v2h1V2H5z" fill="#fcb040" /><g class="gotchi-sleeves gotchi-sleeves-right gotchi-sleeves-up"><path d="M40,10V9h1V8h1V7h2V0h-2v1h-2v1h-1.5v8H40z" fill="#3c0000" /><path d="M43 7V0h-1v7h1z" fill="#fcb040" /><path d="M40 9V3h-1v6h1zm2-3V2h-1v5h1V6z" fill="#500" /><path d="M38,2v2h1V2H38z" fill="#fcb040" /></g><path d="M40,2v1h1v1h1v1h2v7h-2v-1h-2v-1h-1.5V2H40z" fill="#3c0000" /><path d="M43 5v7h-1V5h1z" fill="#fcb040" /><path d="M40 3v6h-1V3h1zm2 3v4h-1V5h1v1z" fill="#500" /><path d="M38,2v2h1V2H38z" fill="#fcb040" /></g></svg></g></svg>