<?xml version="1.0" encoding="UTF-8"?>
<svg width="64" height="64" viewBox="0 0 64 64" xmlns="http://www.w3.org/2000/svg">
  <defs>
    <style>
      .gotchi-primary { fill: 0x26a17b; }
      .gotchi-secondary { fill: 0xaedcce; }
      .gotchi-cheek { fill: 0xf696c6; }
      .gotchi-collateral { fill: 0x26a17b; }
      .gotchi-eyeColor { fill: 0x26a17b; }
      .gotchi-shadow { fill: #000000; }
    </style>
  </defs>
  <g class="gotchi-eyeColor gotchi-primary"><path d="M38 27h2v3h-2zm0-2v1h2v-1h3v-1h-3v-1h2v-2h-6v2h2v1h-3v1z"/><path d="M34 25h1v1h-1z"/><path d="M35 26h3v1h-3zm8-1h1v1h-1z"/><path d="M40 26h3v1h-3zm-16 1h2v3h-2zm0-2v1h2v-1h3v-1h-3v-1h2v-2h-6v2h2v1h-3v1z"/><path d="M20 25h1v1h-1z"/><path d="M21 26h3v1h-3zm8-1h1v1h-1z"/><path d="M26 26h3v1h-3z"/></g>
</svg>