<svg xmlns="http://www.w3.org/2000/svg" xmlns="http://www.w3.org/2000/svg" viewBox="0 0 64 64"><g class="gotchi-wearable wearable-face"><svg x="38" y="32"><svg width="5" height="3"><path d="M4 1V0H0v1h1v1h1v1h3V1H4z" fill="#fff" /><g fill="#ff5fc8"><path d="M4 1h1v1H4z" /><path d="M3 0h1v1H3zM2 2h1v1H2z" /><path d="M1 1h1v1H1z" /><path d="M0 0h1v1H0z" /></g></svg></svg></g><g class="gotchi-wearable gotchi-secondary"><path d="M32 40v1h-1v-1h1z" /><path d="M33 42v-1h-1v1h1v1h2v-1h-2z" /><path d="M39 43v1h-4v-1h4z" /></g></svg>