<svg xmlns="http://www.w3.org/2000/svg" xmlns="http://www.w3.org/2000/svg" viewBox="0 0 64 64"><g class="gotchi-wearable wearable-body"><svg x="12" y="32"><g><path d="M2.5 1v8H3v14h4v-2h5v2h5v-2h6v2h5v-2h5v2h4V9h.5V1h-35z" fill="#141b30" /><path d="M4,2v18h32V2H4z" fill="#343a4c" /><g class="gotchi-sleeves gotchi-sleeves-left gotchi-sleeves-up"><path d="M2,9V8H1V7H0V0h2v1h1.5v8H2z" fill="#141b30" /><path d="M2,8V7H1V1h1v1h1v6H2z" fill="#343a4c" /></g><path d="M2,1v1H1v1H0v7h2V9h1.5V1H2z" fill="#141b30" /><path d="M2,2v1H1v6h1V8h1V2H2z" fill="#343a4c" /><g class="gotchi-sleeves gotchi-sleeves-right gotchi-sleeves-up"><path d="M38,9V8h1V7h1V0h-2v1h-1.5v8H38z" fill="#141b30" /><path d="M38 8V7h1V1h-1v1h-1v6h1z" fill="#343a4c" /></g><path d="M38,1v1h1v1h1v7h-2V9h-1.5V1H38z" fill="#141b30" /><path d="M38 2v1h1v6h-1V8h-1V2h1z" fill="#343a4c" /></g></svg></g></svg>