<svg xmlns="http://www.w3.org/2000/svg" xmlns="http://www.w3.org/2000/svg" viewBox="0 0 64 64"><g class="gotchi-wearable wearable-hand wearable-hand-left"><svg x="36" y="25"><path d="M3 5V2H2V1H1V0H0v18h3v-5h1V5H3z" fill="#0e0c15" /><path d="M2 5V2H1v15h1v-5h1V5H2z" fill="#999" /><g fill="#ccc"><path d="M2 2H1v3h1V2z" /><path d="M2 5v7h1V5H2z" /></g><path d="M1 12v5h1v-5H1z" fill="#8c6238" /></svg></g><g class="gotchi-wearable gotchi-secondary"><path d="M32 40v1h-1v-1h1z" /><path d="M33 42v-1h-1v1h1v1h2v-1h-2z" /><path d="M39 43v1h-4v-1h4z" /></g></svg>