<svg xmlns="http://www.w3.org/2000/svg" xmlns="http://www.w3.org/2000/svg" viewBox="0 0 64 64"><g class="gotchi-wearable wearable-body"><svg x="20" y="31"><g><path d="M23 8h-1V6h-2V4h-2V2H0v22h23v1h1V8h-1z" fill="#762b26" /><path d="M23 18H10v1h14v-1h-1zM7 18H0v1h9v-1H7z" fill="#eeecdf" /><path d="M23 10h-1V8h-2V6h-2V4h-8v13h14v-7h-1zm-1 10H10v2h14v-2h-2zM7 4H0v13h9V4H7zm0 16H0v2h9v-2H7z" fill="#eb564b" /></g></svg></g><g class="gotchi-wearable gotchi-secondary"><path d="M32 40v1h-1v-1h1z" /><path d="M33 42v-1h-1v1h1v1h2v-1h-2z" /><path d="M39 43v1h-4v-1h4z" /></g></svg>