<svg xmlns="http://www.w3.org/2000/svg" xmlns="http://www.w3.org/2000/svg" viewBox="0 0 64 64"><g class="gotchi-wearable wearable-head"><svg x="20" y="6"><path d="M1 8V6h2V4h2V2h4V0h6v2h4v2h2v2h2v2h1v19H12v-1H0V8h1z" fill="#0f5a87" /><path d="M1 9V8h2V6h2V4h4V2h6v2h4v2h2v2h2v19h-9v-9h2v-2h2V6h-4v2h-2v18H0v-2h2v-2h2v-4H2v-2H0V9h1z" fill="#0fa9c9" /><g fill="#fff"><path d="M16 8v8h-2V8h2zM2 16v2H0v-2h2z" /><path d="M4 18v2H2v-2h2z" /></g></svg></g><g class="gotchi-wearable gotchi-secondary"><path d="M33 40v1h-1v-1h1z" /><path d="M29,42v1h2v-1h1v-1h-1v1H29z" /><path d="M29 43v1h-4v-1h4z" /></g></svg>