<svg xmlns="http://www.w3.org/2000/svg" xmlns="http://www.w3.org/2000/svg" viewBox="0 0 64 64"><g class="gotchi-wearable wearable-body"><svg x="11" y="31"><g><path d="M4,2v22h4v-2h5v2h5v-2h6v2h5v-2h5v2h4V2H4z" fill="#0050aa" /><path d="M4,3v7h1v13h2v-1h1v-1h26v1h1v1h2V10h1V3H4z" fill="#00a0e6" /><g fill="#00beff"><path d="M16 16h1v1h-1v-1zm8 0h1v1h-1v-1zm-10 0h1v1h-1v-1zm12 0h1v1h-1v-1zm2 0h1v1h-1v-1zm-12 2h1v1h-1v-1zm8 0h1v1h-1v-1zm2 2h1v1h-1v-1zm-2 0h1v1h-1v-1zm4 0h1v1h-1v-1zm-14 0h1v1h-1v-1zm2 0h1v1h-1v-1zm-2-2h1v1h-1v-1zm12 0h1v1h-1v-1zm2 0h1v1h-1v-1zm-10-2h1v1h-1v-1z" /><path d="M18 10h1v1h-1v-1zm0 2h1v1h-1v-1zm0 2h1v1h-1v-1zm0 4h1v1h-1v-1zm2-2h1v1h-1v-1zm0-4h1v1h-1v-1zm0 2h1v1h-1v-1zm0 4h1v1h-1v-1zm-2 2h1v1h-1v-1zm5-3h1v1h-1v-1z" /><path d="M22 16h1v1h-1v-1zM8 16h1v1H8v-1z" /><path d="M9 17h1v1H9v-1zm-4 0h1v1H5v-1zm2-2h1v1H7v-1z" /><path d="M6 14h1v1H6v-1zm3-1h1v1H9v-1z" /><path d="M8 12h1v1H8v-1zm3-1h1v1h-1v-1z" /><path d="M10 10h1v1h-1v-1zM5 9h1v1H5V9z" /><path d="M4,8h1v1H4V8z" /><path d="M5,7h1v1H5V7z" /><path d="M4 6h1v1H4V6zm1 5h1v1H5v-1zm2 0h1v1H7v-1z" /><path d="M6 10h1v1H6v-1zm-1 3h1v1H5v-1zm0 2h1v1H5v-1zm2-2h1v1H7v-1z" /><path d="M6 12h1v1H6v-1zm3-1h1v1H9v-1z" /><path d="M8 10h1v1H8v-1zm29-1h1v1h-1V9z" /><path d="M36,8h1v1h-1V8z" /><path d="M37,7h1v1h-1V7z" /><path d="M36,6h1v1h-1V6z" /><path d="M37,5h1v1h-1V5z" /><path d="M36,4h1v1h-1V4z" /><path d="M37 3h1v1h-1V3zM5 5h1v1H5V5z" /><path d="M4 4h1v1H4V4zm3 13h1v1H7v-1z" /><path d="M6 16h1v1H6v-1zm3-1h1v1H9v-1z" /><path d="M8 14h1v1H8v-1zm3 1h1v1h-1v-1z" /><path d="M10 14h1v1h-1v-1zm3-1h1v1h-1v-1z" /><path d="M12,12h1v1h-1V12z" /><path d="M11,13h1v1h-1V13z" /><path d="M10 12h1v1h-1v-1zm5 1h1v1h-1v-1z" /><path d="M14 12h1v1h-1v-1zm3-1h1v1h-1v-1z" /><path d="M16,10h1v1h-1V10z" /><path d="M15,11h1v1h-1V11z" /><path d="M14,10h1v1h-1V10z" /><path d="M13,11h1v1h-1V11z" /><path d="M12 10h1v1h-1v-1zm11 1h1v1h-1v-1z" /><path d="M22 10h1v1h-1v-1zm3 1h1v1h-1v-1z" /><path d="M24 10h1v1h-1v-1zm3 1h1v1h-1v-1z" /><path d="M26 10h1v1h-1v-1zm3 1h1v1h-1v-1z" /><path d="M28 10h1v1h-1v-1zm-1 3h1v1h-1v-1z" /><path d="M26 12h1v1h-1v-1zm5 3h1v1h-1v-1z" /><path d="M30 14h1v1h-1v-1zm5 3h1v1h-1v-1z" /><path d="M34 16h1v1h-1v-1zm2 0h1v1h-1v-1z" /><path d="M35,15h1v1h-1V15z" /><path d="M34,14h1v1h-1V14z" /><path d="M33,13h1v1h-1V13z" /><path d="M32,12h1v1h-1V12z" /><path d="M31,11h1v1h-1V11z" /><path d="M30 10h1v1h-1v-1zm3 1h1v1h-1v-1z" /><path d="M32 10h1v1h-1v-1zm3 1h1v1h-1v-1z" /><path d="M34 10h1v1h-1v-1zm2 0h1v1h-1v-1zm-1 3h1v1h-1v-1z" /><path d="M34 12h1v1h-1v-1zm2 0h1v1h-1v-1zm0 2h1v1h-1v-1zm-3 1h1v1h-1v-1z" /><path d="M32 14h1v1h-1v-1zm-3-1h1v1h-1v-1z" /><path d="M28 12h1v1h-1v-1zm3 1h1v1h-1v-1z" /><path d="M30 12h1v1h-1v-1zm-20 4h1v1h-1v-1z" /><path d="M11 17h1v1h-1v-1zm6-4h1v1h-1v-1z" /><path d="M16 12h1v1h-1v-1zm-2 2h1v1h-1v-1zm-2 0h1v1h-1v-1zm20 2h1v1h-1v-1z" /><path d="M33 17h1v1h-1v-1zm-3-1h1v1h-1v-1zm-5-3h1v1h-1v-1zm-2 0h1v1h-1v-1z" /><path d="M29 15h1v1h-1v-1zm2 2h1v1h-1v-1zm-7-5h1v1h-1v-1zm-2 0h1v1h-1v-1z" /><path d="M26 14h1v1h-1v-1zm2 0h1v1h-1v-1zm-16 2h1v1h-1v-1zm4-2h1v1h-1v-1zm7 1h1v1h-1v-1zm6 2h1v1h-1v-1zm-6 2h1v1h-1v-1z" /><path d="M22 18h1v1h-1v-1zM8 18h1v1H8v-1z" /><path d="M9 19h1v1H9v-1zm-4 0h1v1H5v-1zm2 0h1v1H7v-1z" /><path d="M6 18h1v1H6v-1zm29 1h1v1h-1v-1z" /><path d="M34 18h1v1h-1v-1zm2 0h1v1h-1v-1zm-1 3h1v1h-1v-1z" /><path d="M34 20h1v1h-1v-1zm2 0h1v1h-1v-1zm-6 0h1v1h-1v-1zm2 0h1v1h-1v-1zm4 2h1v1h-1v-1zm-16-2h1v1h-1v-1zm1-5h1v1h-1v-1zm0 2h1v1h-1v-1z" /><path d="M21 11h1v1h-1v-1zm0 2h1v1h-1v-1zm0 6h1v1h-1v-1z" /><path d="M22 20h1v1h-1v-1zM6 22h1v1H6v-1zm4-4h1v1h-1v-1z" /><path d="M11 19h1v1h-1v-1zm21-1h1v1h-1v-1z" /><path d="M33 19h1v1h-1v-1zm-3-1h1v1h-1v-1z" /><path d="M31 19h1v1h-1v-1zm-19-1h1v1h-1v-1zm-4 2h1v1H8v-1zm2 0h1v1h-1v-1zm2 0h1v1h-1v-1zm-6 0h1v1H6v-1z" /><path d="M5 21h1v1H5v-1zm2 0h1v1H7v-1zm22-2h1v1h-1v-1zm-7-5h1v1h-1v-1zm2 0h1v1h-1v-1zm-4-4h1v1h-1v-1zm-3 5h1v1h-1v-1zm-2 2h1v1h-1v-1z" /><path d="M13 17h1v1h-1v-1zm4 0h1v1h-1v-1zm8 0h1v1h-1v-1zm-10-2h1v1h-1v-1zm-2 0h1v1h-1v-1zm14 0h1v1h-1v-1zm-2 0h1v1h-1v-1zm2 2h1v1h-1v-1zm-12 2h1v1h-1v-1zm-2 0h1v1h-1v-1zm4 0h1v1h-1v-1zm8 0h1v1h-1v-1zm2 0h1v1h-1v-1zM5 3h1v1H5V3zm14 12h1v1h-1v-1zm0 2h1v1h-1v-1zm0-6h1v1h-1v-1zm-1-3h1v1h-1V8zm-7 1h1v1h-1V9z" /><path d="M10 8h1v1h-1V8zM7 9h1v1H7V9z" /><path d="M6 8h1v1H6V8zm3 1h1v1H9V9z" /><path d="M8 8h1v1H8V8zm9 1h1v1h-1V9z" /><path d="M16,8h1v1h-1V8z" /><path d="M15,9h1v1h-1V9z" /><path d="M14,8h1v1h-1V8z" /><path d="M13,9h1v1h-1V9z" /><path d="M12 8h1v1h-1V8zm11 1h1v1h-1V9z" /><path d="M22 8h1v1h-1V8zm3 1h1v1h-1V9z" /><path d="M24 8h1v1h-1V8zm3 1h1v1h-1V9z" /><path d="M26 8h1v1h-1V8zm3 1h1v1h-1V9z" /><path d="M28 8h1v1h-1V8zm3 1h1v1h-1V9z" /><path d="M30 8h1v1h-1V8zm3 1h1v1h-1V9z" /><path d="M32 8h1v1h-1V8zm3 1h1v1h-1V9z" /><path d="M34 8h1v1h-1V8zM21 9h1v1h-1V9z" /><path d="M20,8h1v1h-1V8z" /><path d="M19 9h1v1h-1V9zm-1-3h1v1h-1V6zm-7 1h1v1h-1V7z" /><path d="M10 6h1v1h-1V6zM7 7h1v1H7V7z" /><path d="M6 6h1v1H6V6zm3 1h1v1H9V7z" /><path d="M8 6h1v1H8V6zm9 1h1v1h-1V7z" /><path d="M16,6h1v1h-1V6z" /><path d="M15,7h1v1h-1V7z" /><path d="M14,6h1v1h-1V6z" /><path d="M13,7h1v1h-1V7z" /><path d="M12 6h1v1h-1V6zm11 1h1v1h-1V7z" /><path d="M22 6h1v1h-1V6zm3 1h1v1h-1V7z" /><path d="M24 6h1v1h-1V6zm3 1h1v1h-1V7z" /><path d="M26 6h1v1h-1V6zm3 1h1v1h-1V7z" /><path d="M28 6h1v1h-1V6zm3 1h1v1h-1V7z" /><path d="M30 6h1v1h-1V6zm3 1h1v1h-1V7z" /><path d="M32 6h1v1h-1V6zm3 1h1v1h-1V7z" /><path d="M34 6h1v1h-1V6zM21 7h1v1h-1V7z" /><path d="M20,6h1v1h-1V6z" /><path d="M19 7h1v1h-1V7zm-1-3h1v1h-1V4zm-7 1h1v1h-1V5z" /><path d="M10 4h1v1h-1V4zM7 5h1v1H7V5z" /><path d="M6 4h1v1H6V4zm3 1h1v1H9V5z" /><path d="M8 4h1v1H8V4zm9 1h1v1h-1V5z" /><path d="M16,4h1v1h-1V4z" /><path d="M15,5h1v1h-1V5z" /><path d="M14,4h1v1h-1V4z" /><path d="M13,5h1v1h-1V5z" /><path d="M12 4h1v1h-1V4zm11 1h1v1h-1V5z" /><path d="M22 4h1v1h-1V4zm3 1h1v1h-1V5z" /><path d="M24 4h1v1h-1V4zm3 1h1v1h-1V5z" /><path d="M26 4h1v1h-1V4zm3 1h1v1h-1V5z" /><path d="M28 4h1v1h-1V4zm3 1h1v1h-1V5z" /><path d="M30 4h1v1h-1V4zm3 1h1v1h-1V5z" /><path d="M32 4h1v1h-1V4zm3 1h1v1h-1V5z" /><path d="M34 4h1v1h-1V4zM21 5h1v1h-1V5z" /><path d="M20,4h1v1h-1V4z" /><path d="M19 5h1v1h-1V5zm-8-2h1v1h-1V3zM7 3h1v1H7V3zm2 0h1v1H9V3zm8 0h1v1h-1V3zm-2 0h1v1h-1V3zm-2 0h1v1h-1V3zm10 0h1v1h-1V3zm2 0h1v1h-1V3zm2 0h1v1h-1V3zm2 0h1v1h-1V3zm2 0h1v1h-1V3zm2 0h1v1h-1V3zm2 0h1v1h-1V3zM21 3h1v1h-1V3zm-2 0h1v1h-1V3zm0 10h1v1h-1v-1zm0 6h1v1h-1v-1z" /></g><g class="gotchi-sleeves gotchi-sleeves-left gotchi-sleeves-up"><path d="M4.5,10V2H3V1H1V0H0v7h1v1h1v1h1v1H4.5z" fill="#0050aa" /><path d="M4,9v1h1V9V3H3V2H1v5h1v1h1v1H4z" fill="#00beff" /><g fill="#00a0e6"><path d="M1,4h1v1H1V4z" /><path d="M2 3h1v1H2V3zM1 2h1v1H1V2zm1 5h1v1H2V7z" /><path d="M3 8h1v1H3V8zm0-2h1v1H3V6z" /><path d="M4 7h1v1H4V7zm0 2h1v1H4V9zm0-4h1v1H4V5zM2 5h1v1H2V5z" /><path d="M1 6h1v1H1V6zm2-2h1v1H3V4zm1-1h1v1H4V3z" /></g></g><path d="M3 2v1H2v1H1v1H0v7h1v-1h2v-1h2V2H3z" fill="#0050aa" /><path d="M3,3v1H2v1H1v5h2V9h2V3H3z" fill="#00beff" /><g fill="#00a0e6"><path d="M1,8h1v1H1V8z" /><path d="M2 9h1v1H2V9zm0-4h1v1H2V5z" /><path d="M3 4h1v1H3V4zm0 2h1v1H3V6z" /><path d="M4 5h1v1H4V5zm0-2h1v1H4V3zm0 4h1v1H4V7zM2 7h1v1H2V7z" /><path d="M1 6h1v1H1V6zm2 2h1v1H3V8zm1 1h1v1H4V9z" /></g><g class="gotchi-sleeves gotchi-sleeves-right gotchi-sleeves-up"><path d="M39,10V9h1V8h1V7h1V0h-1v1h-2v1h-1.5v8H39z" fill="#0050aa" /><path d="M39 9V8h1V7h1V2h-2v1h-2v6 1h1V9h1z" fill="#00beff" /><g fill="#00a0e6"><path d="M41,4h-1V3h1V4z" /><path d="M40 3h-1V2h1v1zm0 4h-1V6h1v1z" /><path d="M39 8h-1V7h1v1zm0-2h-1V5h1v1z" /><path d="M38 7h-1V6h1v1zm0 2h-1V8h1v1zm0-4h-1V4h1v1zm2 0h-1V4h1v1z" /><path d="M41 6h-1V5h1v1zm-2-2h-1V3h1v1z" /></g></g><path d="M37,2v8h2v1h2v1h1V5h-1V4h-1V3h-1V2H37z" fill="#0050aa" /><path d="M37,3v7h1V9h1v1h2V5h-1V4h-1V3H37z" fill="#00beff" /><g fill="#00a0e6"><path d="M41,8h-1V7h1V8z" /><path d="M40 9h-1V8h1v1zm1 1h-1V9h1v1zm-1-5h-1V4h1v1z" /><path d="M39 4h-1V3h1v1zm0 2h-1V5h1v1z" /><path d="M38 5h-1V4h1v1zm0 2h-1V6h1v1zm2 0h-1V6h1v1z" /><path d="M41 6h-1V5h1v1zm-2 2h-1V7h1v1zm-1 1h-1V8h1v1z" /></g></g></svg></g></svg>