<svg xmlns="http://www.w3.org/2000/svg" xmlns="http://www.w3.org/2000/svg" viewBox="0 0 64 64"><g class="gotchi-wearable wearable-face"><svg x="43" y="28"><svg width="14" height="14"><path d="M1 5V3h1V2h1V1h2V0h4v1h2v1h1v1h1v2h1v4h-1v2h-1v1h-1v1H9v1H5v-1H3v-1H2v-1H1V9H0V5h1z" fill="#f0f" /><path d="M2 5V3h1V2h2V1h4v1h2v1h1v2h1v4h-1v2h-1v1H9v1H5v-1H3v-1H2V9H1V5h1z" fill="#ff78ff" /><path d="M10 3v1h1v2h-1V5H9V4H8V3h2z" fill="#fff" /><g fill="#ff46ff"><path d="M5 11v1H3v-1h2zM2 5v4H1V5h1z" /><path d="M3 11H2V9h1v2zm6 1v1H5v-1h4z" /></g></svg></svg></g><g class="gotchi-wearable gotchi-secondary"><path d="M32 40v1h-1v-1h1z" /><path d="M33 42v-1h-1v1h1v1h2v-1h-2z" /><path d="M39 43v1h-4v-1h4z" /></g></svg>