<svg xmlns="http://www.w3.org/2000/svg" xmlns="http://www.w3.org/2000/svg" viewBox="0 0 64 64"><g class="gotchi-wearable wearable-eyes"><svg x="20" y="20"><path d="M2 0v1h1v1h1v1h1v1h1v4H5v1H4v1H3v1H2v1H0V0h2z" fill="#326400" /><path d="M2 1v1h1v1h1v1h1v4H4v1H3v1H2v1H0V1h2z" fill="#8bc53f" /><path d="M2 2v1h1v1h1v4H3v1H2v1H0V2h2z" fill="#f9e988" /><path d="M1 3h1v1h1v4H2v1H0V3h1z" fill="#fff" /><path d="M1 3v6H0V3h1z" fill="#58595b" /></svg></g><g class="gotchi-wearable gotchi-secondary"><path d="M33 40v1h-1v-1h1z" /><path d="M29,42v1h2v-1h1v-1h-1v1H29z" /><path d="M29 43v1h-4v-1h4z" /></g></svg>