<svg xmlns="http://www.w3.org/2000/svg" xmlns="http://www.w3.org/2000/svg" viewBox="0 0 64 64"><svg x="20" y="28"><g class="gotchi-sleeves gotchi-sleeves-right gotchi-sleeves-down"><path d="M10 2v8h2V3l-1-1h-1z" fill="#1e6f50" /><path d="M14 4V3h-1V2h-2v9h1v1h1v1h2V4h-1z" fill="#134c4c" /><path d="M13 4V3h-1v8h1v1h1V4h-1z" fill="#1e6f50" /><g fill="#33984b"><path d="M12 3h1v1h-1z" /><path d="M13 4h1v1h-1z" /><path d="M12 5h1v1h-1z" /><path d="M13 6h1v1h-1z" /><path d="M12 7h1v1h-1z" /><path d="M13 8h1v1h-1z" /><path d="M12 9h1v1h-1z" /><path d="M13 10h1v1h-1zm-3-7h1v1h-1zm0 2h1v1h-1zm0 2h1v1h-1zm0 2h1v1h-1z" /></g></g></svg></svg>