<svg xmlns="http://www.w3.org/2000/svg" xmlns="http://www.w3.org/2000/svg" viewBox="0 0 64 64"><g class="gotchi-wearable wearable-face"><svg x="41" y="33"><path d="M2 0v1H1v1H0v6h1V7h1V5h1V4h1V0H2z" fill="#aaa" /><g fill="#e1e1e1"><path d="M2 2h1v1H2z" /><path d="M3 1h1v1H3z" /></g><g fill="#919191"><path d="M3 3h1v1H3z" /><path d="M2 4h1v1H2z" /><path d="M1 7h1V5H1v2z" /><path d="M0 7h1v1H0z" /></g></svg></g><g class="gotchi-wearable gotchi-secondary"><path d="M32 40v1h-1v-1h1z" /><path d="M33 42v-1h-1v1h1v1h2v-1h-2z" /><path d="M39 43v1h-4v-1h4z" /></g></svg>