<svg xmlns="http://www.w3.org/2000/svg" xmlns="http://www.w3.org/2000/svg" viewBox="0 0 64 64"><g class="gotchi-wearable wearable-body"><svg x="20" y="41"><path d="M0 0v14h3v-2h3v2h4v-2h4v2h4v-2h3v2h3V0H0z" fill="#001e6e" /><g fill="#334b8b"><path d="M23 3v1h-3v4h1v1h2v3h-2v-2h-2V3h4zM3 3h2v3H3V3z" /><path d="M21 5h2v3h-2V5zm-3-2v9h-4v-2h-2V3h6zm-7 0v7h-1v2H6V3h5zM2 3v3h1v1h2v3H3v2H1V3h1z" /></g><path d="M17 1v1h-4V1h4zm6 0v1h-5V1h5zM6 1v1H1V1h5zm6 0v1H7V1h5z" fill="#a97955" /></svg></g><g class="gotchi-wearable gotchi-secondary"><path d="M33 40v1h-1v-1h1z" /><path d="M29,42v1h2v-1h1v-1h-1v1H29z" /><path d="M29 43v1h-4v-1h4z" /></g></svg>