<svg xmlns="http://www.w3.org/2000/svg" xmlns="http://www.w3.org/2000/svg" viewBox="0 0 64 64"><g class="gotchi-wearable wearable-body"><svg x="20" y="33"><g><path d="M23 7V6h-2V5h-1V4h-1V3h-1V2h-1V1h-1V0H0v20h24V7h-1z" fill="#960000" /><path d="M23 8V7h-2V6h-1V5h-1V4h-1V3h-1V2h-1V1h-6v18h14V8h-1zM0 1v18h9V1H0z" fill="red" /><g fill="#ffc900"><path d="M22 11h-1v4h1v-4zm1 0v4h1v-4h-1z" /><path d="M22 15h1v1h-1z" /></g></g></svg></g><g class="gotchi-wearable gotchi-secondary"><path d="M32 40v1h-1v-1h1z" /><path d="M33 42v-1h-1v1h1v1h2v-1h-2z" /><path d="M39 43v1h-4v-1h4z" /></g></svg>