<svg xmlns="http://www.w3.org/2000/svg" xmlns="http://www.w3.org/2000/svg" viewBox="0 0 64 64"><g class="gotchi-wearable wearable-body"><svg x="20" y="31"><g><path d="M23 8V7h-2V6h-1V5h-1V4h-1V3h-1V2H0v22h24V8h-1z" /><path d="M0 15v3h24v-3H0z" fill="#fff" /><path d="M23 9V8h-2V7h-1V6h-1V5h-1V4h-1V3H0v11h24V9h-1zM0 19v3h24v-3H0z" fill="red" /><path d="M2 7.5v-2H0v6h2v-2h2v-2H2z" /><path d="M0 7.5v2h2v-2H0z" fill="#ff0" /></g></svg></g><g class="gotchi-wearable gotchi-secondary"><path d="M32 40v1h-1v-1h1z" /><path d="M33 42v-1h-1v1h1v1h2v-1h-2z" /><path d="M39 43v1h-4v-1h4z" /></g></svg>