<svg xmlns="http://www.w3.org/2000/svg" xmlns="http://www.w3.org/2000/svg" viewBox="0 0 64 64"><g class="gotchi-wearable wearable-body"><svg x="20" y="33"><g><path d="M1 7V6h2V5h1V4h1V3h1V2h1V1h1V0h16v20H0V7h1z" fill="#960000" /><path d="M1 8V7h2V6h1V5h1V4h1V3h1V2h1V1h6v18H0V8h1zm23-7v18h-9V1h9z" fill="red" /><path d="M0 11v5h1v-5H0z" fill="#ffc900" /></g></svg></g><g class="gotchi-wearable gotchi-secondary"><path d="M33 40v1h-1v-1h1z" /><path d="M29,42v1h2v-1h1v-1h-1v1H29z" /><path d="M29 43v1h-4v-1h4z" /></g></svg>