<svg xmlns="http://www.w3.org/2000/svg" xmlns="http://www.w3.org/2000/svg" viewBox="0 0 64 64"><g class="gotchi-wearable wearable-eyes"><svg x="19" y="21"><path d="M8 1v7H0V1h8z" fill="#f0f" /><path d="M8 1v2H0V1h8z" fill="#d700ff" /><path d="M3 2v5H2V2h1z" opacity=".4" fill="#fff" enable-background="new" /><path d="M25 0v5H9v3H8v1H0V7h7V2H0V0h25z" fill="#c8c8c8" /><path d="M25 2v1H9V2h16z" fill="#aaa" /></svg></g><g class="gotchi-wearable gotchi-secondary"><path d="M33 40v1h-1v-1h1z" /><path d="M29,42v1h2v-1h1v-1h-1v1H29z" /><path d="M29 43v1h-4v-1h4z" /></g></svg>