<svg xmlns="http://www.w3.org/2000/svg" xmlns="http://www.w3.org/2000/svg" viewBox="0 0 64 64"><g class="gotchi-wearable wearable-head"><svg x="20" y="8"><path d="M29 23v-2h-1v-2h-1v-2h-1V4h-1V2h-2V0h-8v2h-2v2h-2v9H0v2h11v10h2v2h2v2h2v2h2v2h2v2h6v-6h-1v-4h3v-1h1v-1h-1z" /><path d="M28 23v-2h-1v-2h-1v-2h-7v-2h-2v-2h2v2h2v-2h5v-2h-2V9h-4v2h-2V9h2V7h6V6h-1V4h-2V2h-8v2h-2v21h2v2h2v2h2v2h2v2h5v-4h-3v-2h-2v-2h-2v-4h2v2h2v2h3v-1h3v-1h-1z" fill="#fff" /></svg></g><g class="gotchi-wearable gotchi-secondary"><path d="M32 40v1h-1v-1h1z" /><path d="M33 42v-1h-1v1h1v1h2v-1h-2z" /><path d="M39 43v1h-4v-1h4z" /></g></svg>