<svg xmlns="http://www.w3.org/2000/svg" xmlns="http://www.w3.org/2000/svg" viewBox="0 0 64 64"><g class="gotchi-wearable wearable-eyes"><svg x="38" y="20"><path d="M4 0v1H2v1H1v2H0v4h1v2h1v1h2v1h2V0H4z" fill="#fff" /><g fill="#4309d7"><path d="M5 3h1V2H4v1h1zm1-2V0H4v1h2zM1 6V4H0v4h1V6z" /><path d="M2 3V2H1v2h1V3z" /><path d="M3 1H2v1h2V1H3zm1 10v1h2v-1H4zM3 3h1v1H3z" /><path d="M2 5v3H1v2h1v1h1v-1h1V9h1V8h1V4H5v1H4v2H3V4H2v1z" /><path d="M5 9h1v1H5z" /></g></svg></g><g class="gotchi-wearable gotchi-secondary"><path d="M32 40v1h-1v-1h1z" /><path d="M33 42v-1h-1v1h1v1h2v-1h-2z" /><path d="M39 43v1h-4v-1h4z" /></g></svg>