<svg xmlns="http://www.w3.org/2000/svg" xmlns="http://www.w3.org/2000/svg" viewBox="0 0 64 64"><g class="gotchi-wearable wearable-body"><svg x="20" y="33"><g><path d="M22,6V5h-1V4h-1V3h-1V2h-1V1h-1V0H0v20h24V6H22z" fill="#7d7d7d" /><path d="M22,7V6h-1V5h-1V4h-1V3h-1V2h-1V1H1v18h23V7H22z" /><path d="M23 19h1v-5h-1v5zM19 8v3h2v1h-2v1h3v-3h-2V9h2V8h-3zm4 0v5h1V8h-1zm-4 6v5h1v-2h1v2h1v-5h-3zm2 2h-1v-1h1v1z" fill="#7d7d7d" /></g></svg></g><g class="gotchi-wearable gotchi-secondary"><path d="M32 40v1h-1v-1h1z" /><path d="M33 42v-1h-1v1h1v1h2v-1h-2z" /><path d="M39 43v1h-4v-1h4z" /></g></svg>