<svg xmlns="http://www.w3.org/2000/svg" xmlns="http://www.w3.org/2000/svg" viewBox="0 0 64 64"><g class="gotchi-wearable wearable-body"><svg x="20" y="33"><g><path d="M23 6h-1V5h-1V4h-1V3h-1V2h-1V1h-1V0H0v20h24V6h-1z" /><linearGradient id="A" gradientUnits="userSpaceOnUse" x1="3.241" y1="21.474" x2="18.182" y2="1.902"><stop offset="0" stop-color="#f0f" /><stop offset="1" stop-color="#ff0" /></linearGradient><path d="M24 19H0V1h17v1h1v1h1v1h1v1h1v1h1v1h2v12z" fill="url(#A)" /></g></svg></g><g class="gotchi-wearable gotchi-secondary"><path d="M32 40v1h-1v-1h1z" /><path d="M33 42v-1h-1v1h1v1h2v-1h-2z" /><path d="M39 43v1h-4v-1h4z" /></g></svg>