<svg xmlns="http://www.w3.org/2000/svg" xmlns="http://www.w3.org/2000/svg" viewBox="0 0 64 64"><g class="gotchi-wearable wearable-body"><svg x="12" y="32"><g><path d="M35 1H5 2.5v8H3v14h34V9h.5V1z" fill="#0448b9" /><path d="M3 2v6h1v14h32V8h1V2H3z" fill="#0060ff" /><path d="M9 21h1v1H9zm6 0h1v1h-1zm6 0h1v1h-1zm6 0h1v1h-1zm6 0h1v1h-1zm2-2h1v1h-1zM7 18H6v1H5v1h1v1h1v-1h1v-1H7zm6 0h-1v1h-1v1h1v1h1v-1h1v-1h-1zm6 0h-1v1h-1v1h1v1h1v-1h1v-1h-1zm6 0h-1v1h-1v1h1v1h1v-1h1v-1h-1zm6 0h-1v1h-1v1h1v1h1v-1h1v-1h-1zM4 16h1v1H4zm7 0h-1v-1H9v1H8v1h1v1h1v-1h1zm6 0h-1v-1h-1v1h-1v1h1v1h1v-1h1zm6 0h-1v-1h-1v1h-1v1h1v1h1v-1h1zm6 0h-1v-1h-1v1h-1v1h1v1h1v-1h1zm6 0h-1v-1h-1v1h-1v1h1v1h1v-1h1zM7 15v-1h1v-1H7v-1H6v1H5v1h1v1zm6 0v-1h1v-1h-1v-1h-1v1h-1v1h1v1zm6 0v-1h1v-1h-1v-1h-1v1h-1v1h1v1zm6 0v-1h1v-1h-1v-1h-1v1h-1v1h1v1zm6 0v-1h1v-1h-1v-1h-1v1h-1v1h1v1zm4-2h1v1h-1zm-25-1v-1h1v-1h-1V9H9v1H8v1h1v1zm6 0v-1h1v-1h-1V9h-1v1h-1v1h1v1zm6 0v-1h1v-1h-1V9h-1v1h-1v1h1v1zm6 0v-1h1v-1h-1V9h-1v1h-1v1h1v1zm6 0v-1h1v-1h-1V9h-1v1h-1v1h1v1zM11 8h1v1h1V8h1V7h-1V6h-1v1h-1zm6 0h1v1h1V8h1V7h-1V6h-1v1h-1zm6 0h1v1h1V8h1V7h-1V6h-1v1h-1zm6 0h1v1h1V8h1V7h-1V6h-1v1h-1zM9 6h1V5h1V4h-1V3H9v1H8v1h1zm6 0h1V5h1V4h-1V3h-1v1h-1v1h1zm6 0h1V5h1V4h-1V3h-1v1h-1v1h1zm6 0h1V5h1V4h-1V3h-1v1h-1v1h1zm6 0h1V5h1V4h-1V3h-1v1h-1v1h1zM4 10h1v1H4zm1-2h1v1h1V8h1V7H7V6H6v1H5zm31-1h-1v1h2V6h-1v1zM4 5h1V4H4V3H3v3h1V5zm32-3h1v1h-1zM6 2h1v1H6zm6 0h1v1h-1zm6 0h1v1h-1zm6 0h1v1h-1zm6 0h1v1h-1z" fill="#fdfdff" /><path d="M6 19h1v1H6zm6 0h1v1h-1zm6 0h1v1h-1zm6 0h1v1h-1zm6 0h1v1h-1zM9 16h1v1H9zm6 0h1v1h-1zm6 0h1v1h-1zm6 0h1v1h-1zm6 0h1v1h-1zM9 10h1v1H9zm6 0h1v1h-1zm6 0h1v1h-1zm6 0h1v1h-1zm6 0h1v1h-1zM6 13h1v1H6zm6 0h1v1h-1zm6 0h1v1h-1zm6 0h1v1h-1zm6 0h1v1h-1zM9 4h1v1H9zm6 0h1v1h-1zm6 0h1v1h-1zm6 0h1v1h-1zm6 0h1v1h-1zM6 7h1v1H6zm6 0h1v1h-1zm6 0h1v1h-1zm6 0h1v1h-1zm6 0h1v1h-1zm6 0h1v1h-1zM3 4h1v1H3z" fill="#ffd200" /><g class="gotchi-sleeves gotchi-sleeves-left gotchi-sleeves-up"><path d="M3.8 9V8h-.2V2h.2V1H2V0H0v7h1v1h1v1h1.8z" fill="#0448b9" /><path d="M3.8,8V2H2V1H1v6h1v1H3.8z" fill="#0060ff" /><path d="M3 5H2V4h1v1zm1 1H3V5h1v1zm0-2H3V3h1v1zM2 7H1V6h1v1z" fill="#fdfdff" /><path d="M3 4h1v1H3z" fill="#ffd200" /></g><path d="M0 3v7h2V9h2V8H3V2h1V1H2v1H1v1H0z" fill="#0448b9" /><path d="M1,3v6h1V8h1.5V2H2v1H1z" fill="#0060ff" /><path d="M2 8H1V7h1v1zm1-3H2V4h1v1z" fill="#fdfdff" /><path d="M3 4h1v1H3z" fill="#ffd200" /><path d="M3 3h1v1H3zm0 2h1v1H3z" fill="#fdfdff" /><g class="gotchi-sleeves gotchi-sleeves-right gotchi-sleeves-up"><path d="M40 7V0h-2v1h-2v1h1v6h-1v1h2V8h1V7h1z" fill="#0448b9" /><path d="M39 7V1h-1v1h-1v1h-1v3h1v2h1V7h1z" fill="#0060ff" /><path d="M39 5h-1V4h1v1zm-2-2h-1V2h1v1zm1 5h-1V7h1v1z" fill="#fdfdff" /><path d="M36 7h1v1h-1z" fill="#ffd200" /></g><path d="M36,1v1h1v6h-1v1h2v1h2V3h-1V2h-1V1H36z" fill="#0448b9" /><path d="M36.5,2v6H38v1h1V3h-1V2H36.5z" fill="#0060ff" /><path d="M38 8h-1V7h1v1zm1-3h-1V4h1v1z" fill="#fdfdff" /><path d="M36 2h1v1h-1zm0 4h1v1h-1z" fill="#fff" /><path d="M36 7h1v1h-1z" fill="#ffd200" /></g></svg></g></svg>