<svg xmlns="http://www.w3.org/2000/svg" xmlns="http://www.w3.org/2000/svg" viewBox="0 0 64 64"><g class="gotchi-wearable wearable-hand wearable-hand-left"><svg x="35" y="33"><path d="M11,2H9V0h2V2z" fill="#ff8700" /><g fill="#ffaa4a"><path d="M10,1H9V0h1V1z" /><path d="M11,2h-1V1h1V2z" /></g><path d="M11,1h-1V0h1V1z" fill="#ffc88a" /><path d="M5,7H4V6h1V7z" /><path d="M6,6H5V5h1V6z" /><path d="M7,5H6V4h1V5z" /><path d="M8,4H7V3h1V4z" /><path d="M9 3H8V2h1v1zM4 8H3V7h1v1z" /><path d="M3,9H2V8h1V9z" /><path d="M2 10H1V9h1v1z" /><path d="M1 11H0v-1h1v1z" /></svg></g><g class="gotchi-wearable gotchi-secondary"><path d="M32 40v1h-1v-1h1z" /><path d="M33 42v-1h-1v1h1v1h2v-1h-2z" /><path d="M39 43v1h-4v-1h4z" /></g></svg>