<svg xmlns="http://www.w3.org/2000/svg" xmlns="http://www.w3.org/2000/svg" viewBox="0 0 64 64"><g class="gotchi-wearable gotchi-secondary"><path d="M33 40v1h-1v-1h1z" /><path d="M29,42v1h2v-1h1v-1h-1v1H29z" /><path d="M29 43v1h-4v-1h4z" /></g><g class="gotchi-wearable wearable-pet"><svg x="10" y="2"><g fill="#9600bd"><path d="M3,1h1v1H3V1z" /><path d="M4 0h1v1H4V0zM1 5V4h1V2h1v1h3V2h1V1h2v5H8v1H7v1H6v1h1v1h1v3H7v1H4v-1H3v-1H2v-1H1V6H0V5h1z" /></g><g fill="#f0f"><path d="M1,5h1v1H1V5z" /><path d="M5,6V5h1V3h1V2h1v4H7v1H6v1H3v1h3v1h1v3H4v-1H3v-1H2V6H5z" /></g><g fill="#ff8bff"><path d="M3,6v1h2V6h1V5h1V3h1v3H7v1H6v1H3v1H2V6H3z" /><path d="M5,9v1h1v1h1v1H4v-1H3V9H5z" /></g><path d="M5,3v2H2V3H5z" fill="#fff" /><path d="M5,3v1H3v1H2V3H5z" /></svg></g></svg>