<svg xmlns="http://www.w3.org/2000/svg" xmlns="http://www.w3.org/2000/svg" viewBox="0 0 64 64"><g class="gotchi-wearable wearable-face"><svg x="14" y="32"><g fill="#f0f"><path d="M3 18h1v1H3zm-2 1h1v1H1z" /><path d="M3 21h1v-2h1V2h1V0h2v19h1v2h1v1h1v1H2v-1h1v-1zm-3 1h1v1H0z" /></g><path d="M8 0v2H6V0h2z" fill="#64438e" /><g fill="#0f0"><path d="M8 2v17h1v2h1v1h1v1H6V2h2z" /><path d="M9 18h1v1H9zm2 1h1v1h-1zm1 3h1v1h-1z" /></g><path d="M7 2v21H6V2h1z" fill="#ff0" /></svg></g><g class="gotchi-wearable gotchi-secondary"><path d="M33 40v1h-1v-1h1z" /><path d="M29,42v1h2v-1h1v-1h-1v1H29z" /><path d="M29 43v1h-4v-1h4z" /></g></svg>