<svg xmlns="http://www.w3.org/2000/svg" xmlns="http://www.w3.org/2000/svg" viewBox="0 0 64 64"><g class="gotchi-wearable wearable-body"><svg x="12" y="32"><g><path d="M2.5 1v8H3v14h4v-2h5v2h5v-2h6v2h5v-2h5v2h4V9h.5V1h-35z" fill="#232323" /><path d="M3,2v7h1v12h3v-2h5v2h5v-2h6v2h5v-2h5v2h3V9h1V2H3z" /><path d="M12 19v2h5v-2h-5zm11 0v2h5v-2h-5zM4 15v1h1v2h1v-2h1v2h1v-2h1v2h1v-2h1v2h1v-2h1v2h1v-2h1v2h1v-2h1v2h1v-2h1v2h1v-2h1v2h1v-2h1v2h1v-2h1v2h1v-2h1v2h1v-2h1v2h1v-2h1v2h1v-2h1v2h1v-2h1v2h1v-3H4zm15-4v1h2v-1h-2zm0 2v1h2v-1h-2zm0-4v1h2V9h-2zm0-2v1h2V7h-2zm0-2v1h2V5h-2zm0-2v1h2V3h-2zm-8 11h1V2h-1v12zm2 0h1V2h-1v12zm-6-3h1V2H7v9zm2 2h1V2H9v11zM5 9h1V2H5v7zm12 5h1V2h-1v12zm-2 0h1V2h-1v12zm13 0h1V2h-1v12zm-2 0h1V2h-1v12zm6-3h1V2h-1v9zm-2 2h1V2h-1v11zm4-11v7h1V2h-1zM22 14h1V2h-1v12zm2 0h1V2h-1v12z" fill="#46cdff" /><path d="M13 17h1v1h-1v-1zm2 0h1v1h-1v-1zm12 0h1v1h-1v-1zm-4 0h1v1h-1v-1zm2 0h1v1h-1v-1zm10 0h1v1h-1v-1zm-23 3v1h5v-1h-5zm19-3h1v1h-1v-1zm2 0h1v1h-1v-1zm-10 3v1h5v-1h-5zm-2-3h1v1h-1v-1zm8 0h1v1h-1v-1zM7 17h1v1H7v-1zm10 0h1v1h-1v-1zm-6 0h1v1h-1v-1zm-2 0h1v1H9v-1zm-4 0h1v1H5v-1zm14 0h1v1h-1v-1z" fill="#7d7d7d" /><g class="gotchi-sleeves gotchi-sleeves-left gotchi-sleeves-up"><path d="M2,1V0H0v7h1v1h1v1h1.5V2H4V1H2z" fill="#232323" /><path d="M1,1h1v6H1V1z" fill="#46cdff" /><path d="M3 2h1v7H3z" /></g><path d="M2,1v1H1v1H0v7h2V9h1.5V2H4V1H2z" fill="#232323" /><path d="M1,3h1v6H1V3z" fill="#46cdff" /><path d="M3 2h1v7H3z" /><g class="gotchi-sleeves gotchi-sleeves-right gotchi-sleeves-up"><path d="M36 1v1h.5v7H38V8h1V7h1V0h-2v1h-2z" fill="#232323" /><path d="M39,7h-1V1h1V7z" fill="#46cdff" /><path d="M37 9h-1V2h1z" /></g><path d="M36 1v1h.5v7H38v1h2V3h-1V2h-1V1h-2z" fill="#232323" /><path d="M39,9h-1V3h1V9z" fill="#46cdff" /><path d="M37 9h-1V2h1z" /></g></svg></g></svg>