<svg xmlns="http://www.w3.org/2000/svg" xmlns="http://www.w3.org/2000/svg" viewBox="0 0 64 64"><g class="gotchi-sleeves gotchi-sleeves-left gotchi-sleeves-up"><svg width="40" height="25"><path d="M39 9v1h-1v1h-2V2h1V1h1V0h2v9z" fill="#134c4c" /><path d="M38 9v1h-1V2h1V1h1v8h-1z" fill="#1e6f50" /><g fill="#33984b"><path d="M37 9h1v1h-1z" /><path d="M38 8h1v1h-1z" /><path d="M37 7h1v1h-1z" /><path d="M38 6h1v1h-1z" /><path d="M37 5h1v1h-1z" /><path d="M38 4h1v1h-1z" /><path d="M37 3h1v1h-1z" /><path d="M38 2h1v1h-1z" /></g></svg></g></svg>