<?xml version="1.0" encoding="UTF-8"?>
<svg width="64" height="64" viewBox="0 0 64 64" xmlns="http://www.w3.org/2000/svg">
  <defs>
    <style>
      .gotchi-primary { fill: #FF6B9D; }
      .gotchi-secondary { fill: #F4AFDD; }
      .gotchi-eyeColor { fill: #36818E; }
      .gotchi-cheek { fill: #F696C6; }
      .gotchi-shadow { fill: #000000; }
    </style>
  </defs>
  <g class="gotchi-eyeColor"><path d="M40 23h1v1h-1v-1zm0 4h1v1h-1v-1z"/><path d="M39 26h1v1h-1v-1zm0-2h1v1h-1v-1z"/><path d="M40 25h1v1h-1v-1zm2-2h1v1h-1v-1zm0 4h1v1h-1v-1zm0-2h1v1h-1v-1zm0 4h1v1h-1v-1z"/><path d="M41 22h1v1h-1v-1zm0 4h1v1h-1v-1zm0-2h1v1h-1v-1zm0 4h1v1h-1v-1z"/></g>
</svg>