<?xml version="1.0" encoding="UTF-8"?>
<svg width="64" height="64" viewBox="0 0 64 64" xmlns="http://www.w3.org/2000/svg">
  <defs>
    <style>
      .gotchi-primary { fill: #FF6B9D; }
      .gotchi-secondary { fill: #F4AFDD; }
      .gotchi-eyeColor { fill: #36818E; }
      .gotchi-cheek { fill: #F696C6; }
      .gotchi-shadow { fill: #000000; }
    </style>
  </defs>
  <g class="gotchi-eyeColor"><path d="M23 23h1v1h-1v-1zm0 4h1v1h-1v-1z"/><path d="M24,26h1v1h-1V26z"/><path d="M23,25h1v1h-1V25z"/><path d="M24 24h1v1h-1v-1zm-2 2h1v1h-1v-1zm0-2h1v1h-1v-1z"/><path d="M21,23h1v1h-1V23z"/><path d="M22 22h1v1h-1v-1zm-1 5h1v1h-1v-1z"/><path d="M21 25h1v1h-1v-1zm1 3h1v1h-1v-1z"/><path d="M21,29h1v1h-1V29z"/></g>
</svg>