<svg xmlns="http://www.w3.org/2000/svg" xmlns="http://www.w3.org/2000/svg" viewBox="0 0 64 64"><g class="gotchi-wearable wearable-head"><svg x="15" y="0"><path d="M34 22v-2h-2v-2h-2v-4h-2v-2h-2v-2h4v2h2V8h-2V6h-2V4h-2V2h-2V0h-8v2h-2v2h-2v2h-2v2H8v2H6v4H4v4H2v2H0v2z" fill="#64438e" /><path d="M4 18h26v2H4zm24-2v-2h-4V8h4V6h-2V4h-2V2h-8v2h-2v2h-1v5h-1v1h-1v1H8v1H6v2z" fill="#947db0" /><path d="M10 8h2v3h-2z" fill="#dea8ff" /><path d="M8 10h3v2H8z" fill="#c260ff" /></svg></g><g class="gotchi-wearable gotchi-secondary"><path d="M33 40v1h-1v-1h1z" /><path d="M29,42v1h2v-1h1v-1h-1v1H29z" /><path d="M29 43v1h-4v-1h4z" /></g></svg>