<?xml version="1.0" encoding="UTF-8"?>
<svg width="64" height="64" viewBox="0 0 64 64" xmlns="http://www.w3.org/2000/svg">
  <defs>
    <style>
      .gotchi-primary { fill: 0x824ee2; }
      .gotchi-secondary { fill: 0xe6dcf9; }
      .gotchi-cheek { fill: 0xf696c6; }
      .gotchi-collateral { fill: 0x824ee2; }
      .gotchi-eyeColor { fill: 0x824ee2; }
      .gotchi-shadow { fill: #000000; }
    </style>
  </defs>
  <g class="gotchi-eyeColor"><path d="M43.46 23.91v-.64h-.64v-.64h-.64V22h-1.91v.64h-.64v.64H39v1.28h.64v-.64h.64v-.64h1.91v.64h.64v1.91h-.64v.64h-1.91v-.64h-.64v-.64h-1.28v-.64h-.64v-.64h-1.91v.64h-.64v.64h-.64v.64h-.63v1.91h.64v.64h.64v.64h.64v.64h1.91v-.64h.64v-.64H39V27.1h-.64v.64h-.64v.64h-1.91v-.64h-.64v-1.91h.64v-.64h1.91v.64h.64v.64h1.28v.64h.64v.64h1.91v-.65h.64v-.64h.64v-.64h.64v-1.91h-.65zm-14-.64h-.64v-.64h-.64V22h-1.91v.64h-.64v.64H25v1.28h.64v-.64h.64v-.64h1.91v.64h.64v1.91h-.64v.64h-1.91v-.64h-.64v-.64h-1.28v-.64h-.64v-.64h-1.91v.64h-.64v.64h-.64v.64h-.63v1.91h.64v.64h.64v.64h.64v.64h1.91v-.64h.64v-.64H25V27.1h-.64v.64h-.64v.64h-1.91v-.64h-.64v-1.91h.64v-.64h1.91v.64h.64v.64h1.28v.64h.64v.64h1.91v-.65h.64v-.64h.64v-.64h.64v-1.91h-.64v-.64z"/></g>
</svg>