<svg xmlns="http://www.w3.org/2000/svg" xmlns="http://www.w3.org/2000/svg" viewBox="0 0 64 64"><g class="gotchi-wearable wearable-body"><svg x="12" y="32"><g><path d="M3 1v20h34V1H3z" /><linearGradient id="A" gradientUnits="userSpaceOnUse" x1="30.231" y1="24.403" x2="9.769" y2="-2.403"><stop offset="0" stop-color="#ff0" /><stop offset=".8" stop-color="#f0f" /></linearGradient><path d="M36,2v18H4V2H36z" fill="url(#A)" /><g class="gotchi-sleeves gotchi-sleeves-left gotchi-sleeves-up"><path d="M2 9V8H1V7H0V0h2v1h1.5v8H2z" /><linearGradient id="A" gradientUnits="userSpaceOnUse" x1="-.056" y1="1.806" x2="4.056" y2="7.194"><stop offset="0" stop-color="#ff0" /><stop offset=".8" stop-color="#f0f" /></linearGradient><path d="M2 7H1V1h1v1h1v6H2V7z" fill="url(#A)" /></g><path d="M2 1v1H1v1H0v7h2V9h1.5V1H2z" /><linearGradient id="A" gradientUnits="userSpaceOnUse" x1="-.056" y1="8.194" x2="4.056" y2="2.806"><stop offset="0" stop-color="#ff0" /><stop offset=".8" stop-color="#f0f" /></linearGradient><path d="M2 3H1v6h1V8h1V2H2v1z" fill="url(#A)" /><g class="gotchi-sleeves gotchi-sleeves-right gotchi-sleeves-up"><path d="M38 9V8h1V7h1V0h-2v1h-1.5v8H38z" /><linearGradient id="A" gradientUnits="userSpaceOnUse" x1="40.056" y1="1.806" x2="35.944" y2="7.194"><stop offset="0" stop-color="#ff0" /><stop offset=".8" stop-color="#f0f" /></linearGradient><path d="M38 7h1V1h-1v1h-1v6h1V7z" fill="url(#A)" /></g><path d="M38 1v1h1v1h1v7h-2V9h-1.5V1H38z" /><linearGradient id="A" gradientUnits="userSpaceOnUse" x1="40.056" y1="8.194" x2="35.944" y2="2.806"><stop offset="0" stop-color="#ff0" /><stop offset=".8" stop-color="#f0f" /></linearGradient><path d="M38 3h1v6h-1V8h-1V2h1v1z" fill="url(#A)" /></g></svg></g></svg>