<?xml version="1.0" encoding="UTF-8"?>
<svg width="64" height="64" viewBox="0 0 64 64" xmlns="http://www.w3.org/2000/svg">
  <defs>
    <style>
      .gotchi-primary { fill: 0x000000; }
      .gotchi-secondary { fill: 0xfbdfeb; }
      .gotchi-cheek { fill: 0xf696c6; }
      .gotchi-collateral { fill: 0x000000; }
      .gotchi-eyeColor { fill: 0x000000; }
      .gotchi-shadow { fill: #000000; }
    </style>
  </defs>
  <g class="gotchi-eyeColor"><path d="M43 22h-1v-1h-5v1h-1v1h-1v5h1v1h1v1h5v-1h1v-1h1v-5h-1v-1zm-1 5h-4v-3h4v3z"/><path d="M36 24h1v-1h1v-1h3v-1h-4v1h-1v1h-1v5h1v1h1v1h4v-1h-3v-1h-1v-1h-1v-3z" fill="#e51b6d"/><path d="M28 22h-1v-1h-5v1h-1v1h-1v5h1v1h1v1h5v-1h1v-1h1v-5h-1v-1zm-1 5h-4v-3h4v3z"/><path d="M22 21v1h-1v1h-1v5h1v1h1v1h4v-1h-3v-1h-1v-1h-1v-3h1v-1h1v-1h3v-1h-4z" fill="#e51b6d"/></g>
</svg>