<svg xmlns="http://www.w3.org/2000/svg" xmlns="http://www.w3.org/2000/svg" viewBox="0 0 64 64"><g class="gotchi-wearable wearable-body"><svg x="10" y="31"><g><path d="M5 2v22h34V2H5z" /><path d="M6 15v3h32v-3H6z" fill="#fff" /><path d="M6 3v11h32V3H6zm0 16v3h32v-3H6z" fill="red" /><path d="M23 7.5v-2h-2v2h-2v2h2v2h2v-2h2v-2h-2zm-9 0v-2h-2v2h-2v2h2v2h2v-2h2v-2h-2zm18 0v-2h-2v2h-2v2h2v2h2v-2h2v-2h-2z" /><path d="M21 7.5v2h2v-2h-2zm-9 0v2h2v-2h-2zm18 0v2h2v-2h-2z" fill="#ff0" /><g class="gotchi-sleeves gotchi-sleeves-left gotchi-sleeves-up"><path d="M4 13v-1H3v-1H2v-1H0V0h2v1h2v1h1.5v11H4z" /><path d="M4 12V3h1v9H4z" fill="red" /><path d="M2 10V2h1v8H2z" fill="#fff" /></g><path d="M4 2v1H3v1H2v1H0v10h2v-1h2v-1h1.5V2H4z" /><path d="M4 3v9h1V3H4z" fill="red" /><path d="M2 5v8h1V5H2z" fill="#fff" /><g class="gotchi-sleeves gotchi-sleeves-right gotchi-sleeves-up"><path d="M40 13v-1h1v-1h1v-1h2V0h-2v1h-2v1h-1.5v11H40z" /><path d="M40 12V3h-1v9h1z" fill="red" /><path d="M42 10V2h-1v8h1z" fill="#fff" /></g><path d="M40 2v1h1v1h1v1h2v10h-2v-1h-2v-1h-1.5V2H40z" /><path d="M40 3v9h-1V3h1z" fill="red" /><path d="M42 5v8h-1V5h1z" fill="#fff" /></g></svg></g></svg>