<?xml version="1.0" encoding="UTF-8"?>
<svg width="64" height="64" viewBox="0 0 64 64" xmlns="http://www.w3.org/2000/svg">
  <defs>
    <style>
      .gotchi-primary { fill: 0xff2a7a; }
      .gotchi-secondary { fill: 0xffc3df; }
      .gotchi-cheek { fill: 0xf696c6; }
      .gotchi-collateral { fill: 0xff2a7a; }
      .gotchi-eyeColor { fill: 0xff2a7a; }
      .gotchi-shadow { fill: #000000; }
    </style>
  </defs>
  <g class="gotchi-collateral"><path d="M47 3v1h-1v1h-1v1h-1v1h-1v1h-1v1h-1v1h-1v1h-1v1h-1v3h1v1h5v-2h1v-3h1V8h1V6h1V3z" fill="#ff3085"/><path d="M42,9v3h2v-1h1V9h-1V8h-1v1H42z" fill="#ffc2db"/><path d="M44,7v1h2V6h-1v1H44z" fill="#ffdeec"/><path d="M47,6h-1V5h1V6z" fill="#fff"/><path d="M39,13v2h4v-1h1v-1h-2v-1h-1v-1h-1v2H39z" fill="#ff88b8"/></g>
</svg>