<?xml version="1.0" encoding="UTF-8"?>
<svg width="64" height="64" viewBox="0 0 64 64" xmlns="http://www.w3.org/2000/svg">
  <defs>
    <style>
      .gotchi-primary { fill: 0xff2a7a; }
      .gotchi-secondary { fill: 0xffc3df; }
      .gotchi-cheek { fill: 0xf696c6; }
      .gotchi-collateral { fill: 0xff2a7a; }
      .gotchi-eyeColor { fill: 0xff2a7a; }
      .gotchi-shadow { fill: #000000; }
    </style>
  </defs>
  <g class="gotchi-collateral"><path d="M17 3v1h1v1h1v1h1v1h1v1h1v1h1v1h1v1h1v1h1v3h-1v1h-5v-2h-1v-3h-1V8h-1V6h-1V3z" fill="#ff3085"/><path d="M21,9V8h-1v1h-1v2h1v1h2V9H21z" fill="#ffc2db"/><path d="M19,7V6h-1v2h2V7H19z" fill="#ffdeec"/><path d="M17,5h1v1h-1V5z" fill="#fff"/><path d="M24,13v-2h-1v1h-1v1h-2v1h1v1h4v-2H24z" fill="#ff88b8"/></g>
</svg>