<?xml version="1.0" encoding="UTF-8"?>
<svg width="64" height="64" viewBox="0 0 64 64" xmlns="http://www.w3.org/2000/svg">
  <defs>
    <style>
      .gotchi-primary { fill: 0xff2a7a; }
      .gotchi-secondary { fill: 0xffc3df; }
      .gotchi-cheek { fill: 0xf696c6; }
      .gotchi-collateral { fill: 0xff2a7a; }
      .gotchi-eyeColor { fill: 0xff2a7a; }
      .gotchi-shadow { fill: #000000; }
    </style>
  </defs>
  <g class="gotchi-collateral"><path d="M30 9V8h-1v1h-1v2h1v1h2V9z" fill="#ffc2db"/><path d="M28 7V6h-1v2h2V7z" fill="#ffdeec"/><path d="M26 5h1v1h-1z" fill="#fff"/><path d="M33 13v-2h-1v1h-1v1h-2v1h1v1h4v-2z" fill="#ff88b8"/><g fill="#ff3085"><path d="M27 5V4h-1V3h-1v3h1V5z"/><path d="M27 5h1v1h-1z"/><path d="M28 6h1v1h-1z"/><path d="M29 7h1v1h-1z"/><path d="M30 8h1v1h-1zm-2 1h1V8h-2v3h1z"/><path d="M31 13v-1h-2v-1h-1v3h1v-1z"/><path d="M31 12h1v-1h1v-1h-1V9h-1z"/><path d="M34 12v-1h-1v2h1v2h1v-3z"/><path d="M30 15v-1h-1v2h5v-1zm-4-9h1v2h-1z"/></g></g>
</svg>