<svg xmlns="http://www.w3.org/2000/svg" xmlns="http://www.w3.org/2000/svg" viewBox="0 0 64 64"><g class="gotchi-wearable wearable-body"><svg x="20" y="33"><g><path d="M1,8V7h2V6h2V5h1V4h1V3h1V2h1V1h1V0h14v20H0V8H1z" fill="#fe73a9" /><path d="M1 9V8h2V7h2V6h1V5h1V4h1V3h1V2h1V1h3v18H0V9h1zm23-8v18H14V1h10z" fill="#fe98c0" /><g fill="#fff"><path d="M6 11v6h1v-6H6zm-3 0v1h1v5h1v-6H3z" /><path d="M2 17h1v-5H2v5z" /><path d="M0,11v6h1v-5h1v-1H0z" /></g></g></svg></g><g class="gotchi-wearable gotchi-secondary"><path d="M33 40v1h-1v-1h1z" /><path d="M29,42v1h2v-1h1v-1h-1v1H29z" /><path d="M29 43v1h-4v-1h4z" /></g></svg>