<svg xmlns="http://www.w3.org/2000/svg" xmlns="http://www.w3.org/2000/svg" viewBox="0 0 64 64"><g class="gotchi-wearable wearable-body"><svg x="20" y="33"><g><path d="M22,6V5h-1V4h-1V3h-1V2h-1V1h-1V0H0v20h24V6H22z" fill="#501e87" /><path d="M22 7V6h-1V5h-1V4h-1V3h-1V2h-1V1H1v18h23V7h-2zm-1 4h-3V7h1v3h2v1zm-3 3h2v-1h-2v-1h3v3h-2v1h2v1h-3v-3z" fill="#824ee2" /></g></svg></g><g class="gotchi-wearable gotchi-secondary"><path d="M32 40v1h-1v-1h1z" /><path d="M33 42v-1h-1v1h1v1h2v-1h-2z" /><path d="M39 43v1h-4v-1h4z" /></g></svg>