<svg xmlns="http://www.w3.org/2000/svg" xmlns="http://www.w3.org/2000/svg" viewBox="0 0 64 64"><g class="gotchi-wearable wearable-head"><svg x="20" y="6"><path d="M23 8V6h-2V4h-2V2h-4V0H9v2H5v2H3v2H1v2H0v19h12v-1h12V8h-1z" fill="#0f5a87" /><path d="M23 9V8h-2V6h-2V4h-4V2H9v2H5v2H3v2H1v19h9v-9H8v-2H6V6h4v2h2v18h12v-2h-2v-2h-2v-4h2v-2h2V9h-1z" fill="#0fa9c9" /><g fill="#fff"><path d="M8 8v8h2V8H8zm14 8v2h2v-2h-2z" /><path d="M20 18v2h2v-2h-2z" /></g></svg></g><g class="gotchi-wearable gotchi-secondary"><path d="M32 40v1h-1v-1h1z" /><path d="M33 42v-1h-1v1h1v1h2v-1h-2z" /><path d="M39 43v1h-4v-1h4z" /></g></svg>