<svg xmlns="http://www.w3.org/2000/svg" xmlns="http://www.w3.org/2000/svg" viewBox="0 0 64 64"><g class="gotchi-wearable wearable-body"><svg x="20" y="33"><path d="M1,7V6h1V5h2V4h2V3h2V2h2V1h2V0h12v15h-1v1H2v-1H1v-1H0V7H1z" fill="#f3410a" /><path d="M2,7V6h2V5h2V4h2V3h2V2h2V1h11v14H2v-1H1V7H2z" /><path d="M8,7v1h3V7H8z" fill="#fff" /></svg></g><g class="gotchi-wearable gotchi-secondary"><path d="M33 40v1h-1v-1h1z" /><path d="M29,42v1h2v-1h1v-1h-1v1H29z" /><path d="M29 43v1h-4v-1h4z" /></g></svg>