<svg xmlns="http://www.w3.org/2000/svg" xmlns="http://www.w3.org/2000/svg" viewBox="0 0 64 64"><g class="gotchi-wearable wearable-body"><svg x="20" y="28"><g><path d="M0 10v17h3v-2h3v2h4v-2h4v2h4v-2h3v2h3V5H8v1H6v2H4v2H0z" fill="#0f5a87" /><path d="M0 10v15h1v-2h5v2h2v-2h5v-4h1v6h4v-2h3v2h2V6h-9v11h-1V6H6v2H4v2H0z" fill="#0fa9c9" /><path d="M0 17v2h23v-2H0zm1 4H0v4h1v-4z" fill="#a73796" /><path d="M10 17v2h2v-2h-2zm4 0v2h2v-2h-2zm4 0v2h2v-2h-2zm5 0h-1v2h1v-2zM6 17v2h2v-2H6zm-4 0v2h2v-2H2z" fill="#fff" /></g></svg></g><g class="gotchi-wearable gotchi-secondary"><path d="M33 40v1h-1v-1h1z" /><path d="M29,42v1h2v-1h1v-1h-1v1H29z" /><path d="M29 43v1h-4v-1h4z" /></g></svg>