<?xml version="1.0" encoding="UTF-8"?>
<svg width="64" height="64" viewBox="0 0 64 64" xmlns="http://www.w3.org/2000/svg">
  <defs>
    <style>
      .gotchi-primary { fill: 0x282473; }
      .gotchi-secondary { fill: 0x489ff8; }
      .gotchi-cheek { fill: 0xf696c6; }
      .gotchi-collateral { fill: 0x282473; }
      .gotchi-eyeColor { fill: 0x282473; }
      .gotchi-shadow { fill: #000000; }
    </style>
  </defs>
  <g class="gotchi-collateral"><g fill="#282473"><path d="M37 15h-1v4h1zm-3 5h1v1h-1z"/><path d="M35 19h1v1h-1zm-6 1h1v1h-1z"/><path d="M34 22v-1h-4v1z"/></g><g fill="#489ff8"><path d="M30.5 15v1h1v3h1v-3h1v-1zm-.5-3v1h4v-1z"/><path d="M34 13h1v1h-1zm-7 6h1v-4h-1zm2-6h1v1h-1z"/><path d="M28 14h1v1h-1z"/></g></g>
</svg>