<svg xmlns="http://www.w3.org/2000/svg" xmlns="http://www.w3.org/2000/svg" viewBox="0 0 64 64"><g class="gotchi-wearable wearable-hand wearable-hand-left"><svg x="1" y="33"><g transform="scale(-1, 1) translate(-62, 0)"><path d="M11 3V2h-1V1H9V0H3v1H2v1H1v1H0v6h1v1h1v1h1v1h6v-1h1v-1h1V9h1V3z" fill="#fa34f3" /><path d="M0,6v2h12V6H0z" fill="#ac15f9" /><path d="M0,4v2h12V4H0z" fill="#cf15f9" /><path d="M0,8v1h1v1h10V9h1V8H0z" fill="#8f17f9" /><path d="M2,10v1h1v1h6v-1h1v-1H2z" fill="#7e18f8" /></g></svg></g></svg>