<svg xmlns="http://www.w3.org/2000/svg" xmlns="http://www.w3.org/2000/svg" viewBox="0 0 64 64"><g class="gotchi-wearable wearable-body"><svg x="10" y="31"><g><path d="M38 2H5v22h13v1h8v-1h13V2h-1z" fill="#762b26" /><path d="M37 18H6v1h32v-1h-1z" fill="#eeecdf" /><path d="M37 4H6v13h32V4h-1zm-1 16H6v2h32v-2h-2z" fill="#eb564b" /><path d="M28 11h1v-1h-2V8h-2v2h-2V8h2V6h-6v2h2v2h-2V8h-2v2h-2v1h2v1h-2v1h2v2h2v-2h2v2h2v-2h2v2h2v-2h2v-1h-2v-1h1zm-8 1h-1v-1h2v1h-1zm4 0h-1v-1h2v1h-1z" fill="#762b26" /><g class="gotchi-sleeves gotchi-sleeves-left gotchi-sleeves-up"><path d="M5.5,2H4V1H2V0H0v10h2v1h1v1h1v1h1.5V2z" fill="#762b26" /><path d="M3,11V1H2v10H3z" fill="#eeecdf" /><path d="M4,12V1H3v11H4z" fill="#eb564b" /></g><path d="M5.5,2H4v1H3v1H2v1H0v10h2v-1h2v-1h1.5V2z" fill="#762b26" /><path d="M2,4v10h1V4H2z" fill="#eeecdf" /><path d="M3,3v11h1V3H3z" fill="#eb564b" /><g class="gotchi-sleeves gotchi-sleeves-right gotchi-sleeves-up"><path d="M38.5,13H40v-1h1v-1h1v-1h2V0h-2v1h-2v1h-1.5V13z" fill="#762b26" /><path d="M42 11V1h-1v10h1z" fill="#eeecdf" /><path d="M41 12V1h-1v11h1z" fill="#eb564b" /></g><path d="M38.5,13H40v1h2v1h2V5h-2V4h-1V3h-1V2h-1.5V13z" fill="#762b26" /><path d="M41,4v10h1V4H41z" fill="#eeecdf" /><path d="M40,3v11h1V3H40z" fill="#eb564b" /></g></svg></g></svg>