<?xml version="1.0" encoding="UTF-8"?>
<svg width="64" height="64" viewBox="0 0 64 64" xmlns="http://www.w3.org/2000/svg">
  <defs>
    <style>
      .gotchi-primary { fill: 0x282473; }
      .gotchi-secondary { fill: 0x489ff8; }
      .gotchi-cheek { fill: 0xf696c6; }
      .gotchi-collateral { fill: 0x282473; }
      .gotchi-eyeColor { fill: 0x282473; }
      .gotchi-shadow { fill: #000000; }
    </style>
  </defs>
  <g class="gotchi-eyeColor gotchi-primary"><path d="M39.5 28v-3h1v-1h-3v1h1v3zm1.5 1h1v1h-1z"/><path d="M42 28h1v1h-1z"/><path d="M43 24h1v4h-1zm-7 5h1v1h-1z"/><path d="M37 30h4v1h-4zm4-8h1v1h-1z"/><path d="M37 21h4v1h-4zm-3 3h1v4h-1z"/><path d="M36 22h1v1h-1z"/><path d="M35 23h1v1h-1zm-9.5 5v-3h1v-1h-3v1h1v3zm1.5 1h1v1h-1z"/><path d="M28 28h1v1h-1z"/><path d="M29 24h1v4h-1zm-7 5h1v1h-1z"/><path d="M23 30h4v1h-4zm4-8h1v1h-1z"/><path d="M23 21h4v1h-4zm-3 3h1v4h-1z"/><path d="M22 22h1v1h-1z"/><path d="M21 23h1v1h-1z"/></g>
</svg>