<svg xmlns="http://www.w3.org/2000/svg" xmlns="http://www.w3.org/2000/svg" viewBox="0 0 64 64"><g class="gotchi-wearable wearable-eyes"><svg x="20" y="21"><path d="M0 0v1h9v1h3v1h2v1h1v3h1v2h2v1h7V0H0z" opacity=".588" fill="#2aa4ff" enable-background="new" /><g fill="#fff"><path d="M19 2h1v1h-1zm2 0h1v1h-1z" /><path d="M18 3h1v1h-1zm2 0h1v1h-1z" /><path d="M17 4h1v1h-1zm2 0h1v1h-1z" /></g><path d="M0 0v1h9v1h3v1h2v1h1V3h1V2h1V1h5v1h3V0H0z" /><path d="M14 1v1h2V1h-2z" fill="#db3ffd" /></svg></g><g class="gotchi-wearable gotchi-secondary"><path d="M32 40v1h-1v-1h1z" /><path d="M33 42v-1h-1v1h1v1h2v-1h-2z" /><path d="M39 43v1h-4v-1h4z" /></g></svg>