<?xml version="1.0" encoding="UTF-8"?>
<svg width="64" height="64" viewBox="0 0 64 64" xmlns="http://www.w3.org/2000/svg">
  <defs>
    <style>
      .gotchi-primary { fill: 0x0074f9; }
      .gotchi-secondary { fill: 0xc8e1fd; }
      .gotchi-cheek { fill: 0xf696c6; }
      .gotchi-collateral { fill: 0x0074f9; }
      .gotchi-eyeColor { fill: 0x0074f9; }
      .gotchi-shadow { fill: #000000; }
    </style>
  </defs>
  <g class="gotchi-collateral" fill="#0074f9"><path d="M30 16h1v1h-1zm4 1h1v1h-1z"/><path d="M33 16h1v1h-1zm1 2h1v1h-1z"/><path d="M34 19h1v1h-1z"/><path d="M34 20h1v1h-1zm-2 1h1v1h-1z"/><path d="M33 21h1v1h-1zm-2 0h1v1h-1z"/><path d="M30 21h1v1h-1z"/><path d="M29 20h1v1h-1z"/><path d="M30 19h1v1h-1z"/><path d="M30 18h1v1h-1z"/><path d="M29 18h1v1h-1zm4-7h1v1h-1zm-2 0h1v1h-1z"/><path d="M30 11h1v1h-1zm2 0h1v1h-1zm-3 4h1v1h-1zm0-2h1v1h-1z"/><path d="M29 12h1v1h-1zm0 2h1v1h-1zm5-2h1v1h-1zm-1 2h1v1h-1z"/><path d="M34 14h1v1h-1z"/><path d="M33 13h1v1h-1zm-1.5 2h1v1h-1z"/><path d="M31.5 14h1v1h-1z"/><path d="M31.5 13h1v1h-1zm0 3h1v1h-1zm0 2h1v1h-1z"/><path d="M31.5 19h1v1h-1zm0-2h1v1h-1z"/></g>
</svg>