<svg xmlns="http://www.w3.org/2000/svg" xmlns="http://www.w3.org/2000/svg" viewBox="0 0 64 64"><g class="gotchi-wearable wearable-head"><svg x="20" y="6"><path d="M23 8V6h-1V4h-3V2h-4V0H9v2H5v2H3v2H1v2H0v16h18v-7h6V8h-1z" /><path d="M22 8v5h-6v11h2v-7h6V8h-2z" fill="#8e9397" /><path d="M11 8V6H3v2h2v2h2v2h2v2h2v2h2V8h-2z" fill="#fff" /><path d="M16 20v4h2v-4h-2z" fill="#ffc500" /></svg></g><g class="gotchi-wearable gotchi-secondary"><path d="M32 40v1h-1v-1h1z" /><path d="M33 42v-1h-1v1h1v1h2v-1h-2z" /><path d="M39 43v1h-4v-1h4z" /></g></svg>