<svg xmlns="http://www.w3.org/2000/svg" xmlns="http://www.w3.org/2000/svg" viewBox="0 0 64 64"><g class="gotchi-wearable wearable-head"><svg x="18" y="2"><path d="M0 18v-6h2V8h2V6h2V4h2V2h2V0h8v2h2v2h2v2h2v2h2v4h2v6z" /><path d="M24 8V6h-2V4h-2v1h-1v4h1v1h1v1h4v-1h1V8z" fill="#ff6e00" /><path d="M23 7V6h-2v1h1v1h1v1h1V7z" fill="#fff" /></svg></g><g class="gotchi-wearable gotchi-secondary"><path d="M32 40v1h-1v-1h1z" /><path d="M33 42v-1h-1v1h1v1h2v-1h-2z" /><path d="M39 43v1h-4v-1h4z" /></g></svg>