<svg xmlns="http://www.w3.org/2000/svg" xmlns="http://www.w3.org/2000/svg" viewBox="0 0 64 64"><g class="gotchi-wearable wearable-face"><svg x="19" y="32"><g fill="#bdbba6"><path d="M1 1V0h3v1h1v2h1v9H5v-2H4V8H3V6H2V5H1V4H0V1h1z" /><path d="M1 7v7H0V6h2v1H1z" /></g><g fill="#eeecdf"><path d="M5 4v1H4V3h1v1zM2 1h1v1H1V1h1z" /><path d="M3 2h1v1H3z" /></g></svg></g><g class="gotchi-wearable gotchi-secondary"><path d="M33 40v1h-1v-1h1z" /><path d="M29,42v1h2v-1h1v-1h-1v1H29z" /><path d="M29 43v1h-4v-1h4z" /></g></svg>