<svg xmlns="http://www.w3.org/2000/svg" xmlns="http://www.w3.org/2000/svg" viewBox="0 0 64 64"><g class="gotchi-wearable wearable-body"><svg x="20" y="31"><g><path d="M1 8h1V7h1V6h1V5h1V4h1V3h1V2h17v20H0V8h1z" /><g fill="#0f0"><path d="M18 22h-1v-2h1v2zm2 0h-1v-2h1v2zm-4-2v2h-5v-2h5zm6 2h-1v-2h1v2zm2 0h-1v-2h1v2zM7 2h1v1H7zM5 4h1v1H5z" /><path d="M6 3h1v1H6zM4 5h1v1H4z" /><path d="M3 6h1v1H3zM2 8v1H0V8h2z" /><path d="M1 16H0v-3h1v3zm1-9h1v1H2z" /><path d="M1 16h1v1H1z" /><path d="M6 17v1H2v-1h4zm0 3v2H1v-2h5zm2 2H7v-2h1v2zm2 0H9v-2h1v2z" /></g></g></svg></g><g class="gotchi-wearable gotchi-secondary"><path d="M33 40v1h-1v-1h1z" /><path d="M29,42v1h2v-1h1v-1h-1v1H29z" /><path d="M29 43v1h-4v-1h4z" /></g></svg>