<svg xmlns="http://www.w3.org/2000/svg" xmlns="http://www.w3.org/2000/svg" viewBox="0 0 64 64"><g class="gotchi-wearable wearable-body"><svg x="20" y="33"><g><path d="M7,0v1H6v1H5v1H4v1H3v1H2v1H0v14h24V0H7z" fill="#501e87" /><path d="M7 1v1H6v1H5v1H4v1H3v1H2v1H0v12h23V1H7zM3 14h2v-1H3v-1h3v3H4v1h2v1H3v-3zm1-7v3h2v1H3V7h1z" fill="#824ee2" /></g></svg></g><g class="gotchi-wearable gotchi-secondary"><path d="M33 40v1h-1v-1h1z" /><path d="M29,42v1h2v-1h1v-1h-1v1H29z" /><path d="M29 43v1h-4v-1h4z" /></g></svg>