<svg xmlns="http://www.w3.org/2000/svg" xmlns="http://www.w3.org/2000/svg" viewBox="0 0 64 64"><g class="gotchi-wearable wearable-head"><svg x="20" y="6"><path d="M1 8V6h1V4h3V2h4V0h6v2h4v2h2v2h2v2h1v16H6v-7H0V8h1z" /><path d="M2 8v5h6v11H6v-7H0V8h2z" fill="#8e9397" /><path d="M13 8V6h8v2h-2v2h-2v2h-2v2h-2v2h-2V8h2z" fill="#fff" /><path d="M8 20v4H6v-4h2z" fill="#ffc500" /></svg></g><g class="gotchi-wearable gotchi-secondary"><path d="M33 40v1h-1v-1h1z" /><path d="M29,42v1h2v-1h1v-1h-1v1H29z" /><path d="M29 43v1h-4v-1h4z" /></g></svg>