<svg xmlns="http://www.w3.org/2000/svg" xmlns="http://www.w3.org/2000/svg" viewBox="0 0 64 64"><g class="gotchi-wearable wearable-body"><svg x="20" y="33"><g><path d="M0 5v17h3v-2h3v2h4v-2h4v2h4v-2h3v2h3V0H11v1H9v1H7v1H5v1H1v1H0z" fill="#141b30" /><g fill="#fff"><path d="M1 6H0V5h1v1z" /><path d="M1,4v1h2V4H1z" /></g><g fill="#343a4c"><path d="M2 10H1v1H0v8h12V2h-1v3H9v1H7v1H6v1H4v1H2v1zm7 4H4v-1h5v1zm-5 4v-3h5v3H5 4z" /><path d="M0 6v4h1V9h1V8h2V7h2V6h1V5h2V4h1V2h1V1H9v1H7v1H5v1H3v1H1v1H0zm2 1V6h1v1H2z" /><path d="M12 1h-1V0h1v1zm1 0v18h10V1H13z" /></g></g></svg></g><g class="gotchi-wearable gotchi-secondary"><path d="M33 40v1h-1v-1h1z" /><path d="M29,42v1h2v-1h1v-1h-1v1H29z" /><path d="M29 43v1h-4v-1h4z" /></g></svg>