<svg xmlns="http://www.w3.org/2000/svg" xmlns="http://www.w3.org/2000/svg" viewBox="0 0 64 64"><g class="gotchi-wearable wearable-eyes"><svg x="19" y="22"><svg width="26" height="9"><path d="M5 0v1h1v2h20v4h-2V5H6v4H4V8H2v1H0V0h5z" /><path d="M4 1v1h1v6H4V7H2v1H0V1h4z" fill="#ff0" /><path d="M4 5v1h1v2H4V7H2v1H0V5h4z" fill="red" /><path d="M4 1v1h1v2H4V3H0V1h4z" fill="#007d00" /></svg></svg></g><g class="gotchi-wearable gotchi-secondary"><path d="M33 40v1h-1v-1h1z" /><path d="M29,42v1h2v-1h1v-1h-1v1H29z" /><path d="M29 43v1h-4v-1h4z" /></g></svg>