<svg xmlns="http://www.w3.org/2000/svg" xmlns="http://www.w3.org/2000/svg" viewBox="0 0 64 64"><g class="gotchi-wearable wearable-body"><svg x="11" y="31"><g><path d="M4,2v22h4v-2h5v2h5v-2h6v2h5v-2h5v2h4V2H4z" fill="#bababa" /><path d="M27 23h-2v-2h-8v2h-2v-3h12v3zm9 0h-1v-2h-7v-1h8v3zm2-20v6h-1v10H5V9H4V3h34zM14 21H7v2H6v-3h8v1z" /><path d="M27 20h1v3h-1v-3zm-13 0h1v3h-1v-3zm22 0h1v3h-1v-3zm2-15v1H4V5h34zM5 20h1v3H5v-3zM38 3v1H4V3h34z" fill="#fff" /><g class="gotchi-sleeves gotchi-sleeves-left gotchi-sleeves-up"><path d="M0,0v7h1v1h1v1h1v1h1.5V2H3V1H1V0H0z" fill="#bababa" /><g fill="#fff"><path d="M4 7H3V6h1v1zm1-1H4V5h1v1zm0-2H3V3h2v1z" /><path d="M3 6H2V5h1v1zm0-3H2V2h1v1z" /><path d="M2,5H1V4h1V5z" /></g><path d="M2,6V5H1v2h1v1h1v1h1.8V6H4v1H3V6H2z" /><path d="M1 2v2h1v1h1v1h1V5h.8V4H3V3H2V2H1z" /></g><path d="M0,5v7h1v-1h2v-1h2V9H4.5V3H5V2H3v1H2v1H1v1H0z" fill="#bababa" /><path d="M4.8,4v2H3v1H2v1H1V6h1V5h1V4H4.8z" /><path d="M3 8V7h1V6h.8v3H3v1H1V9h1V8h1z" /><g fill="#fff"><path d="M4 7H3V6h1v1zm1-1H4V5h1v1zm0-2H3V3h2v1z" /><path d="M3 8H2V7h1v1zm0-3H2V4h1v1z" /><path d="M2 9H1V8h1v1zm0-3H1V5h1v1z" /></g><g class="gotchi-sleeves gotchi-sleeves-right gotchi-sleeves-up"><path d="M41,0v1h-2v1h-1.5v8H39V9h1V8h1V7h1V0H41z" fill="#bababa" /><g fill="#fff"><path d="M38 6h1v1h-1V6zm-1-1h1v1h-1V5zm0-2h2v1h-2V3z" /><path d="M39 5h1v1h-1V5zm0-3h1v1h-1V2z" /><path d="M40,4h1v1h-1V4z" /></g><path d="M39 6v1h-1V6h-.8v3H39V8h1V7h1V5h-1v1h-1z" /><path d="M40,2v1h-1v1h-1.8v1H38v1h1V5h1V4h1V2H40z" /></g><path d="M41 5V4h-1V3h-1V2h-2v1h.5v6H37v1h2v1h2v1h1V5h-1z" fill="#bababa" /><path d="M39,4v1h1v1h1v2h-1V7h-1V6h-1.8V4H39z" /><path d="M40 8v1h1v1h-2V9h-1.8V6h.8v1h1v1h1z" /><g fill="#fff"><path d="M38 6h1v1h-1V6zm-1-1h1v1h-1V5zm0-2h2v1h-2V3z" /><path d="M39 7h1v1h-1V7zm0-3h1v1h-1V4z" /><path d="M40 8h1v1h-1V8zm0-3h1v1h-1V5z" /></g></g></svg></g></svg>