<svg xmlns="http://www.w3.org/2000/svg" xmlns="http://www.w3.org/2000/svg" viewBox="0 0 64 64"><g class="gotchi-wearable wearable-body"><svg x="10" y="32"><g><path d="M37 0v1H7V0H5v23h4v-2h5v2h5v-2h6v2h5v-2h5v2h4V0h-2z" /><path d="M19 12h1v1h-1zm9 2v5h9v-5h-9zm4-2h1v1h-1zm-2 0h1v1h-1zm-4 0h1v1h-1zm1-2v1h10v-1H27zm1 2h1v1h-1zm-3 2h-8v5h10v-5h-2zm-1-2h1v1h-1zm-7-2H7v1h10v-1zm-6 2h1v1h-1zm2 0h1v1h-1zm4 0h1v1h-1zm-2 0h1v1h-1zm-8 2v5h9v-5H7zm20-6v1h10V8H27zM17 9V8H7v1h10zm10-3v1h10V6H27zM17 7V6H7v1h10zm10-3v1h10V4H27zm-9 1v6h1v-1h1v1h1v-1h2v1h1v-1h1v1h1V4h-1V3h-1V2h-4v1h-1v1h-1v1zm-1 0V4H7v1h10zm9-3v1h11V2H26zm-8 1V2H7v1h11z" fill="#51ffa8" /><path d="M35 14v5h2v-5h-2zm0-4v1h2v-1h-2zM7 14v5h2v-5H7zm2-3v-1H7v1h2zm26-3v1h2V8h-2zM9 9V8H7v1h2zm26-3v1h2V6h-2zM9 7V6H7v1h2zm26-3v1h2V4h-2zM9 5V4H7v1h2zm26-3v1h2V2h-2zM9 3V2H7v1h2z" fill="#c3ffe1" /><path d="M36 19h1v-5h-1v5zm0-9h1v1h-1zM7 19h1v-5H7v5zm0-9h1v1H7zm29-2h1v1h-1zM7 8h1v1H7zm29-2h1v1h-1zM7 6h1v1H7zm29-2h1v1h-1zM7 4h1v1H7zm29-2h1v1h-1zM7 2h1v1H7zm14 10v1h2v-1h-2z" fill="#fff" /><path d="M9 12h1v1H9z" fill="#c3ffe1" /><path d="M7 12h1v1H7z" fill="#fff" /><path d="M34 12h1v1h-1z" fill="#c3ffe1" /><path d="M36 12h1v1h-1z" fill="#fff" /><g class="gotchi-sleeves gotchi-sleeves-left gotchi-sleeves-up"><path d="M3 10V9H2V8H1V6H0V5h2V0h2v1h1.5v9H3z" /><path d="M2 5V0h2v1h1v4H2z" fill="#464646" /><path d="M4 9V6h1v3H4zM2 6h1v2H2V6z" fill="#c3ffe1" /><path d="M4 6h1v1H4z" fill="#51ffa8" /><path d="M4 8h1v1H4zM2 7h1v1H2z" fill="#fff" /></g><path d="M3 0v1H2v1H1v2H0v1h2v5h2V9h1.5V0H3z" /><path d="M2 5v5h2V9h1V5H2z" fill="#464646" /><path d="M4 1v3h1V1H4zM2 4h1V2H2v2z" fill="#c3ffe1" /><path d="M4 3h1v1H4z" fill="#51ffa8" /><path d="M4 1h1v1H4zM2 2h1v1H2z" fill="#fff" /><g class="gotchi-sleeves gotchi-sleeves-right gotchi-sleeves-up"><path d="M41 10V9h1V8h1V6h1V5h-2V0h-2v1h-1.5v9H41z" /><path d="M42 5V0h-2v1h-1v4h3z" fill="#464646" /><path d="M40 9V6h-1v3h1zm2-3h-1v2h1V6z" fill="#c3ffe1" /><path d="M39 6h1v1h-1z" fill="#51ffa8" /><path d="M39 8h1v1h-1zm2-1h1v1h-1z" fill="#fff" /></g><path d="M41 0v1h1v1h1v2h1v1h-2v5h-2V9h-1.5V0H41z" /><path d="M42 5v5h-2V9h-1V5h3z" fill="#464646" /><path d="M40 1v3h-1V1h1zm2 3h-1V2h1v2z" fill="#c3ffe1" /><path d="M39 3h1v1h-1z" fill="#51ffa8" /><path d="M39 1h1v1h-1zm2 1h1v1h-1z" fill="#fff" /></g></svg></g></svg>