<?xml version="1.0" encoding="UTF-8"?>
<svg width="64" height="64" viewBox="0 0 64 64" xmlns="http://www.w3.org/2000/svg">
  <defs>
    <style>
      .gotchi-primary { fill: #FF6B9D; }
      .gotchi-secondary { fill: #F4AFDD; }
      .gotchi-cheek { fill: #F696C6; }
      .gotchi-primary-mouth { fill: #FF6B9D; }
      .gotchi-shadow { fill: #000000; }
      .gotchi-handsDownClosed { display: block; }
      .gotchi-handsDownOpen { display: none; }
      .gotchi-handsUp { display: none; }
      .gotchi-body { display: block; }
    </style>
  </defs>
  <g class="gotchi-primary"><path d="M23 26H22H21V27V28H22H23V27V26Z"></path><path d="M29 27V26H28H27V27V28H28H29V27Z"></path><path d="M25 28H24H23V29V30H24H25H26H27V29V28H26H25Z"></path><path d="M43 28V27V26H42H41V27V28H42H43Z"></path><path d="M37 27V26H36H35V27V28H36H37V27Z"></path><path d="M37 30H38H39H40H41V29V28H40H39H38H37V29V30Z"></path></g>
</svg>