<svg xmlns="http://www.w3.org/2000/svg" xmlns="http://www.w3.org/2000/svg" viewBox="0 0 64 64"><g class="gotchi-wearable wearable-head"><svg x="30" y="4"><path d="M6 0v1H5v2H4v1H3v2H2v1H1v2H0v4h2v1h4V8h1V0H6z" fill="#002de4" /><path d="M5 3v1H4v3h2V3H5zM3 8V7H2v2H1v3h2v1h2V8H3z" fill="#1973ff" /><path d="M5 3v1H4v3h1V5h1V3H5zM3 7H2v2H1v3h1v-1h1V9h1V8H3V7z" fill="#9dc3ff" /></svg></g><g class="gotchi-wearable gotchi-secondary"><path d="M32 40v1h-1v-1h1z" /><path d="M33 42v-1h-1v1h1v1h2v-1h-2z" /><path d="M39 43v1h-4v-1h4z" /></g></svg>