<svg xmlns="http://www.w3.org/2000/svg" xmlns="http://www.w3.org/2000/svg" viewBox="0 0 64 64"><g class="gotchi-wearable wearable-body"><svg x="12" y="32"><g><path d="M3 23h4v-2h5v2h5v-2h6v2h5v-2h5v2h4V9h.5V1h-35v8H3v14z" fill="#c8c8c8" /><path d="M4,2h32v18H4V2z" fill="#fff" /><g class="gotchi-sleeves gotchi-sleeves-left gotchi-sleeves-up"><path d="M2,0v1h1.5v8H2V8H1V7H0V0H2z" fill="#c8c8c8" /><path d="M3,8H2V7h1V8z" fill="orange" /><path d="M3,2H2V1H1v6h2V2z" fill="#fff" /></g><path d="M1,0v1h1v1H1v1H0v7h2V9h1.5V1H3V0H1z" fill="#c8c8c8" /><path d="M2,2h1v1H2V2z" fill="orange" /><path d="M3,3H1v6h1V8h1V3z" fill="#fff" /><g class="gotchi-sleeves gotchi-sleeves-right gotchi-sleeves-up"><path d="M38,0v1h-1.5v8H38V8h1V7h1V0H38z" fill="#c8c8c8" /><path d="M37,7h1v1h-1V7z" fill="orange" /><path d="M37,7h2V1h-1v1h-1V7z" fill="#fff" /></g><path d="M39 3V2h-1V1h1V0h-2v1h-.5v8H38v1h2V3h-1z" fill="#c8c8c8" /><path d="M37,2h1v1h-1V2z" fill="orange" /><path d="M37,8h1v1h1V3h-2V8z" fill="#fff" /></g></svg></g></svg>