<svg xmlns="http://www.w3.org/2000/svg" xmlns="http://www.w3.org/2000/svg" viewBox="0 0 64 64"><g class="gotchi-wearable wearable-body"><svg x="20" y="33"><g><path d="M0 5v17h3v-2h3v2h4v-2h4v2h4v-2h3v2h3V0H11v1H9v1H7v1H5v1H1v1H0z" fill="#15488c" /><g fill="#4a71a6"><path d="M0 15v5h3v-2h3v2h6v-1h-1v-1h-1v-3H0z" /><path d="M11 18h1v-3h-1v1 2zm2-3v5h5v-2h3v2h2v-5H13z" /></g><g fill="#b8c7dc"><path d="M13 1v13h10V1H13zM0 6v2h1V7h1V6h1V5H1v1H0z" /><path d="M2 8H1v1H0v5h12V1h-1v1H9v1H7v1H5v1H4v1H3v1H2v1zm3 0h4v1H5V8z" /></g></g></svg></g><g class="gotchi-wearable gotchi-secondary"><path d="M33 40v1h-1v-1h1z" /><path d="M29,42v1h2v-1h1v-1h-1v1H29z" /><path d="M29 43v1h-4v-1h4z" /></g></svg>