<svg xmlns="http://www.w3.org/2000/svg" xmlns="http://www.w3.org/2000/svg" viewBox="0 0 64 64"><g class="gotchi-wearable wearable-eyes"><svg x="19" y="21"><path d="M25 0v1h-9v1h-3v1h-2v1h-1v3H9v2H7v1H0V0h25z" opacity=".588" fill="#2aa4ff" enable-background="new" /><path d="M25 0v1h-9v1h-3v1h-2v1h-1V3H9V2H8V1H3v1H0V0h25z" /><path d="M11 1v1H9V1h2z" fill="#db3ffd" /><g fill="#fff"><path d="M4 2h1v1H4zm2 0h1v1H6z" /><path d="M3 3h1v1H3zm2 0h1v1H5z" /><path d="M2 4h1v1H2zm2 0h1v1H4z" /></g></svg></g><g class="gotchi-wearable gotchi-secondary"><path d="M33 40v1h-1v-1h1z" /><path d="M29,42v1h2v-1h1v-1h-1v1H29z" /><path d="M29 43v1h-4v-1h4z" /></g></svg>