<svg xmlns="http://www.w3.org/2000/svg" xmlns="http://www.w3.org/2000/svg" viewBox="0 0 64 64"><g class="gotchi-wearable wearable-hand wearable-hand-left"><svg x="33" y="32"><path d="M12 7V5h-1V3h-1V2H9V1H7V0H2v1H1v1H0v4h1v1h1v1h1v4H2v1H1v1H0v4h1v1h1v1h5v-1h2v-1h1v-1h1v-2h1v-2h1V7h-1zm-7 5V8H4V7h2v1h1v4H6v1H4v-1h1z" fill="#d7c3b4" /><path d="M3 2v2h2V2H3z" fill="#0ff" /><path d="M7 5v2h2V5H7z" fill="#ff0" /><path d="M3 16v2h2v-2H3z" fill="#7d00ff" /><path d="M7 13v2h2v-2H7z" fill="#f0f" /><path d="M9 9v2h2V9H9z" fill="#0f0" /></svg></g><g class="gotchi-wearable gotchi-secondary"><path d="M32 40v1h-1v-1h1z" /><path d="M33 42v-1h-1v1h1v1h2v-1h-2z" /><path d="M39 43v1h-4v-1h4z" /></g></svg>