<svg xmlns="http://www.w3.org/2000/svg" xmlns="http://www.w3.org/2000/svg" viewBox="0 0 64 64"><g class="gotchi-wearable wearable-body"><svg x="8" y="29"><g><path d="M44 23v-1h-1v-1h-1v-2h-1V8h1V7h1V5h-1V4h-3v1h-3v1h-4v1h-3v1h-2v1h-6V8h-2V7h-3V6h-4V5H9V4H6v1H5v2h1v1h1v11H6v2H5v1H4v1H3v3h1v1h3v1h12v-1h2v-1h6v1h2v1h12v-1h3v-1h1v-3h-1z" fill="#2d7d5c" /><path d="M40 21v-2h-1V9h-2v1h-1v1h-1v1h-3v1h-3v1H19v-1h-3v-1h-3v-1h-1v-1h-1V9H9v10H8v2H7v2h2v1h10v-1h2v-1h6v1h2v1h10v-1h2v-2h-1z" fill="#bfffd2" /><path d="M6 8h3v1h2v1h1v1h1v1h3v1h3v1h10v-1h3v-1h3v-1h1v-1h1V9h2V8h3V7h1V5h-1V4h-3v1h-3v1h-4v1h-3v1h-2v1h-6V8h-2V7h-3V6h-4V5H9V4H6v1H5v2h1v1zm38 15v-1h-3v1h-2v1H29v-1h-2v-1h-6v1h-2v1H9v-1H7v-1H4v1H3v3h1v1h3v1h12v-1h2v-1h6v1h2v1h12v-1h3v-1h1v-3h-1z" fill="#176dad" /><g fill="#1fba7d"><path d="M16 16v2h1v-3h-1v1zm16 0v-1h-1v3h1v-2z" /><path d="M15 19v1h1v-2h-1v1zm18-1h-1v2h1v-2z" /><path d="M14 20h1v1h-1zm19 0h1v1h-1z" /><path d="M13 21h1v1h-1zm21 0h1v1h-1z" /></g><path d="M8 7h1v1h2v1h1v1h1v1h3v1h3v1h10v-1h3v-1h3v-1h1V9h1V8h2V7h3V5h-3v1h-3v1h-4v1h-3v1h-2v1h-6V9h-2V8h-3V7h-4V6H9V5H6v2h2zm35 16h-2v1h-2v1H29v-1h-2v-1h-6v1h-2v1H9v-1H7v-1H4v3h3v1h12v-1h2v-1h6v1h2v1h12v-1h3v-3h-1z" fill="#bfdcff" /><g fill="#f5fdff"><path d="M8 6h1V5H6v1h2zm33 0h1V5h-3v1h2z" /><path d="M10 7h1v1h1v1h1v1h3V9h-2V8h2V7h-4V6H9v1h1z" /><path d="M17 9v1h-1v2h5v1h8v-1h3v-2h-2V9h2V8h-3v1h-2v1h-6V9h-2V8h-3v1h1zm9 2h1v1h-2v-1h1z" /><path d="M33 9h-1v1h3V9h1V8h1V7h2V6h-3v1h-4v1h1v1zm10 14h-2v1h-2v1h-1v1h-2v-1h-3v1h-2v-1h-2v-1h-2v-1h-1v1h-2v-1h-3v1h-2v1h-3v1h-2v-1h-3v1H9v-1H8v-1H7v-1H4v2h2v1h2v1h10v-1h2v-1h8v1h2v1h9v-1h3v-1h2v-2h-1z" /></g><g class="gotchi-sleeves gotchi-sleeves-left gotchi-sleeves-up"><path d="M1 8V7h1V5h1V2H2V1h1V0h2v1h1v1h1v2h.2v8H6v-1H5v-1H1V9H0V8h1z" fill="#176dad" /><g fill="#bfdcff"><path d="M7.5 6v1H6V5h1.5v1z" /><path d="M2 8V7h1V5h1V2H3V1h2v1h1v3H5v3H4v1H1V8h1z" /></g><path d="M7.5 8v3H6v-1H5V8h2.5z" fill="#bfffd2" /><g fill="#2d7d5c"><path d="M4 9h1v1H4z" /><path d="M5 10h1v1H5z" /><path d="M6 11h1.5v1H6z" /></g><g fill="#f5fdff"><path d="M6 5h1.5v1H6z" /><path d="M4 5V2H3V1h2v1h1v3H5v2H4V5z" /><path d="M3 7h1v1H3z" /></g></g><path d="M1 7V6h4V5h1V4h1.2v1 2 1 6H6v1H5v1H3v-1H2v-4H1V8H0V7h1z" fill="#176dad" /><path d="M6 7v1h1.5v5H6v-3H5V8H4V7h2z" fill="#bfffd2" /><path d="M5 6v1H3V6h2zm1 7h1.5v1H6z" fill="#2d7d5c" /><path d="M7.5 7H6V5h1.5v2zM3 7v1h1v2h1v5H3v-4H2V8H1V7h2z" fill="#bfdcff" /><path d="M6 5h1.5v1H6zM3 7v1h1v2h1v4H4v-1H3V9H2V8H1V7h2z" fill="#f5fdff" /><g class="gotchi-sleeves gotchi-sleeves-right gotchi-sleeves-up"><path d="M47 8V7h-1V5h-1V2h1V1h-1V0h-2v1h-1v1h-1v2h-.2v8H42v-1h1v-1h4V9h1V8h-1z" fill="#176dad" /><g fill="#bfdcff"><path d="M40.5 6v1H42V5h-1.5v1z" /><path d="M46 8V7h-1V5h-1V2h1V1h-2v1h-1v3h1v3h1v1h3V8h-1z" /></g><path d="M40.5 8v3H42v-1h1V8h-2.5z" fill="#bfffd2" /><g fill="#2d7d5c"><path d="M43 9h1v1h-1z" /><path d="M42 10h1v1h-1z" /><path d="M40.5 11H42v1h-1.5z" /></g><g fill="#f5fdff"><path d="M40.5 5H42v1h-1.5z" /><path d="M44 5V2h1V1h-2v1h-1v3h1v2h1V5z" /><path d="M44 7h1v1h-1z" /></g></g><path d="M47 7V6h-4V5h-1V4h-1.2v1 2 1 6H42v1h1v1h2v-1h1v-4h1V8h1V7h-1z" fill="#176dad" /><path d="M42 7v1h-1.5v5H42v-3h1V8h1V7h-2z" fill="#bfffd2" /><path d="M43 6v1h2V6h-2zm-2.5 7H42v1h-1.5z" fill="#2d7d5c" /><path d="M40.5 7H42V5h-1.5v2zM45 7v1h-1v2h-1v5h2v-4h1V8h1V7h-2z" fill="#bfdcff" /><path d="M40.5 5H42v1h-1.5zM45 7v1h-1v2h-1v4h1v-1h1V9h1V8h1V7h-2z" fill="#f5fdff" /></g></svg></g></svg>