<svg xmlns="http://www.w3.org/2000/svg" xmlns="http://www.w3.org/2000/svg" viewBox="0 0 64 64"><g class="gotchi-wearable wearable-body"><svg x="10" y="31"><g><path d="M5 2v22h4v-2h5v2h5v-2h6v2h5v-2h5v2h4V2H5z" fill="#321227" /><path d="M5 15v9h4v-2h5v2h5v-2h6v2h5v-2h5v2h4v-9H5z" fill="#376560" /><path d="M6 3v11h32V3H6z" fill="#482b3e" /><path d="M38 17v-1H6v1h1v1H6v1h1v1H6v2h3v-2h5v2h5v-2h6v2h5v-2h5v2h3v-2h-1v-1h1v-1h-1v-1h1zm-3 0v1h-5v-1h5zm-21 0v1H9v-1h5z" fill="#6ca958" /><g class="gotchi-sleeves gotchi-sleeves-left gotchi-sleeves-up"><path d="M4 13v-1H3v-1H2v-1H0V0h2v1h2v1h1.5v11H4z" fill="#321227" /><path d="M4 12V3h1v9H4z" fill="#b49698" /><path d="M2 10V2h1v8H2z" fill="#6ca958" /></g><path d="M4 2v1H3v1H2v1H0v10h2v-1h2v-1h1.5V2H4z" fill="#321227" /><path d="M4 3v9h1V3H4z" fill="#b49698" /><path d="M2 5v8h1V5H2z" fill="#6ca958" /><g class="gotchi-sleeves gotchi-sleeves-right gotchi-sleeves-up"><path d="M40 13v-1h1v-1h1v-1h2V0h-2v1h-2v1h-1.5v11H40z" fill="#321227" /><path d="M40 12V3h-1v9h1z" fill="#b49698" /><path d="M42 10V2h-1v8h1z" fill="#6ca958" /></g><path d="M40 2v1h1v1h1v1h2v10h-2v-1h-2v-1h-1.5V2H40z" fill="#321227" /><path d="M40 3v9h-1V3h1z" fill="#b49698" /><path d="M42 5v8h-1V5h1z" fill="#6ca958" /></g></svg></g></svg>