<svg xmlns="http://www.w3.org/2000/svg" xmlns="http://www.w3.org/2000/svg" viewBox="0 0 64 64"><g class="gotchi-wearable wearable-face"><svg x="39" y="32"><g fill="#bdbba6"><path d="M5 1V0H2v1H1v2H0v9h1v-2h1V8h1V6h1V5h1V4h1V1H5z" /><path d="M5 7v7h1V6H4v1h1z" /></g><g fill="#eeecdf"><path d="M1 4v1h1V3H1v1zm3-3H3v1h2V1H4z" /><path d="M2 2h1v1H2z" /></g></svg></g><g class="gotchi-wearable gotchi-secondary"><path d="M32 40v1h-1v-1h1z" /><path d="M33 42v-1h-1v1h1v1h2v-1h-2z" /><path d="M39 43v1h-4v-1h4z" /></g></svg>