<svg xmlns="http://www.w3.org/2000/svg" xmlns="http://www.w3.org/2000/svg" viewBox="0 0 64 64"><g class="gotchi-wearable wearable-body"><svg x="12" y="32"><g><path d="M3,1v20h34V1H3z" fill="#323232" /><path d="M4,2v18h32V2H4z" /><path d="M23,9.5v-1h-1v-1h-4v1h-1v1h-1v5h2v-1h1v1h2v-1h1v1h2v-5H23z" fill="#323232" /><path d="M19.5 9.5v3h1v-3h-1z" /><g class="gotchi-sleeves gotchi-sleeves-left gotchi-sleeves-up"><path d="M2,9V8H1V7H0V0h2v1h1.3v8H2z" fill="#323232" /><path d="M2,8V7H1V1h1v1h1v6H2z" /></g><path d="M2,1v1H1v1H0v7h2V9h1.3V1H2z" fill="#323232" /><path d="M2,2v1H1v6h1V8h1V2H2z" /><g class="gotchi-sleeves gotchi-sleeves-right gotchi-sleeves-up"><path d="M36.7,9V1H38V0h2v7h-1v1h-1v1H36.7z" fill="#323232" /><path d="M37,8V2h1V1h1v6h-1v1H37z" /></g><path d="M38,1v1h1v1h1v7h-2V9h-1.3V1H38z" fill="#323232" /><path d="M38 2v1h1v6h-1V8h-1V2h1z" /></g></svg></g></svg>