<svg xmlns="http://www.w3.org/2000/svg" xmlns="http://www.w3.org/2000/svg" viewBox="0 0 64 64"><g class="gotchi-wearable wearable-body"><svg x="7" y="31"><g><path d="M38 2v2H12V2H7.5v1H8v21h4v-2h5v2h5v-2h6v2h5v-2h5v2h4V3h.5V2H38z" fill="#d8d800" /><path d="M39,3v2H11V3H7.5v7H9v12h24v-2h5v2h3V10h1.5V3H39z" fill="#ff0" /><path d="M17 22h5v2h-5v-2zm11 0h5v2h-5v-2z" /><path d="M8 23h4v1H8v-1zm14-3h6v2h-6v-2zm16 3h4v1h-4v-1zm-5-3h5v2h-5v-2zm-21 0h5v2h-5v-2z" /><path d="M29,8V7h-1V6h-1V5h-4v1h-1v1h-1v1h-1v11h1v1h8v-1h1V8H29z" fill="#333" /><path d="M21,8h8v11h-8V8z" fill="#4d4d4d" /><path d="M22,7h6v12h-6V7z" fill="#666" /><path d="M23,6h4v13h-4V6z" fill="#999" /><path d="M24,6v13h2V6H24z" fill="#d3d3d3" /><g class="gotchi-sleeves gotchi-sleeves-left gotchi-sleeves-up"><path d="M1 5v1h2v1h2v1h1v1h1v1h1.2V3h.2V2H7V1H5V0H1v1H0v4h1z" fill="#d8d800" /><path d="M5,7V6h1V1H5V0H1v1H0v4h1v1h2v1H5z" /><path d="M8 9v1h.5V3H7V2H6v4H5v1h1v1h1v1h1z" fill="#ff0" /><path d="M1,2h3V1H1V2z" fill="#666" /></g><path d="M0,7v4h1v1h4v-1h2v-1h1.5V9H8.2V3H9V2H7v1H6v1H5v1H3v1H1v1H0z" fill="#d8d800" /><path d="M3,5v1H1v1H0v4h1v1h4v-1h1V6H5V5H3z" /><path d="M7,3v1H6v1H5v1h1v4h1V9h1v1h1V3H7z" fill="#ff0" /><path d="M1 11h3v-1H1v1z" fill="#666" /><g class="gotchi-sleeves gotchi-sleeves-right gotchi-sleeves-up"><path d="M50 5V1h-1V0h-4v1h-2v1h-1.5v1h.2v7H43V9h1V8h1V7h2V6h2V5h1z" fill="#d8d800" /><path d="M47 7V6h2V5h1V1h-1V0h-4v1h-1v5h1v1h2z" /><path d="M43 9V8h1V7h1V6h-1V2h-1v1h-1.5v7h.5V9h1z" fill="#ff0" /><path d="M49,1h-3v1h3V1z" fill="#666" /></g><path d="M49 7V6h-2V5h-2V4h-1V3h-1V2h-2v1h.8v6h-.2v1H43v1h2v1h4v-1h1V7h-1z" fill="#d8d800" /><path d="M45,5v1h-1v5h1v1h4v-1h1V7h-1V6h-2V5H45z" /><path d="M41,3v7h1V9h1v1h1V6h1V5h-1V4h-1V3H41z" fill="#ff0" /><path d="M49,10h-3v1h3V10z" fill="#666" /></g></svg></g></svg>