<svg xmlns="http://www.w3.org/2000/svg" xmlns="http://www.w3.org/2000/svg" viewBox="0 0 64 64"><g class="gotchi-wearable wearable-face"><svg x="37" y="32"><g fill="#7d00ff"><path d="M9 18h1v1H9zm2 1h1v1h-1z" /><path d="M10 21H9v-2H8V2H7V0H5v19H4v2H3v1H2v1h9v-1h-1v-1zm2 1h1v1h-1z" /></g><path d="M5 0v2h2V0H5z" fill="#64438e" /><g fill="#007dff"><path d="M5 2v17H4v2H3v1H2v1h5V2H5z" /><path d="M3 18h1v1H3zm-2 1h1v1H1zm-1 3h1v1H0z" /></g><path d="M6 2v21h1V2H6z" fill="#0ff" /></svg></g><g class="gotchi-wearable gotchi-secondary"><path d="M32 40v1h-1v-1h1z" /><path d="M33 42v-1h-1v1h1v1h2v-1h-2z" /><path d="M39 43v1h-4v-1h4z" /></g></svg>