<svg xmlns="http://www.w3.org/2000/svg" xmlns="http://www.w3.org/2000/svg" viewBox="0 0 64 64"><g class="gotchi-wearable wearable-body"><svg x="20" y="33"><g><svg width="24" height="20"><path d="M0 7v13h24V0H9v1H8v1H7v1H6v1H5v1H4v1H2v1H0z" fill="#000064" /><path d="M0 8v11h24V1H9v1H8v1H7v1H6v1H5v1H4v1H2v1H0z" fill="#00f" /><path d="M21 8h3v3h-3zm-3 0V7h-1v4h3V8h-2zM0 10h3v3H0z" fill="#fff" /></svg></g></svg></g><g class="gotchi-wearable gotchi-secondary"><path d="M33 40v1h-1v-1h1z" /><path d="M29,42v1h2v-1h1v-1h-1v1H29z" /><path d="M29 43v1h-4v-1h4z" /></g></svg>