<?xml version="1.0" encoding="UTF-8"?>
<svg width="64" height="64" viewBox="0 0 64 64" xmlns="http://www.w3.org/2000/svg">
  <defs>
    <style>
      .gotchi-primary { fill: 0x000000; }
      .gotchi-secondary { fill: 0xfbdfeb; }
      .gotchi-cheek { fill: 0xf696c6; }
      .gotchi-collateral { fill: 0x000000; }
      .gotchi-eyeColor { fill: 0x000000; }
      .gotchi-shadow { fill: #000000; }
    </style>
  </defs>
  <g class="gotchi-collateral"><path d="M35.5 20h1v-1h1v-5h-1v-1h-1v-1h-1v-1h-5v1h-1v1h-1v1h-1v5h1v1h1v1h1v1h5v-1h1v-1zm0-2h-1v1h-4v-1h-1v-3h1v-1h4v1h1v3z"/><path d="M28.5 15h1v-1h1v-1h3v-1h-4v1h-1v1h-1v5h1v1h1v1h4v-1h-3v-1h-1v-1h-1v-3z" fill="#e51b6d"/></g>
</svg>