<svg xmlns="http://www.w3.org/2000/svg" xmlns="http://www.w3.org/2000/svg" viewBox="0 0 64 64"><g class="gotchi-wearable wearable-body"><svg x="12" y="30"><g><svg width="40" height="25"><path d="M33 2v1h-2v1H9V3H7V2H3v23h4v-2h5v2h5v-2h6v2h5v-2h5v2h4V2h-4z" fill="#00396d" /><g fill="#0098dc"><path d="M3 2v1h4V2H3zm30 0v1h4V2h-4z" /><path d="M7 3v1h2V3H7zm24 1h2V3h-2v1z" /><path d="M9 4h1v1H9zm21 0h1v1h-1z" /><path d="M10 5h1v1h-1zm19 0h1v1h-1z" /><path d="M11 6h1v1h-1zm17 0h1v1h-1z" /><path d="M12 9h1V7h-1v2zm15 0h1V7h-1v2z" /></g><path d="M33 4v1h-2v1h-1v1h-1v3h2v1h6V4h-4zm-4 1h1V4H10v1h1v1h1v1h1v1h14V7h1V6h1V5zM10 6H9V5H7V4H3v7h6v-1h2V7h-1V6z" fill="#134c4c" /><g fill="#0069aa"><path d="M31 12v-1h-2v-1h-1V9H12v1h-1v1H9v1H5v11h2v-2h5v2h5v-2h6v2h5v-2h5v2h2V12h-4zm0 5h-1v1h-6v-1h-1v-4h8v4zm-14-4v4h-1v1h-6v-1H9v-4h8z" /><path d="M16 14h-6v3h6v-3zm14 0h-6v3h6v-3z" /></g><path d="M33 4v1h-2v1h-1v1h-1v3h2v1h5V4h-3zm-4 1H11v1h1v1h1v1h14V7h1V6h1V5zM10 6H9V5H7V4H4v7h5v-1h2V7h-1V6z" fill="#1e6f50" /><g fill="#33984b"><path d="M4 4h1v1H4zm2 0h1v1H6zm27 0h1v1h-1zm2 0h1v1h-1z" /><path d="M5 5h1v1H5zm2 0h1v1H7zm4 0h1v1h-1zm2 0h1v1h-1zm2 0h1v1h-1zm2 0h1v1h-1zm2 0h1v1h-1zm2 0h1v1h-1zm2 0h1v1h-1zm2 0h1v1h-1zm2 0h1v1h-1zm5 0h1v1h-1zm2 0h1v1h-1z" /><path d="M4 6h1v1H4zm2 0h1v1H6zm2 0h1v1H8zm4 0h1v1h-1zm2 0h1v1h-1zm2 0h1v1h-1zm2 0h1v1h-1zm2 0h1v1h-1zm2 0h1v1h-1zm2 0h1v1h-1zm2 0h1v1h-1zm5 0h1v1h-1zm2 0h1v1h-1zm2 0h1v1h-1z" /><path d="M5 7h1v1H5zm2 0h1v1H7zm2 0h1v1H9zm4 0h1v1h-1zm2 0h1v1h-1zm2 0h1v1h-1zm2 0h1v1h-1zm2 0h1v1h-1zm2 0h1v1h-1zm2 0h1v1h-1zm5 0h1v1h-1zm2 0h1v1h-1zm2 0h1v1h-1z" /><path d="M4 8h1v1H4zm2 0h1v1H6zm2 0h1v1H8zm2 0h1v1h-1zm19 0h1v1h-1zm2 0h1v1h-1zm2 0h1v1h-1zm2 0h1v1h-1z" /><path d="M5 9h1v1H5zm2 0h1v1H7zm2 0h1v1H9zm21 0h1v1h-1zm2 0h1v1h-1zm2 0h1v1h-1z" /><path d="M4 10h1v1H4zm2 0h1v1H6zm2 0h1v1H8zm23 0h1v1h-1zm2 0h1v1h-1zm2 0h1v1h-1z" /></g></svg><g class="gotchi-sleeves gotchi-sleeves-left gotchi-sleeves-up"><svg width="40" height="25"><path d="M1 9v1h1v1h2V2H3V1H2V0H0v9z" fill="#134c4c" /><path d="M2 9v1h1V2H2V1H1v8h1z" fill="#1e6f50" /><g fill="#33984b"><path d="M2 9h1v1H2z" /><path d="M1 8h1v1H1z" /><path d="M2 7h1v1H2z" /><path d="M1 6h1v1H1z" /><path d="M2 5h1v1H2z" /><path d="M1 4h1v1H1z" /><path d="M2 3h1v1H2z" /><path d="M1 2h1v1H1z" /></g></svg></g><svg width="40" height="25"><path d="M1 5V4h1V3h2v8H3v1 1H2v1H0V5z" fill="#134c4c" /><path d="M2 5V4h1v8H2v1H1V5h1z" fill="#1e6f50" /><g fill="#33984b"><path d="M2 4h1v1H2z" /><path d="M1 5h1v1H1z" /><path d="M2 6h1v1H2z" /><path d="M1 7h1v1H1z" /><path d="M2 8h1v1H2z" /><path d="M1 9h1v1H1z" /><path d="M2 10h1v1H2z" /><path d="M1 11h1v1H1z" /></g></svg><g class="gotchi-sleeves gotchi-sleeves-right gotchi-sleeves-up"><svg width="40" height="25"><path d="M39 9v1h-1v1h-2V2h1V1h1V0h2v9z" fill="#134c4c" /><path d="M38 9v1h-1V2h1V1h1v8h-1z" fill="#1e6f50" /><g fill="#33984b"><path d="M37 9h1v1h-1z" /><path d="M38 8h1v1h-1z" /><path d="M37 7h1v1h-1z" /><path d="M38 6h1v1h-1z" /><path d="M37 5h1v1h-1z" /><path d="M38 4h1v1h-1z" /><path d="M37 3h1v1h-1z" /><path d="M38 2h1v1h-1z" /></g></svg></g><svg width="40" height="25"><path d="M39 5V4h-1V3h-2v8h1v2h1v1h2V5z" fill="#134c4c" /><path d="M38 5V4h-1v8h1v1h1V5h-1z" fill="#1e6f50" /><g fill="#33984b"><path d="M37 4h1v1h-1z" /><path d="M38 5h1v1h-1z" /><path d="M37 6h1v1h-1z" /><path d="M38 7h1v1h-1z" /><path d="M37 8h1v1h-1z" /><path d="M38 9h1v1h-1z" /><path d="M37 10h1v1h-1z" /><path d="M38 11h1v1h-1z" /></g></svg></g></svg></g></svg>