<svg xmlns="http://www.w3.org/2000/svg" xmlns="http://www.w3.org/2000/svg" viewBox="0 0 64 64"><g class="gotchi-wearable wearable-body"><svg x="20" y="31"><g><path d="M23 6V5h-2V4h-2V3h-2V2H0v22h3v-2h3v2h4v-2h4v2h4v-2h3v2h3V6h-1z" fill="#321227" /><path d="M0 15v9h3v-2h3v2h4v-2h4v2h4v-2h3v2h3v-9H0z" fill="#376560" /><path d="M0 3v11h11V3H0zm23 4V6h-2V5h-2V4h-2V3h-5v11h12V7h-1z" fill="#482b3e" /><path d="M12 16v4h2v2h4v-2h3v2h3v-6H12zM0 16v2h3v1H0v3h3v-2h3v2h4v-2h1v-4H0zm9 1v1H7v-1h2zm-2 3v-1h2v1H7z" fill="#6ca958" /></g></svg></g><g class="gotchi-wearable gotchi-secondary"><path d="M32 40v1h-1v-1h1z" /><path d="M33 42v-1h-1v1h1v1h2v-1h-2z" /><path d="M39 43v1h-4v-1h4z" /></g></svg>