<svg xmlns="http://www.w3.org/2000/svg" xmlns="http://www.w3.org/2000/svg" viewBox="0 0 64 64"><g class="gotchi-wearable wearable-eyes"><svg x="19" y="19"><svg width="8" height="12"><path d="M1 1V0h4v1h1v1h1v1h1v6H7v1H6v1H4v1H1v-1H0V1h1z" fill="#131313" /><path d="M5 1v1h1v1h1v2H1V1h4z" fill="#900091" /><path d="M6 6v4H5V6h1z" fill="#0f0" /><path d="M4 6v5H3V6h1z" fill="#03ffff" /><path d="M2 6v5H1V6h1z" fill="#7d00ff" /><g fill="#fe33ff"><path d="M1 2h1v1H1z" /><path d="M4 1v1H2V1h2z" /></g></svg></svg></g><g class="gotchi-wearable gotchi-secondary"><path d="M33 40v1h-1v-1h1z" /><path d="M29,42v1h2v-1h1v-1h-1v1H29z" /><path d="M29 43v1h-4v-1h4z" /></g></svg>