<svg xmlns="http://www.w3.org/2000/svg" xmlns="http://www.w3.org/2000/svg" viewBox="0 0 64 64"><g class="gotchi-wearable wearable-hand wearable-hand-left"><svg x="37" y="33"><path d="M0 0v12h2V0H0z" fill="#7e18f8" /><path d="M0 6v2h2V6H0z" fill="#ac15f9" /><path d="M0 8v2h2V8H0z" fill="#8f17f9" /><path d="M0 2v2h2V2H0z" fill="#fa34f3" /><path d="M0 4v2h2V4H0z" fill="#cf15f9" /><path d="M0 0v2h2V0H0z" fill="#fa34f3" /></svg></g><g class="gotchi-wearable gotchi-secondary"><path d="M32 40v1h-1v-1h1z" /><path d="M33 42v-1h-1v1h1v1h2v-1h-2z" /><path d="M39 43v1h-4v-1h4z" /></g></svg>