<svg xmlns="http://www.w3.org/2000/svg" xmlns="http://www.w3.org/2000/svg" viewBox="0 0 64 64"><g class="gotchi-wearable wearable-head"><svg x="19" y="4"><path d="M1 13v-3h1V8h1V7h1V6h1V5h1V4h1V3h3V2h2V0h2v2h2v1h3v1h1v1h1v1h1v1h1v1h1v2h1v8H1v2H0v-7h1z" fill="#828282" /><path d="M0 16h1v1H0zm4 0v2H2v-2h2zm12 0v2h-2v-2h2zm-4 0v2h-2v-2h2zm-4 0v2H6v-2h2zm12 0v2h-2v-2h2zm4 0v2h-2v-2h2z" fill="#d2d2d2" /><g fill="#3b2924"><path d="M2 10h1V8h1V7h1V6h1V5h1V4h12v1h1v1h1v1h1v1h1v2h1v6H3v-3H2v-3z" /><path d="M2 13v2H1v-2h1z" /></g><path d="M10 4V2h2V0h2v2h2v2h2v4h-2v2h-2v2h-2v-2h-2V8H8V4h2z" fill="#d2d2d2" /><g fill="#fff"><path d="M12 3h1v3h-1V3z" /><path d="M11 6h1v1h-1z" /></g></svg></g><g class="gotchi-wearable gotchi-secondary"><path d="M33 40v1h-1v-1h1z" /><path d="M29,42v1h2v-1h1v-1h-1v1H29z" /><path d="M29 43v1h-4v-1h4z" /></g></svg>