<svg xmlns="http://www.w3.org/2000/svg" xmlns="http://www.w3.org/2000/svg" viewBox="0 0 64 64"><g class="gotchi-wearable wearable-eyes"><svg x="20" y="20"><svg width="25" height="11"><path d="M22,0v1h-2v1h-1v2h-1v1h-2v1h2v1h1v2h1v1h2v1h3V0h-3Z" /><path d="M0 4v1h16V4H0z" /><path d="M22,1v1h-2v2h-1v3h1v2h2v1h3V1h-3Z" fill="#0122cd" /><path d="M19 5v1h6V5h-6z" fill="#fff" /><path d="M25 1h-3v1h-2v2h-1v1h6V1z" fill="#05f" /></svg></svg></g><g class="gotchi-wearable gotchi-secondary"><path d="M32 40v1h-1v-1h1z" /><path d="M33 42v-1h-1v1h1v1h2v-1h-2z" /><path d="M39 43v1h-4v-1h4z" /></g></svg>