<svg xmlns="http://www.w3.org/2000/svg" xmlns="http://www.w3.org/2000/svg" viewBox="0 0 64 64"><g class="gotchi-wearable wearable-head"><svg x="19" y="8"><path d="M25 0v2h-2v2h-2v2h-2v2h-2V6h-2v2h-2V6h-2v2H9V6H7v2H5V6H3v2H1V6H0v4h26V0h-1z" fill="#ffc03c" /><path d="M25 3v1h-1v1h-1v2h1v1h1v1h1V3h-1z" fill="#ffd781" /><path d="M25 4v1h-1v2h1v1h1V4h-1z" fill="#ffeabe" /><path d="M25 5v2h1V5h-1z" fill="#64438e" /><path d="M25 5h1v1h-1z" fill="#715398" /></svg></g><g class="gotchi-wearable gotchi-secondary"><path d="M32 40v1h-1v-1h1z" /><path d="M33 42v-1h-1v1h1v1h2v-1h-2z" /><path d="M39 43v1h-4v-1h4z" /></g></svg>