<svg xmlns="http://www.w3.org/2000/svg" xmlns="http://www.w3.org/2000/svg" viewBox="0 0 64 64"><g class="gotchi-wearable wearable-head"><svg x="12" y="2"><path d="M8 17H2v-2H0v3h1v1h38v-1h1v-3h-2v2h-6V3h-2V2h-2V1h-3V0H15v1h-3v1h-2v1H8v14z" fill="#e4c599" /><path d="M31 14H8v3h24v-3h-1z" fill="#a97955" /><path d="M31 14h-1v3h2v-3h-1zm-21 0v3h2v-3h-2zm4 0v3h2v-3h-2zm12 0v3h2v-3h-2zm-4 0v3h2v-3h-2zm-4 0v3h2v-3h-2z" fill="#4b2d00" /></svg></g><g class="gotchi-wearable gotchi-secondary"><path d="M32 40v1h-1v-1h1z" /><path d="M33 42v-1h-1v1h1v1h2v-1h-2z" /><path d="M39 43v1h-4v-1h4z" /></g></svg>